<?xml version="1.0" encoding="utf-8" standalone="yes"?>
<!DOCTYPE svg PUBLIC "-//W3C//DTD SVG 1.1//EN" "http://www.w3.org/Graphics/SVG/1.1/DTD/svg11.dtd">
<svg width="744" height="331" viewBox="0 0 744 331" style="fill:none;stroke:none;fill-rule:evenodd;clip-rule:evenodd;stroke-linecap:round;stroke-linejoin:round;stroke-miterlimit:1.5;" version="1.1" xmlns="http://www.w3.org/2000/svg" xmlns:xlink="http://www.w3.org/1999/xlink"><style id="fontImports">@import url("https://fonts.googleapis.com/css2?family=Roboto:wght@400;700&amp;display=block");</style><rect id="" x="0" y="0" width="744" height="331" style="fill: #ffffff;"></rect><g id="items" style="isolation: isolate"><g id="blend" style="mix-blend-mode:normal"><g id="g-root-3.line_sy_1cuwcqwc8zj0m-fill" data-item-order="999961125" data-item-id="3.line_sy_1cuwcqwc8zj0m" data-item-class="Curve Stroke Part Indexed" data-item-index="3" data-renderer-id="0" transform="translate(290, 129)"></g><g id="g-root-3.line_sy_1cuwcqwc8zj0m-fill" data-item-order="999961125" data-item-id="3.line_sy_1cuwcqwc8zj0m" data-item-class="Curve Stroke Part Indexed" data-item-index="3" data-renderer-id="0" transform="translate(290, 129)"></g><g id="g-root-1.line_sy_4g2ufcc8zj7o-fill" data-item-order="999961127" data-item-id="1.line_sy_4g2ufcc8zj7o" data-item-class="Curve Stroke Part Indexed Indexed_1" data-item-index="1" data-renderer-id="0" transform="translate(289.9999084472656, 21)"></g><g id="g-root-1.line_sy_4g2ufcc8zj7o-fill" data-item-order="999961127" data-item-id="1.line_sy_4g2ufcc8zj7o" data-item-class="Curve Stroke Part Indexed Indexed_1" data-item-index="1" data-renderer-id="0" transform="translate(289.9999084472656, 21)"></g><g id="g-root-2.line_sy_1q5qe14c8zklh-fill" data-item-order="999961129" data-item-id="2.line_sy_1q5qe14c8zklh" data-item-class="Curve Stroke Part Indexed" data-item-index="2" data-renderer-id="0" transform="translate(289.9997863769531, 129)"></g><g id="g-root-2.line_sy_1q5qe14c8zklh-fill" data-item-order="999961129" data-item-id="2.line_sy_1q5qe14c8zklh" data-item-class="Curve Stroke Part Indexed" data-item-index="2" data-renderer-id="0" transform="translate(289.9997863769531, 129)"></g><g id="g-root-0.line_sy_8vwcjsc8ziff-fill" data-item-order="999961131" data-item-id="0.line_sy_8vwcjsc8ziff" data-item-class="Curve Stroke Part Indexed_0 ColorFillBlack ColorStrokeBlack" data-item-index="0" data-renderer-id="0" transform="translate(218, 129)"></g><g id="g-root-0.line_sy_8vwcjsc8ziff-fill" data-item-order="999961131" data-item-id="0.line_sy_8vwcjsc8ziff" data-item-class="Curve Stroke Part Indexed_0 ColorFillBlack ColorStrokeBlack" data-item-index="0" data-renderer-id="0" transform="translate(218, 129)"></g><g id="g-root-text_1qclymgc93qbs-fill" data-item-order="1000000000" data-item-id="text_1qclymgc93qbs" data-item-class="Icon Stroke Title ColorStrokeBlack" data-item-index="none" data-renderer-id="0" transform="translate(74, 57)"></g><g id="g-root-tx__dju0soc8y4u8-fill" data-item-order="1000000000" data-item-id="tx__dju0soc8y4u8" data-item-class="Label Stroke Indexed Indexed_1 ColorStrokeBlack" data-item-index="1" data-renderer-id="0" transform="translate(458, 45)"><g id="tx__dju0soc8y4u8-fill" stroke="none" fill="#484848"><g><text style="font: 20px Roboto, sans-serif; white-space: pre;" font-weight="20px" font-size="Roboto," font-family="sans-serif"><tspan x="12" y="34" dominant-baseline="ideographic">專注於物件創建過程。</tspan></text></g></g></g><g id="g-root-tx__dju0soc8y4u8-fill" data-item-order="1000000000" data-item-id="tx__dju0soc8y4u8" data-item-class="Label Stroke Indexed Indexed_1 ColorStrokeBlack" data-item-index="1" data-renderer-id="0" transform="translate(458, 45)"><g id="tx__dju0soc8y4u8-fill" stroke="none" fill="#484848"><g><text style="font: 20px Roboto, sans-serif; white-space: pre;" font-weight="20px" font-size="Roboto," font-family="sans-serif"><tspan x="12" y="34" dominant-baseline="ideographic">專注於物件創建過程。</tspan></text></g></g></g><g id="g-root-2_4kgio8c93t3i-fill" data-item-order="1000000000" data-item-id="2_4kgio8c93t3i" data-item-class="Icon Stroke Indexed ColorStrokeBlack" data-item-index="2" data-renderer-id="0" transform="translate(410, 111)"></g><g id="g-root-1_18k2zygc93qiv-fill" data-item-order="1000000000" data-item-id="1_18k2zygc93qiv" data-item-class="Icon Stroke Indexed Indexed_1 ColorStrokeBlack" data-item-index="1" data-renderer-id="0" transform="translate(410, 3)"></g><g id="g-root-tx__18n70qwc8y682-fill" data-item-order="1000000000" data-item-id="tx__18n70qwc8y682" data-item-class="Label Stroke Title ColorFillBlack ColorStrokeBlack" data-item-index="none" data-renderer-id="0" transform="translate(2, 129)"><g id="tx__18n70qwc8y682-fill" stroke="none" fill="#484848"><g><text style="font: bold 20px Roboto, sans-serif; white-space: pre;" font-weight="bold" font-size="20" font-family="Roboto, sans-serif"><tspan x="12" y="34" dominant-baseline="ideographic">該使用哪種設計模式？</tspan></text></g></g></g><g id="g-root-tx__18n70qwc8y682-fill" data-item-order="1000000000" data-item-id="tx__18n70qwc8y682" data-item-class="Label Stroke Title ColorFillBlack ColorStrokeBlack" data-item-index="none" data-renderer-id="0" transform="translate(2, 129)"><g id="tx__18n70qwc8y682-fill" stroke="none" fill="#484848"><g><text style="font: bold 20px Roboto, sans-serif; white-space: pre;" font-weight="bold" font-size="20" font-family="Roboto, sans-serif"><tspan x="12" y="34" dominant-baseline="ideographic">該使用哪種設計模式？</tspan></text></g></g></g><g id="g-root-text_1qclymgc93qbs-fill" data-item-order="1000000000" data-item-id="text_1qclymgc93qbs" data-item-class="Icon Stroke Title ColorStrokeBlack" data-item-index="none" data-renderer-id="0" transform="translate(74, 57)"></g><g id="g-root-tx__1qeh18oc8y3ux-fill" data-item-order="1000000000" data-item-id="tx__1qeh18oc8y3ux" data-item-class="Label Stroke Indexed Indexed_1 ColorFillBlack ColorStrokeBlack" data-item-index="1" data-renderer-id="0" transform="translate(458, 9)"><g id="tx__1qeh18oc8y3ux-fill" stroke="none" fill="#484848"><g><text style="font: bold 20px Roboto, sans-serif; white-space: pre;" font-weight="bold" font-size="20" font-family="Roboto, sans-serif"><tspan x="12" y="34" dominant-baseline="ideographic">創建型</tspan></text></g></g></g><g id="g-root-tx__144956wc8y5tw-fill" data-item-order="1000000000" data-item-id="tx__144956wc8y5tw" data-item-class="Label Stroke Indexed ColorStrokeBlack" data-item-index="3" data-renderer-id="0" transform="translate(458, 261)"><g id="tx__144956wc8y5tw-fill" stroke="none" fill="#484848"><g><text style="font: 20px Roboto, sans-serif; white-space: pre;" font-weight="20px" font-size="Roboto," font-family="sans-serif"><tspan x="12" y="34" dominant-baseline="ideographic">專注於物件之間的通信和職責</tspan><tspan x="12" y="58" dominant-baseline="ideographic">分配。</tspan></text></g></g></g><g id="g-root-1_18k2zygc93qiv-fill" data-item-order="1000000000" data-item-id="1_18k2zygc93qiv" data-item-class="Icon Stroke Indexed Indexed_1 ColorStrokeBlack" data-item-index="1" data-renderer-id="0" transform="translate(410, 3)"></g><g id="g-root-tx__vahk7cc8y5mv-fill" data-item-order="1000000000" data-item-id="tx__vahk7cc8y5mv" data-item-class="Label Stroke Indexed ColorFillBlack ColorStrokeBlack" data-item-index="2" data-renderer-id="0" transform="translate(458, 117)"><g id="tx__vahk7cc8y5mv-fill" stroke="none" fill="#484848"><g><text style="font: bold 20px Roboto, sans-serif; white-space: pre;" font-weight="bold" font-size="20" font-family="Roboto, sans-serif"><tspan x="12" y="34" dominant-baseline="ideographic">結構型</tspan></text></g></g></g><g id="g-root-tx__vahk7cc8y5mv-fill" data-item-order="1000000000" data-item-id="tx__vahk7cc8y5mv" data-item-class="Label Stroke Indexed ColorFillBlack ColorStrokeBlack" data-item-index="2" data-renderer-id="0" transform="translate(458, 117)"><g id="tx__vahk7cc8y5mv-fill" stroke="none" fill="#484848"><g><text style="font: bold 20px Roboto, sans-serif; white-space: pre;" font-weight="bold" font-size="20" font-family="Roboto, sans-serif"><tspan x="12" y="34" dominant-baseline="ideographic">結構型</tspan></text></g></g></g><g id="g-root-tx__1lws3uwc8y5mu-fill" data-item-order="1000000000" data-item-id="tx__1lws3uwc8y5mu" data-item-class="Label Stroke Indexed ColorStrokeBlack" data-item-index="2" data-renderer-id="0" transform="translate(458, 153)"><g id="tx__1lws3uwc8y5mu-fill" stroke="none" fill="#484848"><g><text style="font: 20px Roboto, sans-serif; white-space: pre;" font-weight="20px" font-size="Roboto," font-family="sans-serif"><tspan x="12" y="34" dominant-baseline="ideographic">專注於類別和物件的組合。</tspan></text></g></g></g><g id="g-root-tx__1lws3uwc8y5mu-fill" data-item-order="1000000000" data-item-id="tx__1lws3uwc8y5mu" data-item-class="Label Stroke Indexed ColorStrokeBlack" data-item-index="2" data-renderer-id="0" transform="translate(458, 153)"><g id="tx__1lws3uwc8y5mu-fill" stroke="none" fill="#484848"><g><text style="font: 20px Roboto, sans-serif; white-space: pre;" font-weight="20px" font-size="Roboto," font-family="sans-serif"><tspan x="12" y="34" dominant-baseline="ideographic">專注於類別和物件的組合。</tspan></text></g></g></g><g id="g-root-2_18i7kp4c93ril-fill" data-item-order="1000000000" data-item-id="2_18i7kp4c93ril" data-item-class="Icon Stroke Indexed ColorStrokeBlack" data-item-index="3" data-renderer-id="0" transform="translate(410, 219)"></g><g id="g-root-2_18i7kp4c93ril-fill" data-item-order="1000000000" data-item-id="2_18i7kp4c93ril" data-item-class="Icon Stroke Indexed ColorStrokeBlack" data-item-index="3" data-renderer-id="0" transform="translate(410, 219)"></g><g id="g-root-tx__4mblagc8y6ml-fill" data-item-order="1000000000" data-item-id="tx__4mblagc8y6ml" data-item-class="Label Stroke Indexed ColorFillBlack ColorStrokeBlack" data-item-index="3" data-renderer-id="0" transform="translate(458, 225)"><g id="tx__4mblagc8y6ml-fill" stroke="none" fill="#484848"><g><text style="font: bold 20px Roboto, sans-serif; white-space: pre;" font-weight="bold" font-size="20" font-family="Roboto, sans-serif"><tspan x="12" y="34" dominant-baseline="ideographic">行為型</tspan></text></g></g></g><g id="g-root-tx__4mblagc8y6ml-fill" data-item-order="1000000000" data-item-id="tx__4mblagc8y6ml" data-item-class="Label Stroke Indexed ColorFillBlack ColorStrokeBlack" data-item-index="3" data-renderer-id="0" transform="translate(458, 225)"><g id="tx__4mblagc8y6ml-fill" stroke="none" fill="#484848"><g><text style="font: bold 20px Roboto, sans-serif; white-space: pre;" font-weight="bold" font-size="20" font-family="Roboto, sans-serif"><tspan x="12" y="34" dominant-baseline="ideographic">行為型</tspan></text></g></g></g><g id="g-root-tx__144956wc8y5tw-fill" data-item-order="1000000000" data-item-id="tx__144956wc8y5tw" data-item-class="Label Stroke Indexed ColorStrokeBlack" data-item-index="3" data-renderer-id="0" transform="translate(458, 261)"><g id="tx__144956wc8y5tw-fill" stroke="none" fill="#484848"><g><text style="font: 20px Roboto, sans-serif; white-space: pre;" font-weight="20px" font-size="Roboto," font-family="sans-serif"><tspan x="12" y="34" dominant-baseline="ideographic">專注於物件之間的通信和職責</tspan><tspan x="12" y="58" dominant-baseline="ideographic">分配。</tspan></text></g></g></g><g id="g-root-tx__1qeh18oc8y3ux-fill" data-item-order="1000000000" data-item-id="tx__1qeh18oc8y3ux" data-item-class="Label Stroke Indexed Indexed_1 ColorFillBlack ColorStrokeBlack" data-item-index="1" data-renderer-id="0" transform="translate(458, 9)"><g id="tx__1qeh18oc8y3ux-fill" stroke="none" fill="#484848"><g><text style="font: bold 20px Roboto, sans-serif; white-space: pre;" font-weight="bold" font-size="20" font-family="Roboto, sans-serif"><tspan x="12" y="34" dominant-baseline="ideographic">創建型</tspan></text></g></g></g><g id="g-root-2_4kgio8c93t3i-fill" data-item-order="1000000000" data-item-id="2_4kgio8c93t3i" data-item-class="Icon Stroke Indexed ColorStrokeBlack" data-item-index="2" data-renderer-id="0" transform="translate(410, 111)"></g><g id="g-root-3.line_sy_1cuwcqwc8zj0m-stroke" data-item-order="999961125" data-item-id="3.line_sy_1cuwcqwc8zj0m" data-item-class="Curve Stroke Part Indexed" data-item-index="3" data-renderer-id="0" transform="translate(290, 129)"><g id="3.line_sy_1cuwcqwc8zj0m-stroke" fill="none" stroke-linecap="round" stroke-linejoin="round" stroke-miterlimit="4" stroke="#b65edf" stroke-width="2"><g><path d="M 116 118L 57.95 118C 44.7 118 33.95 107.25 33.95 94L 33.95 33.95C 33.95 20.72 23.23 10 10 10"></path><path d="M 110 124.5L 116.5 118L 110 111.5" stroke-dasharray="none"></path></g></g></g><g id="g-root-3.line_sy_1cuwcqwc8zj0m-stroke" data-item-order="999961125" data-item-id="3.line_sy_1cuwcqwc8zj0m" data-item-class="Curve Stroke Part Indexed" data-item-index="3" data-renderer-id="0" transform="translate(290, 129)"><g id="3.line_sy_1cuwcqwc8zj0m-stroke" fill="none" stroke-linecap="round" stroke-linejoin="round" stroke-miterlimit="4" stroke="#b65edf" stroke-width="2"><g><path d="M 116 118L 57.95 118C 44.7 118 33.95 107.25 33.95 94L 33.95 33.95C 33.95 20.72 23.23 10 10 10"></path><path d="M 110 124.5L 116.5 118L 110 111.5" stroke-dasharray="none"></path></g></g></g><g id="g-root-1.line_sy_4g2ufcc8zj7o-stroke" data-item-order="999961127" data-item-id="1.line_sy_4g2ufcc8zj7o" data-item-class="Curve Stroke Part Indexed Indexed_1" data-item-index="1" data-renderer-id="0" transform="translate(289.9999084472656, 21)"><g id="1.line_sy_4g2ufcc8zj7o-stroke" fill="none" stroke-linecap="round" stroke-linejoin="round" stroke-miterlimit="4" stroke="#93c131" stroke-width="2"><g><path d="M 116.000092 10L 58.950092 10C 45.700092 10 34.950092 20.75 34.950092 34L 34.950092 94.05C 34.950092 107.28 24.230092 118 11.000092 118L 10.000092 118"></path><path d="M 110.000092 16.5L 116.500092 10L 110.000092 3.5" stroke-dasharray="none"></path></g></g></g><g id="g-root-1.line_sy_4g2ufcc8zj7o-stroke" data-item-order="999961127" data-item-id="1.line_sy_4g2ufcc8zj7o" data-item-class="Curve Stroke Part Indexed Indexed_1" data-item-index="1" data-renderer-id="0" transform="translate(289.9999084472656, 21)"><g id="1.line_sy_4g2ufcc8zj7o-stroke" fill="none" stroke-linecap="round" stroke-linejoin="round" stroke-miterlimit="4" stroke="#93c131" stroke-width="2"><g><path d="M 116.000092 10L 58.950092 10C 45.700092 10 34.950092 20.75 34.950092 34L 34.950092 94.05C 34.950092 107.28 24.230092 118 11.000092 118L 10.000092 118"></path><path d="M 110.000092 16.5L 116.500092 10L 110.000092 3.5" stroke-dasharray="none"></path></g></g></g><g id="g-root-2.line_sy_1q5qe14c8zklh-stroke" data-item-order="999961129" data-item-id="2.line_sy_1q5qe14c8zklh" data-item-class="Curve Stroke Part Indexed" data-item-index="2" data-renderer-id="0" transform="translate(289.9997863769531, 129)"><g id="2.line_sy_1q5qe14c8zklh-stroke" fill="none" stroke-linecap="round" stroke-linejoin="round" stroke-miterlimit="4" stroke="#17b0e3" stroke-width="2"><g><path d="M 116.000214 10L 58.950214 10C 22.400214 10 10.000214 10 10.000214 10"></path><path d="M 110.000214 16.5L 116.500214 10L 110.000214 3.5" stroke-dasharray="none"></path></g></g></g><g id="g-root-2.line_sy_1q5qe14c8zklh-stroke" data-item-order="999961129" data-item-id="2.line_sy_1q5qe14c8zklh" data-item-class="Curve Stroke Part Indexed" data-item-index="2" data-renderer-id="0" transform="translate(289.9997863769531, 129)"><g id="2.line_sy_1q5qe14c8zklh-stroke" fill="none" stroke-linecap="round" stroke-linejoin="round" stroke-miterlimit="4" stroke="#17b0e3" stroke-width="2"><g><path d="M 116.000214 10L 58.950214 10C 22.400214 10 10.000214 10 10.000214 10"></path><path d="M 110.000214 16.5L 116.500214 10L 110.000214 3.5" stroke-dasharray="none"></path></g></g></g><g id="g-root-0.line_sy_8vwcjsc8ziff-stroke" data-item-order="999961131" data-item-id="0.line_sy_8vwcjsc8ziff" data-item-class="Curve Stroke Part Indexed_0 ColorFillBlack ColorStrokeBlack" data-item-index="0" data-renderer-id="0" transform="translate(218, 129)"><g id="0.line_sy_8vwcjsc8ziff-stroke" fill="none" stroke-linecap="round" stroke-linejoin="round" stroke-miterlimit="4" stroke="#484848" stroke-width="2"><g><path d="M 82 10L 10 10"></path></g></g></g><g id="g-root-0.line_sy_8vwcjsc8ziff-stroke" data-item-order="999961131" data-item-id="0.line_sy_8vwcjsc8ziff" data-item-class="Curve Stroke Part Indexed_0 ColorFillBlack ColorStrokeBlack" data-item-index="0" data-renderer-id="0" transform="translate(218, 129)"><g id="0.line_sy_8vwcjsc8ziff-stroke" fill="none" stroke-linecap="round" stroke-linejoin="round" stroke-miterlimit="4" stroke="#484848" stroke-width="2"><g><path d="M 82 10L 10 10"></path></g></g></g><g id="g-root-text_1qclymgc93qbs-stroke" data-item-order="1000000000" data-item-id="text_1qclymgc93qbs" data-item-class="Icon Stroke Title ColorStrokeBlack" data-item-index="none" data-renderer-id="0" transform="translate(74, 57)"><g id="text_1qclymgc93qbs-stroke" fill="none" stroke-linecap="round" stroke-linejoin="round" stroke-miterlimit="4" stroke="#484848" stroke-width="2"><g><path d="M 63.017502 21.25C 63.486374 21.718733 63.749855 22.354513 63.75 23.0175L 63.75 66.25C 63.75 67.630707 62.630711 68.75 61.25 68.75L 18.75 68.75C 17.369287 68.75 16.25 67.630707 16.25 66.25L 16.25 13.75C 16.25 12.369288 17.369287 11.25 18.75 11.25L 51.982498 11.25C 52.645489 11.250141 53.281269 11.513626 53.75 11.9825ZM 28.75 38.75L 28.75 35C 28.75 34.309647 29.309643 33.75 30 33.75L 47.5 33.75C 48.190353 33.75 48.75 34.309647 48.75 35L 48.75 38.75M 38.75 33.75L 38.75 58.75M 33.75 58.75L 43.75 58.75"></path></g></g></g><g id="g-root-tx__dju0soc8y4u8-stroke" data-item-order="1000000000" data-item-id="tx__dju0soc8y4u8" data-item-class="Label Stroke Indexed Indexed_1 ColorStrokeBlack" data-item-index="1" data-renderer-id="0" transform="translate(458, 45)"></g><g id="g-root-tx__dju0soc8y4u8-stroke" data-item-order="1000000000" data-item-id="tx__dju0soc8y4u8" data-item-class="Label Stroke Indexed Indexed_1 ColorStrokeBlack" data-item-index="1" data-renderer-id="0" transform="translate(458, 45)"></g><g id="g-root-2_4kgio8c93t3i-stroke" data-item-order="1000000000" data-item-id="2_4kgio8c93t3i" data-item-class="Icon Stroke Indexed ColorStrokeBlack" data-item-index="2" data-renderer-id="0" transform="translate(410, 111)"><g id="2_4kgio8c93t3i-stroke" fill="none" stroke-linecap="round" stroke-linejoin="round" stroke-miterlimit="4" stroke="#484848" stroke-width="2"><g><path d="M 24.142857 16.428572C 24.142857 18.558813 25.869759 20.285713 28 20.285713C 30.130241 20.285713 31.857143 18.558813 31.857143 16.428572C 31.857143 14.29833 30.130241 12.571429 28 12.571429C 25.869759 12.571429 24.142857 14.29833 24.142857 16.428572M 11.285714 39.571426C 11.285714 41.701672 13.012616 43.42857 15.142857 43.42857C 17.273098 43.42857 19 41.701672 19 39.571426C 19 37.441189 17.273098 35.714287 15.142857 35.714287C 13.012616 35.714287 11.285714 37.441189 11.285714 39.571426M 24.142857 39.571426C 24.142857 41.701672 25.869759 43.42857 28 43.42857C 30.130241 43.42857 31.857143 41.701672 31.857143 39.571426C 31.857143 37.441189 30.130241 35.714287 28 35.714287C 25.869759 35.714287 24.142857 37.441189 24.142857 39.571426M 37 39.571426C 37 41.701672 38.726902 43.42857 40.857143 43.42857C 42.987385 43.42857 44.714287 41.701672 44.714287 39.571426C 44.714287 37.441189 42.987385 35.714287 40.857143 35.714287C 38.726902 35.714287 37 37.441189 37 39.571426M 15.142857 35.714287L 15.142857 30.571428C 15.142857 29.151268 16.294125 28 17.714285 28L 38.285713 28C 39.705875 28 40.857143 29.151268 40.857143 30.571428L 40.857143 35.714287M 28 20.285713L 28 35.714287"></path></g></g></g><g id="g-root-1_18k2zygc93qiv-stroke" data-item-order="1000000000" data-item-id="1_18k2zygc93qiv" data-item-class="Icon Stroke Indexed Indexed_1 ColorStrokeBlack" data-item-index="1" data-renderer-id="0" transform="translate(410, 3)"><g id="1_18k2zygc93qiv-stroke" fill="none" stroke-linecap="round" stroke-linejoin="round" stroke-miterlimit="4" stroke="#484848" stroke-width="2"><g><path d="M 38.438499 13.375L 42.938499 13.375M 33.938499 37.375C 33.938499 37.789215 34.274284 38.125 34.688499 38.125C 35.102715 38.125 35.438499 37.789215 35.438499 37.375C 35.438499 36.960785 35.102715 36.625 34.688499 36.625C 34.274284 36.625 33.938499 36.960785 33.938499 37.375M 36.938499 22.375C 36.938499 22.789213 37.274284 23.125 37.688499 23.125C 38.102715 23.125 38.438499 22.789213 38.438499 22.375C 38.438499 21.960787 38.102715 21.625 37.688499 21.625C 37.274284 21.625 36.938499 21.960787 36.938499 22.375M 27.938499 14.875C 27.938499 15.289213 28.274286 15.625 28.688499 15.625C 29.102715 15.625 29.438499 15.289213 29.438499 14.875C 29.438499 14.460787 29.102715 14.125 28.688499 14.125C 28.274286 14.125 27.938499 14.460787 27.938499 14.875M 20.438499 35.875C 20.438499 36.289215 20.774286 36.625 21.188499 36.625C 21.602713 36.625 21.938499 36.289215 21.938499 35.875C 21.938499 35.460785 21.602713 35.125 21.188499 35.125C 20.774286 35.125 20.438499 35.460785 20.438499 35.875M 34.827999 29.759501C 34.870064 29.583099 34.89716 29.403461 34.909 29.2225C 34.909 26.554001 31.664499 24.390999 27.660999 24.390999C 23.657499 24.390999 20.413 26.554001 20.413 29.2225C 20.426809 29.403633 20.455914 29.583273 20.5 29.759501C 13.966 29.759501 10.75 31.387001 10.75 34.859501C 10.75 38.332001 14.9335 40.4095 24.943001 40.4095C 27.1646 43.205109 30.532734 44.844223 34.1035 44.8675C 40.703499 44.8675 45.25 41.506001 45.25 37.138C 45.25 33.241001 43.546001 29.759501 34.827999 29.759501ZM 20.5 29.759501C 22.679123 31.705898 25.559948 32.675568 28.4725 32.443001M 12.1885 17.125L 21.188499 17.125M 16.688499 12.625L 16.688499 21.625M 40.688499 11.125L 40.688499 15.625"></path></g></g></g><g id="g-root-tx__18n70qwc8y682-stroke" data-item-order="1000000000" data-item-id="tx__18n70qwc8y682" data-item-class="Label Stroke Title ColorFillBlack ColorStrokeBlack" data-item-index="none" data-renderer-id="0" transform="translate(2, 129)"></g><g id="g-root-tx__18n70qwc8y682-stroke" data-item-order="1000000000" data-item-id="tx__18n70qwc8y682" data-item-class="Label Stroke Title ColorFillBlack ColorStrokeBlack" data-item-index="none" data-renderer-id="0" transform="translate(2, 129)"></g><g id="g-root-text_1qclymgc93qbs-stroke" data-item-order="1000000000" data-item-id="text_1qclymgc93qbs" data-item-class="Icon Stroke Title ColorStrokeBlack" data-item-index="none" data-renderer-id="0" transform="translate(74, 57)"><g id="text_1qclymgc93qbs-stroke" fill="none" stroke-linecap="round" stroke-linejoin="round" stroke-miterlimit="4" stroke="#484848" stroke-width="2"><g><path d="M 63.017502 21.25C 63.486374 21.718733 63.749855 22.354513 63.75 23.0175L 63.75 66.25C 63.75 67.630707 62.630711 68.75 61.25 68.75L 18.75 68.75C 17.369287 68.75 16.25 67.630707 16.25 66.25L 16.25 13.75C 16.25 12.369288 17.369287 11.25 18.75 11.25L 51.982498 11.25C 52.645489 11.250141 53.281269 11.513626 53.75 11.9825ZM 28.75 38.75L 28.75 35C 28.75 34.309647 29.309643 33.75 30 33.75L 47.5 33.75C 48.190353 33.75 48.75 34.309647 48.75 35L 48.75 38.75M 38.75 33.75L 38.75 58.75M 33.75 58.75L 43.75 58.75"></path></g></g></g><g id="g-root-tx__1qeh18oc8y3ux-stroke" data-item-order="1000000000" data-item-id="tx__1qeh18oc8y3ux" data-item-class="Label Stroke Indexed Indexed_1 ColorFillBlack ColorStrokeBlack" data-item-index="1" data-renderer-id="0" transform="translate(458, 9)"></g><g id="g-root-tx__144956wc8y5tw-stroke" data-item-order="1000000000" data-item-id="tx__144956wc8y5tw" data-item-class="Label Stroke Indexed ColorStrokeBlack" data-item-index="3" data-renderer-id="0" transform="translate(458, 261)"></g><g id="g-root-1_18k2zygc93qiv-stroke" data-item-order="1000000000" data-item-id="1_18k2zygc93qiv" data-item-class="Icon Stroke Indexed Indexed_1 ColorStrokeBlack" data-item-index="1" data-renderer-id="0" transform="translate(410, 3)"><g id="1_18k2zygc93qiv-stroke" fill="none" stroke-linecap="round" stroke-linejoin="round" stroke-miterlimit="4" stroke="#484848" stroke-width="2"><g><path d="M 38.438499 13.375L 42.938499 13.375M 33.938499 37.375C 33.938499 37.789215 34.274284 38.125 34.688499 38.125C 35.102715 38.125 35.438499 37.789215 35.438499 37.375C 35.438499 36.960785 35.102715 36.625 34.688499 36.625C 34.274284 36.625 33.938499 36.960785 33.938499 37.375M 36.938499 22.375C 36.938499 22.789213 37.274284 23.125 37.688499 23.125C 38.102715 23.125 38.438499 22.789213 38.438499 22.375C 38.438499 21.960787 38.102715 21.625 37.688499 21.625C 37.274284 21.625 36.938499 21.960787 36.938499 22.375M 27.938499 14.875C 27.938499 15.289213 28.274286 15.625 28.688499 15.625C 29.102715 15.625 29.438499 15.289213 29.438499 14.875C 29.438499 14.460787 29.102715 14.125 28.688499 14.125C 28.274286 14.125 27.938499 14.460787 27.938499 14.875M 20.438499 35.875C 20.438499 36.289215 20.774286 36.625 21.188499 36.625C 21.602713 36.625 21.938499 36.289215 21.938499 35.875C 21.938499 35.460785 21.602713 35.125 21.188499 35.125C 20.774286 35.125 20.438499 35.460785 20.438499 35.875M 34.827999 29.759501C 34.870064 29.583099 34.89716 29.403461 34.909 29.2225C 34.909 26.554001 31.664499 24.390999 27.660999 24.390999C 23.657499 24.390999 20.413 26.554001 20.413 29.2225C 20.426809 29.403633 20.455914 29.583273 20.5 29.759501C 13.966 29.759501 10.75 31.387001 10.75 34.859501C 10.75 38.332001 14.9335 40.4095 24.943001 40.4095C 27.1646 43.205109 30.532734 44.844223 34.1035 44.8675C 40.703499 44.8675 45.25 41.506001 45.25 37.138C 45.25 33.241001 43.546001 29.759501 34.827999 29.759501ZM 20.5 29.759501C 22.679123 31.705898 25.559948 32.675568 28.4725 32.443001M 12.1885 17.125L 21.188499 17.125M 16.688499 12.625L 16.688499 21.625M 40.688499 11.125L 40.688499 15.625"></path></g></g></g><g id="g-root-tx__vahk7cc8y5mv-stroke" data-item-order="1000000000" data-item-id="tx__vahk7cc8y5mv" data-item-class="Label Stroke Indexed ColorFillBlack ColorStrokeBlack" data-item-index="2" data-renderer-id="0" transform="translate(458, 117)"></g><g id="g-root-tx__vahk7cc8y5mv-stroke" data-item-order="1000000000" data-item-id="tx__vahk7cc8y5mv" data-item-class="Label Stroke Indexed ColorFillBlack ColorStrokeBlack" data-item-index="2" data-renderer-id="0" transform="translate(458, 117)"></g><g id="g-root-tx__1lws3uwc8y5mu-stroke" data-item-order="1000000000" data-item-id="tx__1lws3uwc8y5mu" data-item-class="Label Stroke Indexed ColorStrokeBlack" data-item-index="2" data-renderer-id="0" transform="translate(458, 153)"></g><g id="g-root-tx__1lws3uwc8y5mu-stroke" data-item-order="1000000000" data-item-id="tx__1lws3uwc8y5mu" data-item-class="Label Stroke Indexed ColorStrokeBlack" data-item-index="2" data-renderer-id="0" transform="translate(458, 153)"></g><g id="g-root-2_18i7kp4c93ril-stroke" data-item-order="1000000000" data-item-id="2_18i7kp4c93ril" data-item-class="Icon Stroke Indexed ColorStrokeBlack" data-item-index="3" data-renderer-id="0" transform="translate(410, 219)"><g id="2_18i7kp4c93ril-stroke" fill="none" stroke-linecap="round" stroke-linejoin="round" stroke-miterlimit="4" stroke="#484848" stroke-width="2"><g><path d="M 14.5 16.75L 35.875 16.75C 35.875 16.75 37.375 16.75 37.375 18.25L 37.375 43.75C 37.375 43.75 37.375 45.25 35.875 45.25L 14.5 45.25C 14.5 45.25 13 45.25 13 43.75L 13 18.25C 13 18.25 13 16.75 14.5 16.75M 20.5 10.75L 41.5 10.75C 42.328426 10.75 43 11.421573 43 12.25L 43 40M 29.432499 32.523998C 29.431892 35.012993 27.413994 37.030403 24.924999 37.030403C 22.436005 37.030403 20.418108 35.012993 20.4175 32.523998L 20.4175 30.274C 20.418108 27.785007 22.436005 25.767601 24.924999 25.767601C 27.413994 25.767601 29.431892 27.785007 29.432499 30.274ZM 20.4175 30.271L 29.432499 30.271M 17.039499 32.523998L 20.4175 32.523998M 29.432499 32.523998L 32.810501 32.523998M 18.916 38.532997L 21.737499 35.711502M 18.164499 24.637001L 21.224499 27.697001M 30.934 38.532997L 28.112499 35.711502M 31.685499 24.637001L 28.6255 27.697001"></path></g></g></g><g id="g-root-2_18i7kp4c93ril-stroke" data-item-order="1000000000" data-item-id="2_18i7kp4c93ril" data-item-class="Icon Stroke Indexed ColorStrokeBlack" data-item-index="3" data-renderer-id="0" transform="translate(410, 219)"><g id="2_18i7kp4c93ril-stroke" fill="none" stroke-linecap="round" stroke-linejoin="round" stroke-miterlimit="4" stroke="#484848" stroke-width="2"><g><path d="M 14.5 16.75L 35.875 16.75C 35.875 16.75 37.375 16.75 37.375 18.25L 37.375 43.75C 37.375 43.75 37.375 45.25 35.875 45.25L 14.5 45.25C 14.5 45.25 13 45.25 13 43.75L 13 18.25C 13 18.25 13 16.75 14.5 16.75M 20.5 10.75L 41.5 10.75C 42.328426 10.75 43 11.421573 43 12.25L 43 40M 29.432499 32.523998C 29.431892 35.012993 27.413994 37.030403 24.924999 37.030403C 22.436005 37.030403 20.418108 35.012993 20.4175 32.523998L 20.4175 30.274C 20.418108 27.785007 22.436005 25.767601 24.924999 25.767601C 27.413994 25.767601 29.431892 27.785007 29.432499 30.274ZM 20.4175 30.271L 29.432499 30.271M 17.039499 32.523998L 20.4175 32.523998M 29.432499 32.523998L 32.810501 32.523998M 18.916 38.532997L 21.737499 35.711502M 18.164499 24.637001L 21.224499 27.697001M 30.934 38.532997L 28.112499 35.711502M 31.685499 24.637001L 28.6255 27.697001"></path></g></g></g><g id="g-root-tx__4mblagc8y6ml-stroke" data-item-order="1000000000" data-item-id="tx__4mblagc8y6ml" data-item-class="Label Stroke Indexed ColorFillBlack ColorStrokeBlack" data-item-index="3" data-renderer-id="0" transform="translate(458, 225)"></g><g id="g-root-tx__4mblagc8y6ml-stroke" data-item-order="1000000000" data-item-id="tx__4mblagc8y6ml" data-item-class="Label Stroke Indexed ColorFillBlack ColorStrokeBlack" data-item-index="3" data-renderer-id="0" transform="translate(458, 225)"></g><g id="g-root-tx__144956wc8y5tw-stroke" data-item-order="1000000000" data-item-id="tx__144956wc8y5tw" data-item-class="Label Stroke Indexed ColorStrokeBlack" data-item-index="3" data-renderer-id="0" transform="translate(458, 261)"></g><g id="g-root-tx__1qeh18oc8y3ux-stroke" data-item-order="1000000000" data-item-id="tx__1qeh18oc8y3ux" data-item-class="Label Stroke Indexed Indexed_1 ColorFillBlack ColorStrokeBlack" data-item-index="1" data-renderer-id="0" transform="translate(458, 9)"></g><g id="g-root-2_4kgio8c93t3i-stroke" data-item-order="1000000000" data-item-id="2_4kgio8c93t3i" data-item-class="Icon Stroke Indexed ColorStrokeBlack" data-item-index="2" data-renderer-id="0" transform="translate(410, 111)"><g id="2_4kgio8c93t3i-stroke" fill="none" stroke-linecap="round" stroke-linejoin="round" stroke-miterlimit="4" stroke="#484848" stroke-width="2"><g><path d="M 24.142857 16.428572C 24.142857 18.558813 25.869759 20.285713 28 20.285713C 30.130241 20.285713 31.857143 18.558813 31.857143 16.428572C 31.857143 14.29833 30.130241 12.571429 28 12.571429C 25.869759 12.571429 24.142857 14.29833 24.142857 16.428572M 11.285714 39.571426C 11.285714 41.701672 13.012616 43.42857 15.142857 43.42857C 17.273098 43.42857 19 41.701672 19 39.571426C 19 37.441189 17.273098 35.714287 15.142857 35.714287C 13.012616 35.714287 11.285714 37.441189 11.285714 39.571426M 24.142857 39.571426C 24.142857 41.701672 25.869759 43.42857 28 43.42857C 30.130241 43.42857 31.857143 41.701672 31.857143 39.571426C 31.857143 37.441189 30.130241 35.714287 28 35.714287C 25.869759 35.714287 24.142857 37.441189 24.142857 39.571426M 37 39.571426C 37 41.701672 38.726902 43.42857 40.857143 43.42857C 42.987385 43.42857 44.714287 41.701672 44.714287 39.571426C 44.714287 37.441189 42.987385 35.714287 40.857143 35.714287C 38.726902 35.714287 37 37.441189 37 39.571426M 15.142857 35.714287L 15.142857 30.571428C 15.142857 29.151268 16.294125 28 17.714285 28L 38.285713 28C 39.705875 28 40.857143 29.151268 40.857143 30.571428L 40.857143 35.714287M 28 20.285713L 28 35.714287"></path></g></g></g></g></g></svg>