<?xml version="1.0" encoding="utf-8" standalone="yes"?>
<!DOCTYPE svg PUBLIC "-//W3C//DTD SVG 1.1//EN" "http://www.w3.org/Graphics/SVG/1.1/DTD/svg11.dtd">
<svg width="234" height="230" viewBox="0 0 234 230" style="fill:none;stroke:none;fill-rule:evenodd;clip-rule:evenodd;stroke-linecap:round;stroke-linejoin:round;stroke-miterlimit:1.5;" version="1.1" xmlns="http://www.w3.org/2000/svg" xmlns:xlink="http://www.w3.org/1999/xlink"><style id="fontImports">@import url("https://fonts.googleapis.com/css2?family=Roboto:wght@400;700&amp;display=block");</style><rect id="" x="0" y="0" width="234" height="230" style="fill: #ffffff;"></rect><g id="items" style="isolation: isolate"><g id="blend" style="mix-blend-mode:normal"><g id="g-root-0.cr-0_cr_zjf1y08x8lxl-fill" data-item-order="999973076" data-item-id="0.cr-0_cr_zjf1y08x8lxl" data-item-class="Shape Stroke Fill Part Indexed_0 ColorFillBlack" data-item-index="0" data-renderer-id="0" transform="translate(8, 3)"><g id="0.cr-0_cr_zjf1y08x8lxl-fill" stroke="none" fill="#666666"><g><path d="M 10 40C 10.000002 56.568544 23.431459 70.000002 40.000002 70.000002C 56.568544 70.000002 70.000002 56.568544 70.000002 40.000002C 70.000002 23.431459 56.568544 10.000002 40.000002 10.000002C 23.431459 10.000002 10.000002 23.431459 10.000002 40.000002"></path></g></g></g><g id="g-root-0.cr-0_cr_zjf1y08x8lxl-fill" data-item-order="999973076" data-item-id="0.cr-0_cr_zjf1y08x8lxl" data-item-class="Shape Stroke Fill Part Indexed_0 ColorFillBlack" data-item-index="0" data-renderer-id="0" transform="translate(8, 3)"><g id="0.cr-0_cr_zjf1y08x8lxl-fill" stroke="none" fill="#666666"><g><path d="M 10 40C 10.000002 56.568544 23.431459 70.000002 40.000002 70.000002C 56.568544 70.000002 70.000002 56.568544 70.000002 40.000002C 70.000002 23.431459 56.568544 10.000002 40.000002 10.000002C 23.431459 10.000002 10.000002 23.431459 10.000002 40.000002"></path></g></g></g><g id="g-root-1.cr-1_cr_hs51g88x8oaq-fill" data-item-order="999973078" data-item-id="1.cr-1_cr_hs51g88x8oaq" data-item-class="Shape Stroke Fill Part Indexed Indexed_1" data-item-index="1" data-renderer-id="0" transform="translate(8, 75)"><g id="1.cr-1_cr_hs51g88x8oaq-fill" stroke="none" fill="#dd8433"><g><path d="M 10 40C 10.000002 56.568544 23.431459 70.000002 40.000002 70.000002C 56.568544 70.000002 70.000002 56.568544 70.000002 40.000002C 70.000002 23.431459 56.568544 10.000002 40.000002 10.000002C 23.431459 10.000002 10.000002 23.431459 10.000002 40.000002"></path></g></g></g><g id="g-root-1.cr-1_cr_hs51g88x8oaq-fill" data-item-order="999973078" data-item-id="1.cr-1_cr_hs51g88x8oaq" data-item-class="Shape Stroke Fill Part Indexed Indexed_1" data-item-index="1" data-renderer-id="0" transform="translate(8, 75)"><g id="1.cr-1_cr_hs51g88x8oaq-fill" stroke="none" fill="#dd8433"><g><path d="M 10 40C 10.000002 56.568544 23.431459 70.000002 40.000002 70.000002C 56.568544 70.000002 70.000002 56.568544 70.000002 40.000002C 70.000002 23.431459 56.568544 10.000002 40.000002 10.000002C 23.431459 10.000002 10.000002 23.431459 10.000002 40.000002"></path></g></g></g><g id="g-root-2.cr-2_cr_4hb0608x8mpv-fill" data-item-order="999973080" data-item-id="2.cr-2_cr_4hb0608x8mpv" data-item-class="Shape Stroke Fill Part Indexed" data-item-index="2" data-renderer-id="0" transform="translate(8, 147)"><g id="2.cr-2_cr_4hb0608x8mpv-fill" stroke="none" fill="#da5da8"><g><path d="M 10 40C 10.000002 56.568544 23.431459 70.000002 40.000002 70.000002C 56.568544 70.000002 70.000002 56.568544 70.000002 40.000002C 70.000002 23.431459 56.568544 10.000002 40.000002 10.000002C 23.431459 10.000002 10.000002 23.431459 10.000002 40.000002"></path></g></g></g><g id="g-root-2.cr-2_cr_4hb0608x8mpv-fill" data-item-order="999973080" data-item-id="2.cr-2_cr_4hb0608x8mpv" data-item-class="Shape Stroke Fill Part Indexed" data-item-index="2" data-renderer-id="0" transform="translate(8, 147)"><g id="2.cr-2_cr_4hb0608x8mpv-fill" stroke="none" fill="#da5da8"><g><path d="M 10 40C 10.000002 56.568544 23.431459 70.000002 40.000002 70.000002C 56.568544 70.000002 70.000002 56.568544 70.000002 40.000002C 70.000002 23.431459 56.568544 10.000002 40.000002 10.000002C 23.431459 10.000002 10.000002 23.431459 10.000002 40.000002"></path></g></g></g><g id="g-root-atta_1lqikk88xcw74-fill" data-item-order="1000000000" data-item-id="atta_1lqikk88xcw74" data-item-class="Icon Stroke Indexed Indexed_1 InsideFill InsideColorFill" data-item-index="1" data-renderer-id="0" transform="translate(20, 15)"></g><g id="g-root-atta_1lqikk88xcw74-fill" data-item-order="1000000000" data-item-id="atta_1lqikk88xcw74" data-item-class="Icon Stroke Indexed Indexed_1 InsideFill InsideColorFill" data-item-index="1" data-renderer-id="0" transform="translate(20, 15)"></g><g id="g-root-tx__1qdtrq08x78cu-fill" data-item-order="1000000000" data-item-id="tx__1qdtrq08x78cu" data-item-class="Label Stroke Indexed Indexed_1 ColorStrokeBlack" data-item-index="1" data-renderer-id="0" transform="translate(80, 21)"><g id="tx__1qdtrq08x78cu-fill" stroke="none" fill="#484848"><g><text style="font: 20px Roboto, sans-serif; white-space: pre;" font-weight="20px" font-size="Roboto," font-family="sans-serif"><tspan x="12" y="34" dominant-baseline="ideographic">促進鬆散耦合</tspan></text></g></g></g><g id="g-root-tx__1qdtrq08x78cu-fill" data-item-order="1000000000" data-item-id="tx__1qdtrq08x78cu" data-item-class="Label Stroke Indexed Indexed_1 ColorStrokeBlack" data-item-index="1" data-renderer-id="0" transform="translate(80, 21)"><g id="tx__1qdtrq08x78cu-fill" stroke="none" fill="#484848"><g><text style="font: 20px Roboto, sans-serif; white-space: pre;" font-weight="20px" font-size="Roboto," font-family="sans-serif"><tspan x="12" y="34" dominant-baseline="ideographic">促進鬆散耦合</tspan></text></g></g></g><g id="g-root-1_htdzmg8xcuma-fill" data-item-order="1000000000" data-item-id="1_htdzmg8xcuma" data-item-class="Icon Stroke Indexed InsideFill InsideColorFill" data-item-index="2" data-renderer-id="0" transform="translate(20, 87)"></g><g id="g-root-1_htdzmg8xcuma-fill" data-item-order="1000000000" data-item-id="1_htdzmg8xcuma" data-item-class="Icon Stroke Indexed InsideFill InsideColorFill" data-item-index="2" data-renderer-id="0" transform="translate(20, 87)"></g><g id="g-root-tx__mg2pp48x79xr-fill" data-item-order="1000000000" data-item-id="tx__mg2pp48x79xr" data-item-class="Label Stroke Indexed ColorStrokeBlack" data-item-index="2" data-renderer-id="0" transform="translate(80, 81)"><g id="tx__mg2pp48x79xr-fill" stroke="none" fill="#484848"><g><text style="font: 20px Roboto, sans-serif; white-space: pre;" font-weight="20px" font-size="Roboto," font-family="sans-serif"><tspan x="12" y="34" dominant-baseline="ideographic">定義清晰的通</tspan><tspan x="12" y="58" dominant-baseline="ideographic">訊協議</tspan></text></g></g></g><g id="g-root-tx__mg2pp48x79xr-fill" data-item-order="1000000000" data-item-id="tx__mg2pp48x79xr" data-item-class="Label Stroke Indexed ColorStrokeBlack" data-item-index="2" data-renderer-id="0" transform="translate(80, 81)"><g id="tx__mg2pp48x79xr-fill" stroke="none" fill="#484848"><g><text style="font: 20px Roboto, sans-serif; white-space: pre;" font-weight="20px" font-size="Roboto," font-family="sans-serif"><tspan x="12" y="34" dominant-baseline="ideographic">定義清晰的通</tspan><tspan x="12" y="58" dominant-baseline="ideographic">訊協議</tspan></text></g></g></g><g id="g-root-assi_1uo102g8xctmz-fill" data-item-order="1000000000" data-item-id="assi_1uo102g8xctmz" data-item-class="Icon Stroke Indexed InsideFill InsideColorFill" data-item-index="3" data-renderer-id="0" transform="translate(20, 159)"></g><g id="g-root-assi_1uo102g8xctmz-fill" data-item-order="1000000000" data-item-id="assi_1uo102g8xctmz" data-item-class="Icon Stroke Indexed InsideFill InsideColorFill" data-item-index="3" data-renderer-id="0" transform="translate(20, 159)"></g><g id="g-root-tx__1q5pllk8x8lxk-fill" data-item-order="1000000000" data-item-id="tx__1q5pllk8x8lxk" data-item-class="Label Stroke Indexed ColorStrokeBlack" data-item-index="3" data-renderer-id="0" transform="translate(80, 165)"><g id="tx__1q5pllk8x8lxk-fill" stroke="none" fill="#484848"><g><text style="font: 20px Roboto, sans-serif; white-space: pre;" font-weight="20px" font-size="Roboto," font-family="sans-serif"><tspan x="12" y="34" dominant-baseline="ideographic">分配責任</tspan></text></g></g></g><g id="g-root-tx__1q5pllk8x8lxk-fill" data-item-order="1000000000" data-item-id="tx__1q5pllk8x8lxk" data-item-class="Label Stroke Indexed ColorStrokeBlack" data-item-index="3" data-renderer-id="0" transform="translate(80, 165)"><g id="tx__1q5pllk8x8lxk-fill" stroke="none" fill="#484848"><g><text style="font: 20px Roboto, sans-serif; white-space: pre;" font-weight="20px" font-size="Roboto," font-family="sans-serif"><tspan x="12" y="34" dominant-baseline="ideographic">分配責任</tspan></text></g></g></g><g id="g-root-0.cr-0_cr_zjf1y08x8lxl-stroke" data-item-order="999973076" data-item-id="0.cr-0_cr_zjf1y08x8lxl" data-item-class="Shape Stroke Fill Part Indexed_0 ColorFillBlack" data-item-index="0" data-renderer-id="0" transform="translate(8, 3)"><g id="0.cr-0_cr_zjf1y08x8lxl-stroke" fill="none" stroke-linecap="round" stroke-linejoin="round" stroke-miterlimit="4" stroke="#ffffff" stroke-width="2"><g><path d="M 10 40C 10.000002 56.568544 23.431459 70.000002 40.000002 70.000002C 56.568544 70.000002 70.000002 56.568544 70.000002 40.000002C 70.000002 23.431459 56.568544 10.000002 40.000002 10.000002C 23.431459 10.000002 10.000002 23.431459 10.000002 40.000002"></path></g></g></g><g id="g-root-0.cr-0_cr_zjf1y08x8lxl-stroke" data-item-order="999973076" data-item-id="0.cr-0_cr_zjf1y08x8lxl" data-item-class="Shape Stroke Fill Part Indexed_0 ColorFillBlack" data-item-index="0" data-renderer-id="0" transform="translate(8, 3)"><g id="0.cr-0_cr_zjf1y08x8lxl-stroke" fill="none" stroke-linecap="round" stroke-linejoin="round" stroke-miterlimit="4" stroke="#ffffff" stroke-width="2"><g><path d="M 10 40C 10.000002 56.568544 23.431459 70.000002 40.000002 70.000002C 56.568544 70.000002 70.000002 56.568544 70.000002 40.000002C 70.000002 23.431459 56.568544 10.000002 40.000002 10.000002C 23.431459 10.000002 10.000002 23.431459 10.000002 40.000002"></path></g></g></g><g id="g-root-1.cr-1_cr_hs51g88x8oaq-stroke" data-item-order="999973078" data-item-id="1.cr-1_cr_hs51g88x8oaq" data-item-class="Shape Stroke Fill Part Indexed Indexed_1" data-item-index="1" data-renderer-id="0" transform="translate(8, 75)"><g id="1.cr-1_cr_hs51g88x8oaq-stroke" fill="none" stroke-linecap="round" stroke-linejoin="round" stroke-miterlimit="4" stroke="#ffffff" stroke-width="2"><g><path d="M 10 40C 10.000002 56.568544 23.431459 70.000002 40.000002 70.000002C 56.568544 70.000002 70.000002 56.568544 70.000002 40.000002C 70.000002 23.431459 56.568544 10.000002 40.000002 10.000002C 23.431459 10.000002 10.000002 23.431459 10.000002 40.000002"></path></g></g></g><g id="g-root-1.cr-1_cr_hs51g88x8oaq-stroke" data-item-order="999973078" data-item-id="1.cr-1_cr_hs51g88x8oaq" data-item-class="Shape Stroke Fill Part Indexed Indexed_1" data-item-index="1" data-renderer-id="0" transform="translate(8, 75)"><g id="1.cr-1_cr_hs51g88x8oaq-stroke" fill="none" stroke-linecap="round" stroke-linejoin="round" stroke-miterlimit="4" stroke="#ffffff" stroke-width="2"><g><path d="M 10 40C 10.000002 56.568544 23.431459 70.000002 40.000002 70.000002C 56.568544 70.000002 70.000002 56.568544 70.000002 40.000002C 70.000002 23.431459 56.568544 10.000002 40.000002 10.000002C 23.431459 10.000002 10.000002 23.431459 10.000002 40.000002"></path></g></g></g><g id="g-root-2.cr-2_cr_4hb0608x8mpv-stroke" data-item-order="999973080" data-item-id="2.cr-2_cr_4hb0608x8mpv" data-item-class="Shape Stroke Fill Part Indexed" data-item-index="2" data-renderer-id="0" transform="translate(8, 147)"><g id="2.cr-2_cr_4hb0608x8mpv-stroke" fill="none" stroke-linecap="round" stroke-linejoin="round" stroke-miterlimit="4" stroke="#ffffff" stroke-width="2"><g><path d="M 10 40C 10.000002 56.568544 23.431459 70.000002 40.000002 70.000002C 56.568544 70.000002 70.000002 56.568544 70.000002 40.000002C 70.000002 23.431459 56.568544 10.000002 40.000002 10.000002C 23.431459 10.000002 10.000002 23.431459 10.000002 40.000002"></path></g></g></g><g id="g-root-2.cr-2_cr_4hb0608x8mpv-stroke" data-item-order="999973080" data-item-id="2.cr-2_cr_4hb0608x8mpv" data-item-class="Shape Stroke Fill Part Indexed" data-item-index="2" data-renderer-id="0" transform="translate(8, 147)"><g id="2.cr-2_cr_4hb0608x8mpv-stroke" fill="none" stroke-linecap="round" stroke-linejoin="round" stroke-miterlimit="4" stroke="#ffffff" stroke-width="2"><g><path d="M 10 40C 10.000002 56.568544 23.431459 70.000002 40.000002 70.000002C 56.568544 70.000002 70.000002 56.568544 70.000002 40.000002C 70.000002 23.431459 56.568544 10.000002 40.000002 10.000002C 23.431459 10.000002 10.000002 23.431459 10.000002 40.000002"></path></g></g></g><g id="g-root-atta_1lqikk88xcw74-stroke" data-item-order="1000000000" data-item-id="atta_1lqikk88xcw74" data-item-class="Icon Stroke Indexed Indexed_1 InsideFill InsideColorFill" data-item-index="1" data-renderer-id="0" transform="translate(20, 15)"><g id="atta_1lqikk88xcw74-stroke" fill="none" stroke-linecap="round" stroke-linejoin="round" stroke-miterlimit="4" stroke="#ffffff" stroke-width="2"><g><path d="M 21.427 33.017502L 34.426003 20.018499C 35.193127 19.219929 36.331982 18.898371 37.403484 19.177807C 38.474987 19.457241 39.31176 20.294016 39.591194 21.365519C 39.870628 22.437019 39.549072 23.575874 38.7505 24.343L 21.1915 41.9575C 18.802317 44.346272 14.92902 44.345932 12.54025 41.956749C 10.151481 39.567566 10.151816 35.694267 12.541 33.3055L 30.892 14.9575C 34.176147 11.674728 39.499462 11.675118 42.783127 14.95837C 46.066795 18.241623 46.067856 23.564938 42.7855 26.849499L 29.788 39.849998"></path></g></g></g><g id="g-root-atta_1lqikk88xcw74-stroke" data-item-order="1000000000" data-item-id="atta_1lqikk88xcw74" data-item-class="Icon Stroke Indexed Indexed_1 InsideFill InsideColorFill" data-item-index="1" data-renderer-id="0" transform="translate(20, 15)"><g id="atta_1lqikk88xcw74-stroke" fill="none" stroke-linecap="round" stroke-linejoin="round" stroke-miterlimit="4" stroke="#ffffff" stroke-width="2"><g><path d="M 21.427 33.017502L 34.426003 20.018499C 35.193127 19.219929 36.331982 18.898371 37.403484 19.177807C 38.474987 19.457241 39.31176 20.294016 39.591194 21.365519C 39.870628 22.437019 39.549072 23.575874 38.7505 24.343L 21.1915 41.9575C 18.802317 44.346272 14.92902 44.345932 12.54025 41.956749C 10.151481 39.567566 10.151816 35.694267 12.541 33.3055L 30.892 14.9575C 34.176147 11.674728 39.499462 11.675118 42.783127 14.95837C 46.066795 18.241623 46.067856 23.564938 42.7855 26.849499L 29.788 39.849998"></path></g></g></g><g id="g-root-tx__1qdtrq08x78cu-stroke" data-item-order="1000000000" data-item-id="tx__1qdtrq08x78cu" data-item-class="Label Stroke Indexed Indexed_1 ColorStrokeBlack" data-item-index="1" data-renderer-id="0" transform="translate(80, 21)"></g><g id="g-root-tx__1qdtrq08x78cu-stroke" data-item-order="1000000000" data-item-id="tx__1qdtrq08x78cu" data-item-class="Label Stroke Indexed Indexed_1 ColorStrokeBlack" data-item-index="1" data-renderer-id="0" transform="translate(80, 21)"></g><g id="g-root-1_htdzmg8xcuma-stroke" data-item-order="1000000000" data-item-id="1_htdzmg8xcuma" data-item-class="Icon Stroke Indexed InsideFill InsideColorFill" data-item-index="2" data-renderer-id="0" transform="translate(20, 87)"><g id="1_htdzmg8xcuma-stroke" fill="none" stroke-linecap="round" stroke-linejoin="round" stroke-miterlimit="4" stroke="#ffffff" stroke-width="2"><g><path d="M 23.5 28.748499C 23.5 31.233782 25.514719 33.248501 28 33.248501C 30.485283 33.248501 32.5 31.233782 32.5 28.748501C 32.5 26.263218 30.485283 24.248501 28 24.248501C 25.514719 24.248501 23.5 26.263218 23.5 28.748501ZM 34.75 45.25C 34.281998 40.161999 31.400501 36.25 28 36.25C 24.599499 36.25 21.718 40.161999 21.25 45.25ZM 35.949997 35.949997C 40.347424 31.55805 40.35038 24.4324 35.956604 20.0368C 31.562826 15.641203 24.437176 15.641203 20.0434 20.0368C 15.649625 24.4324 15.65258 31.55805 20.050001 35.950001M 40.197998 40.196503C 46.934212 33.459839 46.933968 22.537951 40.197456 15.801589C 33.460945 9.065227 22.539057 9.065227 15.802545 15.801589C 9.066031 22.537951 9.065788 33.459839 15.802 40.196503"></path></g></g></g><g id="g-root-1_htdzmg8xcuma-stroke" data-item-order="1000000000" data-item-id="1_htdzmg8xcuma" data-item-class="Icon Stroke Indexed InsideFill InsideColorFill" data-item-index="2" data-renderer-id="0" transform="translate(20, 87)"><g id="1_htdzmg8xcuma-stroke" fill="none" stroke-linecap="round" stroke-linejoin="round" stroke-miterlimit="4" stroke="#ffffff" stroke-width="2"><g><path d="M 23.5 28.748499C 23.5 31.233782 25.514719 33.248501 28 33.248501C 30.485283 33.248501 32.5 31.233782 32.5 28.748501C 32.5 26.263218 30.485283 24.248501 28 24.248501C 25.514719 24.248501 23.5 26.263218 23.5 28.748501ZM 34.75 45.25C 34.281998 40.161999 31.400501 36.25 28 36.25C 24.599499 36.25 21.718 40.161999 21.25 45.25ZM 35.949997 35.949997C 40.347424 31.55805 40.35038 24.4324 35.956604 20.0368C 31.562826 15.641203 24.437176 15.641203 20.0434 20.0368C 15.649625 24.4324 15.65258 31.55805 20.050001 35.950001M 40.197998 40.196503C 46.934212 33.459839 46.933968 22.537951 40.197456 15.801589C 33.460945 9.065227 22.539057 9.065227 15.802545 15.801589C 9.066031 22.537951 9.065788 33.459839 15.802 40.196503"></path></g></g></g><g id="g-root-tx__mg2pp48x79xr-stroke" data-item-order="1000000000" data-item-id="tx__mg2pp48x79xr" data-item-class="Label Stroke Indexed ColorStrokeBlack" data-item-index="2" data-renderer-id="0" transform="translate(80, 81)"></g><g id="g-root-tx__mg2pp48x79xr-stroke" data-item-order="1000000000" data-item-id="tx__mg2pp48x79xr" data-item-class="Label Stroke Indexed ColorStrokeBlack" data-item-index="2" data-renderer-id="0" transform="translate(80, 81)"></g><g id="g-root-assi_1uo102g8xctmz-stroke" data-item-order="1000000000" data-item-id="assi_1uo102g8xctmz" data-item-class="Icon Stroke Indexed InsideFill InsideColorFill" data-item-index="3" data-renderer-id="0" transform="translate(20, 159)"><g id="assi_1uo102g8xctmz-stroke" fill="none" stroke-linecap="round" stroke-linejoin="round" stroke-miterlimit="4" stroke="#ffffff" stroke-width="2"><g><path d="M 23.973999 36.547001C 23.973541 38.770821 25.776176 40.573833 28 40.573833C 30.223824 40.573833 32.026459 38.770821 32.026001 36.547001C 32.026459 34.323174 30.223824 32.520168 28 32.520168C 25.776176 32.520168 23.973541 34.323174 23.973999 36.547001M 33.752499 45.175003C 32.618984 43.051125 30.407427 41.724625 28 41.724625C 25.592575 41.724625 23.381018 43.051125 22.247499 45.175003M 35.659 36.547001C 35.658539 38.770821 37.461178 40.573833 39.684998 40.573833C 41.908821 40.573833 43.71146 38.770821 43.710999 36.547001C 43.71146 34.323174 41.908821 32.520168 39.684998 32.520168C 37.461178 32.520168 35.658539 34.323174 35.658997 36.547001M 45.25 44.6035C 43.901672 42.699947 41.674194 41.617294 39.344368 41.733101C 37.014542 41.848907 34.905407 43.147118 33.752499 45.174999M 12.289 36.547001C 12.288541 38.770821 14.091177 40.573833 16.315001 40.573833C 18.538822 40.573833 20.341459 38.770821 20.341 36.547001C 20.341459 34.323174 18.538822 32.520168 16.315001 32.520168C 14.091177 32.520168 12.288541 34.323174 12.289 36.547001M 10.75 44.6035C 12.098326 42.699947 14.325806 41.617294 16.65563 41.733101C 18.985456 41.848907 21.094591 43.147118 22.247499 45.174999M 44.307999 21.0445L 36.508003 28.8445L 32.672501 29.611L 33.438999 25.777L 41.238998 17.976999C 42.083656 17.132591 43.45285 17.132591 44.297501 17.976999L 44.306499 17.986C 44.71294 18.391033 44.941521 18.941139 44.941803 19.514938C 44.942081 20.088737 44.714043 20.639069 44.307999 21.0445ZM 38.060501 14.197001L 34.205498 10.825L 15.799 10.825L 15.799 28.080999M 20.401001 18.877001L 21.934 20.411499L 25.001501 17.344M 20.401001 26.546501L 21.934 28.080999L 25.001501 25.012001M 28.837 19.643499L 31.138 19.643499M 34.205498 25.012001L 37.272999 28.080999M 13.201 34C 15.082143 35.871437 17.699932 36.806358 20.341 36.550003M 24.886 34C 26.767258 35.87125 29.384956 36.806145 32.025997 36.549999M 36.570999 34C 38.452721 35.871494 41.07098 36.806393 43.712502 36.550003"></path></g></g></g><g id="g-root-assi_1uo102g8xctmz-stroke" data-item-order="1000000000" data-item-id="assi_1uo102g8xctmz" data-item-class="Icon Stroke Indexed InsideFill InsideColorFill" data-item-index="3" data-renderer-id="0" transform="translate(20, 159)"><g id="assi_1uo102g8xctmz-stroke" fill="none" stroke-linecap="round" stroke-linejoin="round" stroke-miterlimit="4" stroke="#ffffff" stroke-width="2"><g><path d="M 23.973999 36.547001C 23.973541 38.770821 25.776176 40.573833 28 40.573833C 30.223824 40.573833 32.026459 38.770821 32.026001 36.547001C 32.026459 34.323174 30.223824 32.520168 28 32.520168C 25.776176 32.520168 23.973541 34.323174 23.973999 36.547001M 33.752499 45.175003C 32.618984 43.051125 30.407427 41.724625 28 41.724625C 25.592575 41.724625 23.381018 43.051125 22.247499 45.175003M 35.659 36.547001C 35.658539 38.770821 37.461178 40.573833 39.684998 40.573833C 41.908821 40.573833 43.71146 38.770821 43.710999 36.547001C 43.71146 34.323174 41.908821 32.520168 39.684998 32.520168C 37.461178 32.520168 35.658539 34.323174 35.658997 36.547001M 45.25 44.6035C 43.901672 42.699947 41.674194 41.617294 39.344368 41.733101C 37.014542 41.848907 34.905407 43.147118 33.752499 45.174999M 12.289 36.547001C 12.288541 38.770821 14.091177 40.573833 16.315001 40.573833C 18.538822 40.573833 20.341459 38.770821 20.341 36.547001C 20.341459 34.323174 18.538822 32.520168 16.315001 32.520168C 14.091177 32.520168 12.288541 34.323174 12.289 36.547001M 10.75 44.6035C 12.098326 42.699947 14.325806 41.617294 16.65563 41.733101C 18.985456 41.848907 21.094591 43.147118 22.247499 45.174999M 44.307999 21.0445L 36.508003 28.8445L 32.672501 29.611L 33.438999 25.777L 41.238998 17.976999C 42.083656 17.132591 43.45285 17.132591 44.297501 17.976999L 44.306499 17.986C 44.71294 18.391033 44.941521 18.941139 44.941803 19.514938C 44.942081 20.088737 44.714043 20.639069 44.307999 21.0445ZM 38.060501 14.197001L 34.205498 10.825L 15.799 10.825L 15.799 28.080999M 20.401001 18.877001L 21.934 20.411499L 25.001501 17.344M 20.401001 26.546501L 21.934 28.080999L 25.001501 25.012001M 28.837 19.643499L 31.138 19.643499M 34.205498 25.012001L 37.272999 28.080999M 13.201 34C 15.082143 35.871437 17.699932 36.806358 20.341 36.550003M 24.886 34C 26.767258 35.87125 29.384956 36.806145 32.025997 36.549999M 36.570999 34C 38.452721 35.871494 41.07098 36.806393 43.712502 36.550003"></path></g></g></g><g id="g-root-tx__1q5pllk8x8lxk-stroke" data-item-order="1000000000" data-item-id="tx__1q5pllk8x8lxk" data-item-class="Label Stroke Indexed ColorStrokeBlack" data-item-index="3" data-renderer-id="0" transform="translate(80, 165)"></g><g id="g-root-tx__1q5pllk8x8lxk-stroke" data-item-order="1000000000" data-item-id="tx__1q5pllk8x8lxk" data-item-class="Label Stroke Indexed ColorStrokeBlack" data-item-index="3" data-renderer-id="0" transform="translate(80, 165)"></g></g></g></svg>