<?xml version="1.0" encoding="utf-8" standalone="yes"?>
<!DOCTYPE svg PUBLIC "-//W3C//DTD SVG 1.1//EN" "http://www.w3.org/Graphics/SVG/1.1/DTD/svg11.dtd">
<svg width="614" height="278" viewBox="0 0 614 278" style="fill:none;stroke:none;fill-rule:evenodd;clip-rule:evenodd;stroke-linecap:round;stroke-linejoin:round;stroke-miterlimit:1.5;" version="1.1" xmlns="http://www.w3.org/2000/svg" xmlns:xlink="http://www.w3.org/1999/xlink"><style id="fontImports">@import url("https://fonts.googleapis.com/css2?family=Roboto:wght@400;700&amp;display=block");</style><rect id="" x="0" y="0" width="614" height="278" style="fill: #ffffff;"></rect><g id="items" style="isolation: isolate"><g id="blend" style="mix-blend-mode:normal"><g id="g-root-ro_8z0pzs9ra7ew-fill" data-item-order="999976600" data-item-id="ro_8z0pzs9ra7ew" data-item-class="Shape Stroke Fill" data-item-index="none" data-renderer-id="0" transform="translate(219, 15)"><g id="ro_8z0pzs9ra7ew-fill" stroke="none" fill="#f0f0f0"><g><path d="M 34 10L 142 10C 142 10 166 10 166 34L 166 136C 166 136 166 160 142 160L 34 160C 34 160 10 160 10 136L 10 34C 10 34 10 10 34 10"></path></g></g></g><g id="g-root-ro_8z0pzs9ra7ew-fill" data-item-order="999976600" data-item-id="ro_8z0pzs9ra7ew" data-item-class="Shape Stroke Fill" data-item-index="none" data-renderer-id="0" transform="translate(219, 15)"><g id="ro_8z0pzs9ra7ew-fill" stroke="none" fill="#f0f0f0"><g><path d="M 34 10L 142 10C 142 10 166 10 166 34L 166 136C 166 136 166 160 142 160L 34 160C 34 160 10 160 10 136L 10 34C 10 34 10 10 34 10"></path></g></g></g><g id="g-root-ro_8z0pzs9ra7ew-fill" data-item-order="999976600" data-item-id="ro_8z0pzs9ra7ew" data-item-class="Shape Stroke Fill" data-item-index="none" data-renderer-id="0" transform="translate(219, 15)"><g id="ro_8z0pzs9ra7ew-fill" stroke="none" fill="#f0f0f0"><g><path d="M 34 10L 142 10C 142 10 166 10 166 34L 166 136C 166 136 166 160 142 160L 34 160C 34 160 10 160 10 136L 10 34C 10 34 10 10 34 10"></path></g></g></g><g id="g-root-ro_zkp8d49qz08z-fill" data-item-order="999990928" data-item-id="ro_zkp8d49qz08z" data-item-class="Shape Stroke Fill" data-item-index="none" data-renderer-id="0" transform="translate(3, 3)"><g id="ro_zkp8d49qz08z-fill" stroke="none" fill="#e6efff"><g><path d="M 22 10L 166 10C 166 10 178 10 178 22L 178 52C 178 52 178 64 166 64L 22 64C 22 64 10 64 10 52L 10 22C 10 22 10 10 22 10"></path></g></g></g><g id="g-root-ro_zkp8d49qz08z-fill" data-item-order="999990928" data-item-id="ro_zkp8d49qz08z" data-item-class="Shape Stroke Fill" data-item-index="none" data-renderer-id="0" transform="translate(3, 3)"><g id="ro_zkp8d49qz08z-fill" stroke="none" fill="#e6efff"><g><path d="M 22 10L 166 10C 166 10 178 10 178 22L 178 52C 178 52 178 64 166 64L 22 64C 22 64 10 64 10 52L 10 22C 10 22 10 10 22 10"></path></g></g></g><g id="g-root-ro_zkp8d49qz08z-fill" data-item-order="999990928" data-item-id="ro_zkp8d49qz08z" data-item-class="Shape Stroke Fill" data-item-index="none" data-renderer-id="0" transform="translate(3, 3)"><g id="ro_zkp8d49qz08z-fill" stroke="none" fill="#e6efff"><g><path d="M 22 10L 166 10C 166 10 178 10 178 22L 178 52C 178 52 178 64 166 64L 22 64C 22 64 10 64 10 52L 10 22C 10 22 10 10 22 10"></path></g></g></g><g id="g-root-ro_1hiudnc9rfv2b-fill" data-item-order="999990928" data-item-id="ro_1hiudnc9rfv2b" data-item-class="Shape Stroke Fill" data-item-index="none" data-renderer-id="0" transform="translate(213, 201)"><g id="ro_1hiudnc9rfv2b-fill" stroke="none" fill="#e6f9ff"><g><path d="M 22 10L 166 10C 166 10 178 10 178 22L 178 52C 178 52 178 64 166 64L 22 64C 22 64 10 64 10 52L 10 22C 10 22 10 10 22 10"></path></g></g></g><g id="g-root-ro_1hiudnc9rfv2b-fill" data-item-order="999990928" data-item-id="ro_1hiudnc9rfv2b" data-item-class="Shape Stroke Fill" data-item-index="none" data-renderer-id="0" transform="translate(213, 201)"><g id="ro_1hiudnc9rfv2b-fill" stroke="none" fill="#e6f9ff"><g><path d="M 22 10L 166 10C 166 10 178 10 178 22L 178 52C 178 52 178 64 166 64L 22 64C 22 64 10 64 10 52L 10 22C 10 22 10 10 22 10"></path></g></g></g><g id="g-root-ro_1hiudnc9rfv2b-fill" data-item-order="999990928" data-item-id="ro_1hiudnc9rfv2b" data-item-class="Shape Stroke Fill" data-item-index="none" data-renderer-id="0" transform="translate(213, 201)"><g id="ro_1hiudnc9rfv2b-fill" stroke="none" fill="#e6f9ff"><g><path d="M 22 10L 166 10C 166 10 178 10 178 22L 178 52C 178 52 178 64 166 64L 22 64C 22 64 10 64 10 52L 10 22C 10 22 10 10 22 10"></path></g></g></g><g id="g-root-ro_90weqg9regay-fill" data-item-order="999990928" data-item-id="ro_90weqg9regay" data-item-class="Shape Stroke Fill" data-item-index="none" data-renderer-id="0" transform="translate(423, 123)"><g id="ro_90weqg9regay-fill" stroke="none" fill="#fef2e6"><g><path d="M 22 10L 166 10C 166 10 178 10 178 22L 178 52C 178 52 178 64 166 64L 22 64C 22 64 10 64 10 52L 10 22C 10 22 10 10 22 10"></path></g></g></g><g id="g-root-ro_90weqg9regay-fill" data-item-order="999990928" data-item-id="ro_90weqg9regay" data-item-class="Shape Stroke Fill" data-item-index="none" data-renderer-id="0" transform="translate(423, 123)"><g id="ro_90weqg9regay-fill" stroke="none" fill="#fef2e6"><g><path d="M 22 10L 166 10C 166 10 178 10 178 22L 178 52C 178 52 178 64 166 64L 22 64C 22 64 10 64 10 52L 10 22C 10 22 10 10 22 10"></path></g></g></g><g id="g-root-ro_90weqg9regay-fill" data-item-order="999990928" data-item-id="ro_90weqg9regay" data-item-class="Shape Stroke Fill" data-item-index="none" data-renderer-id="0" transform="translate(423, 123)"><g id="ro_90weqg9regay-fill" stroke="none" fill="#fef2e6"><g><path d="M 22 10L 166 10C 166 10 178 10 178 22L 178 52C 178 52 178 64 166 64L 22 64C 22 64 10 64 10 52L 10 22C 10 22 10 10 22 10"></path></g></g></g><g id="g-root-ro_1hbz2jc9qxjpm-fill" data-item-order="999992224" data-item-id="ro_1hbz2jc9qxjpm" data-item-class="Shape Stroke Fill" data-item-index="none" data-renderer-id="0" transform="translate(423, 3)"><g id="ro_1hbz2jc9qxjpm-fill" stroke="none" fill="#e9fbf3"><g><path d="M 22 10L 142 10C 142 10 154 10 154 22L 154 52C 154 52 154 64 142 64L 22 64C 22 64 10 64 10 52L 10 22C 10 22 10 10 22 10"></path></g></g></g><g id="g-root-ro_1hbz2jc9qxjpm-fill" data-item-order="999992224" data-item-id="ro_1hbz2jc9qxjpm" data-item-class="Shape Stroke Fill" data-item-index="none" data-renderer-id="0" transform="translate(423, 3)"><g id="ro_1hbz2jc9qxjpm-fill" stroke="none" fill="#e9fbf3"><g><path d="M 22 10L 142 10C 142 10 154 10 154 22L 154 52C 154 52 154 64 142 64L 22 64C 22 64 10 64 10 52L 10 22C 10 22 10 10 22 10"></path></g></g></g><g id="g-root-ro_1hbz2jc9qxjpm-fill" data-item-order="999992224" data-item-id="ro_1hbz2jc9qxjpm" data-item-class="Shape Stroke Fill" data-item-index="none" data-renderer-id="0" transform="translate(423, 3)"><g id="ro_1hbz2jc9qxjpm-fill" stroke="none" fill="#e9fbf3"><g><path d="M 22 10L 142 10C 142 10 154 10 154 22L 154 52C 154 52 154 64 142 64L 22 64C 22 64 10 64 10 52L 10 22C 10 22 10 10 22 10"></path></g></g></g><g id="g-root-ro_1480fiw9r1tzb-fill" data-item-order="999992224" data-item-id="ro_1480fiw9r1tzb" data-item-class="Shape Stroke Fill" data-item-index="none" data-renderer-id="0" transform="translate(27, 123)"><g id="ro_1480fiw9r1tzb-fill" stroke="none" fill="#f7e6fe"><g><path d="M 22 10L 142 10C 142 10 154 10 154 22L 154 52C 154 52 154 64 142 64L 22 64C 22 64 10 64 10 52L 10 22C 10 22 10 10 22 10"></path></g></g></g><g id="g-root-ro_1480fiw9r1tzb-fill" data-item-order="999992224" data-item-id="ro_1480fiw9r1tzb" data-item-class="Shape Stroke Fill" data-item-index="none" data-renderer-id="0" transform="translate(27, 123)"><g id="ro_1480fiw9r1tzb-fill" stroke="none" fill="#f7e6fe"><g><path d="M 22 10L 142 10C 142 10 154 10 154 22L 154 52C 154 52 154 64 142 64L 22 64C 22 64 10 64 10 52L 10 22C 10 22 10 10 22 10"></path></g></g></g><g id="g-root-ro_1480fiw9r1tzb-fill" data-item-order="999992224" data-item-id="ro_1480fiw9r1tzb" data-item-class="Shape Stroke Fill" data-item-index="none" data-renderer-id="0" transform="translate(27, 123)"><g id="ro_1480fiw9r1tzb-fill" stroke="none" fill="#f7e6fe"><g><path d="M 22 10L 142 10C 142 10 154 10 154 22L 154 52C 154 52 154 64 142 64L 22 64C 22 64 10 64 10 52L 10 22C 10 22 10 10 22 10"></path></g></g></g><g id="g-root-cu_m7daqg9r37r4-fill" data-item-order="1000000000" data-item-id="cu_m7daqg9r37r4" data-item-class="Curve Stroke ColorStrokeGray" data-item-index="none" data-renderer-id="0" transform="translate(171, 30)"></g><g id="g-root-cu_m7daqg9r37r4-fill" data-item-order="1000000000" data-item-id="cu_m7daqg9r37r4" data-item-class="Curve Stroke ColorStrokeGray" data-item-index="none" data-renderer-id="0" transform="translate(171, 30)"></g><g id="g-root-cu_m7daqg9r37r4-fill" data-item-order="1000000000" data-item-id="cu_m7daqg9r37r4" data-item-class="Curve Stroke ColorStrokeGray" data-item-index="none" data-renderer-id="0" transform="translate(171, 30)"></g><g id="g-root-cu_m7daqg9r37r4-fill" data-item-order="1000000000" data-item-id="cu_m7daqg9r37r4" data-item-class="Curve Stroke ColorStrokeGray" data-item-index="none" data-renderer-id="0" transform="translate(171, 30)"></g><g id="g-root-cu_m7daqg9r37r4-fill" data-item-order="1000000000" data-item-id="cu_m7daqg9r37r4" data-item-class="Curve Stroke ColorStrokeGray" data-item-index="none" data-renderer-id="0" transform="translate(171, 30)"></g><g id="g-root-cu_m7daqg9r37r4-fill" data-item-order="1000000000" data-item-id="cu_m7daqg9r37r4" data-item-class="Curve Stroke ColorStrokeGray" data-item-index="none" data-renderer-id="0" transform="translate(171, 30)"></g><g id="g-root-cu_1um6t209r37k3-fill" data-item-order="1000000000" data-item-id="cu_1um6t209r37k3" data-item-class="Curve Stroke ColorStrokeGray" data-item-index="none" data-renderer-id="0" transform="translate(375, 30)"></g><g id="g-root-cu_1um6t209r37k3-fill" data-item-order="1000000000" data-item-id="cu_1um6t209r37k3" data-item-class="Curve Stroke ColorStrokeGray" data-item-index="none" data-renderer-id="0" transform="translate(375, 30)"></g><g id="g-root-cu_1um6t209r37k3-fill" data-item-order="1000000000" data-item-id="cu_1um6t209r37k3" data-item-class="Curve Stroke ColorStrokeGray" data-item-index="none" data-renderer-id="0" transform="translate(375, 30)"></g><g id="g-root-cu_1um6t209r37k3-fill" data-item-order="1000000000" data-item-id="cu_1um6t209r37k3" data-item-class="Curve Stroke ColorStrokeGray" data-item-index="none" data-renderer-id="0" transform="translate(375, 30)"></g><g id="g-root-cu_1um6t209r37k3-fill" data-item-order="1000000000" data-item-id="cu_1um6t209r37k3" data-item-class="Curve Stroke ColorStrokeGray" data-item-index="none" data-renderer-id="0" transform="translate(375, 30)"></g><g id="g-root-cu_1um6t209r37k3-fill" data-item-order="1000000000" data-item-id="cu_1um6t209r37k3" data-item-class="Curve Stroke ColorStrokeGray" data-item-index="none" data-renderer-id="0" transform="translate(375, 30)"></g><g id="g-root-cu_1um6t209r37k3-fill" data-item-order="1000000000" data-item-id="cu_1um6t209r37k3" data-item-class="Curve Stroke ColorStrokeGray" data-item-index="none" data-renderer-id="0" transform="translate(375, 30)"></g><g id="g-root-tx__m7zli09qxlhk-fill" data-item-order="1000000000" data-item-id="tx__m7zli09qxlhk" data-item-class="Label Stroke" data-item-index="none" data-renderer-id="0" transform="translate(471, 18)"><g id="tx__m7zli09qxlhk-fill" stroke="none" fill="#3bc482"><g><text style="font: 20px Roboto, sans-serif; white-space: pre;" font-weight="20px" font-size="Roboto," font-family="sans-serif"><tspan x="12" y="34" dominant-baseline="ideographic">命令模式</tspan></text></g></g></g><g id="g-root-tx__m7zli09qxlhk-fill" data-item-order="1000000000" data-item-id="tx__m7zli09qxlhk" data-item-class="Label Stroke" data-item-index="none" data-renderer-id="0" transform="translate(471, 18)"><g id="tx__m7zli09qxlhk-fill" stroke="none" fill="#3bc482"><g><text style="font: 20px Roboto, sans-serif; white-space: pre;" font-weight="20px" font-size="Roboto," font-family="sans-serif"><tspan x="12" y="34" dominant-baseline="ideographic">命令模式</tspan></text></g></g></g><g id="g-root-tx__m7zli09qxlhk-fill" data-item-order="1000000000" data-item-id="tx__m7zli09qxlhk" data-item-class="Label Stroke" data-item-index="none" data-renderer-id="0" transform="translate(471, 18)"><g id="tx__m7zli09qxlhk-fill" stroke="none" fill="#3bc482"><g><text style="font: 20px Roboto, sans-serif; white-space: pre;" font-weight="20px" font-size="Roboto," font-family="sans-serif"><tspan x="12" y="34" dominant-baseline="ideographic">命令模式</tspan></text></g></g></g><g id="g-root-1_zlb9nc9ra7ev-fill" data-item-order="1000000000" data-item-id="1_zlb9nc9ra7ev" data-item-class="Icon Stroke" data-item-index="none" data-renderer-id="0" transform="translate(273, 51)"></g><g id="g-root-1_zlb9nc9ra7ev-fill" data-item-order="1000000000" data-item-id="1_zlb9nc9ra7ev" data-item-class="Icon Stroke" data-item-index="none" data-renderer-id="0" transform="translate(273, 51)"></g><g id="g-root-1_zlb9nc9ra7ev-fill" data-item-order="1000000000" data-item-id="1_zlb9nc9ra7ev" data-item-class="Icon Stroke" data-item-index="none" data-renderer-id="0" transform="translate(273, 51)"></g><g id="g-root-cu_m7daqg9r37r4-fill" data-item-order="1000000000" data-item-id="cu_m7daqg9r37r4" data-item-class="Curve Stroke ColorStrokeGray" data-item-index="none" data-renderer-id="0" transform="translate(171, 30)"></g><g id="g-root-emai_4hc23c9qxkox-fill" data-item-order="1000000000" data-item-id="emai_4hc23c9qxkox" data-item-class="Icon Stroke" data-item-index="none" data-renderer-id="0" transform="translate(435, 15)"></g><g id="g-root-emai_4hc23c9qxkox-fill" data-item-order="1000000000" data-item-id="emai_4hc23c9qxkox" data-item-class="Icon Stroke" data-item-index="none" data-renderer-id="0" transform="translate(435, 15)"></g><g id="g-root-cu_13zw9eg9r37k9-fill" data-item-order="1000000000" data-item-id="cu_13zw9eg9r37k9" data-item-class="Curve Stroke ColorStrokeGray" data-item-index="none" data-renderer-id="0" transform="translate(171, 115)"></g><g id="g-root-cu_13zw9eg9r37k9-fill" data-item-order="1000000000" data-item-id="cu_13zw9eg9r37k9" data-item-class="Curve Stroke ColorStrokeGray" data-item-index="none" data-renderer-id="0" transform="translate(171, 115)"></g><g id="g-root-cu_13zw9eg9r37k9-fill" data-item-order="1000000000" data-item-id="cu_13zw9eg9r37k9" data-item-class="Curve Stroke ColorStrokeGray" data-item-index="none" data-renderer-id="0" transform="translate(171, 115)"></g><g id="g-root-cu_13zw9eg9r37k9-fill" data-item-order="1000000000" data-item-id="cu_13zw9eg9r37k9" data-item-class="Curve Stroke ColorStrokeGray" data-item-index="none" data-renderer-id="0" transform="translate(171, 115)"></g><g id="g-root-cu_13zw9eg9r37k9-fill" data-item-order="1000000000" data-item-id="cu_13zw9eg9r37k9" data-item-class="Curve Stroke ColorStrokeGray" data-item-index="none" data-renderer-id="0" transform="translate(171, 115)"></g><g id="g-root-cu_13zw9eg9r37k9-fill" data-item-order="1000000000" data-item-id="cu_13zw9eg9r37k9" data-item-class="Curve Stroke ColorStrokeGray" data-item-index="none" data-renderer-id="0" transform="translate(171, 115)"></g><g id="g-root-cu_13zw9eg9r37k9-fill" data-item-order="1000000000" data-item-id="cu_13zw9eg9r37k9" data-item-class="Curve Stroke ColorStrokeGray" data-item-index="none" data-renderer-id="0" transform="translate(171, 115)"></g><g id="g-root-tx__4hbsm09ra96u-fill" data-item-order="1000000000" data-item-id="tx__4hbsm09ra96u" data-item-class="Label Stroke" data-item-index="none" data-renderer-id="0" transform="translate(255, 105)"><g id="tx__4hbsm09ra96u-fill" stroke="none" fill="#484848"><g><text style="font: 20px Roboto, sans-serif; white-space: pre;" font-weight="20px" font-size="Roboto," font-family="sans-serif"><tspan x="12" y="34" dominant-baseline="ideographic">設計模式</tspan></text></g></g></g><g id="g-root-tx__4hbsm09ra96u-fill" data-item-order="1000000000" data-item-id="tx__4hbsm09ra96u" data-item-class="Label Stroke" data-item-index="none" data-renderer-id="0" transform="translate(255, 105)"><g id="tx__4hbsm09ra96u-fill" stroke="none" fill="#484848"><g><text style="font: 20px Roboto, sans-serif; white-space: pre;" font-weight="20px" font-size="Roboto," font-family="sans-serif"><tspan x="12" y="34" dominant-baseline="ideographic">設計模式</tspan></text></g></g></g><g id="g-root-tx__4hbsm09ra96u-fill" data-item-order="1000000000" data-item-id="tx__4hbsm09ra96u" data-item-class="Label Stroke" data-item-index="none" data-renderer-id="0" transform="translate(255, 105)"><g id="tx__4hbsm09ra96u-fill" stroke="none" fill="#484848"><g><text style="font: 20px Roboto, sans-serif; white-space: pre;" font-weight="20px" font-size="Roboto," font-family="sans-serif"><tspan x="12" y="34" dominant-baseline="ideographic">設計模式</tspan></text></g></g></g><g id="g-root-cu_18fpriw9r36ry-fill" data-item-order="1000000000" data-item-id="cu_18fpriw9r36ry" data-item-class="Curve Stroke ColorStrokeGray" data-item-index="none" data-renderer-id="0" transform="translate(375, 115)"></g><g id="g-root-cu_18fpriw9r36ry-fill" data-item-order="1000000000" data-item-id="cu_18fpriw9r36ry" data-item-class="Curve Stroke ColorStrokeGray" data-item-index="none" data-renderer-id="0" transform="translate(375, 115)"></g><g id="g-root-cu_18fpriw9r36ry-fill" data-item-order="1000000000" data-item-id="cu_18fpriw9r36ry" data-item-class="Curve Stroke ColorStrokeGray" data-item-index="none" data-renderer-id="0" transform="translate(375, 115)"></g><g id="g-root-cu_18fpriw9r36ry-fill" data-item-order="1000000000" data-item-id="cu_18fpriw9r36ry" data-item-class="Curve Stroke ColorStrokeGray" data-item-index="none" data-renderer-id="0" transform="translate(375, 115)"></g><g id="g-root-cu_18fpriw9r36ry-fill" data-item-order="1000000000" data-item-id="cu_18fpriw9r36ry" data-item-class="Curve Stroke ColorStrokeGray" data-item-index="none" data-renderer-id="0" transform="translate(375, 115)"></g><g id="g-root-cu_18fpriw9r36ry-fill" data-item-order="1000000000" data-item-id="cu_18fpriw9r36ry" data-item-class="Curve Stroke ColorStrokeGray" data-item-index="none" data-renderer-id="0" transform="translate(375, 115)"></g><g id="g-root-cu_18fpriw9r36ry-fill" data-item-order="1000000000" data-item-id="cu_18fpriw9r36ry" data-item-class="Curve Stroke ColorStrokeGray" data-item-index="none" data-renderer-id="0" transform="translate(375, 115)"></g><g id="g-root-emai_4hc23c9qxkox-fill" data-item-order="1000000000" data-item-id="emai_4hc23c9qxkox" data-item-class="Icon Stroke" data-item-index="none" data-renderer-id="0" transform="translate(435, 15)"></g><g id="g-root-requ_1cw5qqg9qyyo2-fill" data-item-order="1000000000" data-item-id="requ_1cw5qqg9qyyo2" data-item-class="Icon Stroke" data-item-index="none" data-renderer-id="0" transform="translate(129, 15)"></g><g id="g-root-tx__90fbs9r1te5-fill" data-item-order="1000000000" data-item-id="tx__90fbs9r1te5" data-item-class="Label Stroke" data-item-index="none" data-renderer-id="0" transform="translate(39, 138)"><g id="tx__90fbs9r1te5-fill" stroke="none" fill="#b65edf"><g><text style="font: 20px Roboto, sans-serif; white-space: pre;" font-weight="20px" font-size="Roboto," font-family="sans-serif"><tspan x="12" y="34" dominant-baseline="ideographic">策略模式</tspan></text></g></g></g><g id="g-root-tx__90fbs9r1te5-fill" data-item-order="1000000000" data-item-id="tx__90fbs9r1te5" data-item-class="Label Stroke" data-item-index="none" data-renderer-id="0" transform="translate(39, 138)"><g id="tx__90fbs9r1te5-fill" stroke="none" fill="#b65edf"><g><text style="font: 20px Roboto, sans-serif; white-space: pre;" font-weight="20px" font-size="Roboto," font-family="sans-serif"><tspan x="12" y="34" dominant-baseline="ideographic">策略模式</tspan></text></g></g></g><g id="g-root-tx__90fbs9r1te5-fill" data-item-order="1000000000" data-item-id="tx__90fbs9r1te5" data-item-class="Label Stroke" data-item-index="none" data-renderer-id="0" transform="translate(39, 138)"><g id="tx__90fbs9r1te5-fill" stroke="none" fill="#b65edf"><g><text style="font: 20px Roboto, sans-serif; white-space: pre;" font-weight="20px" font-size="Roboto," font-family="sans-serif"><tspan x="12" y="34" dominant-baseline="ideographic">策略模式</tspan></text></g></g></g><g id="g-root-puzz_1hjgxw89r1see-fill" data-item-order="1000000000" data-item-id="puzz_1hjgxw89r1see" data-item-class="Icon Stroke" data-item-index="none" data-renderer-id="0" transform="translate(129, 135)"></g><g id="g-root-puzz_1hjgxw89r1see-fill" data-item-order="1000000000" data-item-id="puzz_1hjgxw89r1see" data-item-class="Icon Stroke" data-item-index="none" data-renderer-id="0" transform="translate(129, 135)"></g><g id="g-root-puzz_1hjgxw89r1see-fill" data-item-order="1000000000" data-item-id="puzz_1hjgxw89r1see" data-item-class="Icon Stroke" data-item-index="none" data-renderer-id="0" transform="translate(129, 135)"></g><g id="g-root-requ_1cw5qqg9qyyo2-fill" data-item-order="1000000000" data-item-id="requ_1cw5qqg9qyyo2" data-item-class="Icon Stroke" data-item-index="none" data-renderer-id="0" transform="translate(129, 15)"></g><g id="g-root-bino_zn6ye09regax-fill" data-item-order="1000000000" data-item-id="bino_zn6ye09regax" data-item-class="Icon Stroke" data-item-index="none" data-renderer-id="0" transform="translate(435, 135)"></g><g id="g-root-bino_zn6ye09regax-fill" data-item-order="1000000000" data-item-id="bino_zn6ye09regax" data-item-class="Icon Stroke" data-item-index="none" data-renderer-id="0" transform="translate(435, 135)"></g><g id="g-root-bino_zn6ye09regax-fill" data-item-order="1000000000" data-item-id="bino_zn6ye09regax" data-item-class="Icon Stroke" data-item-index="none" data-renderer-id="0" transform="translate(435, 135)"></g><g id="g-root-tx__1d1rxco9rftoh-fill" data-item-order="1000000000" data-item-id="tx__1d1rxco9rftoh" data-item-class="Label Stroke" data-item-index="none" data-renderer-id="0" transform="translate(261, 215.9998779296875)"><g id="tx__1d1rxco9rftoh-fill" stroke="none" fill="#17b0e3"><g><text style="font: 20px Roboto, sans-serif; white-space: pre;" font-weight="20px" font-size="Roboto," font-family="sans-serif"><tspan x="14" y="34" dominant-baseline="ideographic">中介者模式</tspan></text></g></g></g><g id="g-root-tx__1ltnzx49reh34-fill" data-item-order="1000000000" data-item-id="tx__1ltnzx49reh34" data-item-class="Label Stroke" data-item-index="none" data-renderer-id="0" transform="translate(471, 138)"><g id="tx__1ltnzx49reh34-fill" stroke="none" fill="#dd8433"><g><text style="font: 20px Roboto, sans-serif; white-space: pre;" font-weight="20px" font-size="Roboto," font-family="sans-serif"><tspan x="14" y="34" dominant-baseline="ideographic">觀察者模式</tspan></text></g></g></g><g id="g-root-tx__1ltnzx49reh34-fill" data-item-order="1000000000" data-item-id="tx__1ltnzx49reh34" data-item-class="Label Stroke" data-item-index="none" data-renderer-id="0" transform="translate(471, 138)"><g id="tx__1ltnzx49reh34-fill" stroke="none" fill="#dd8433"><g><text style="font: 20px Roboto, sans-serif; white-space: pre;" font-weight="20px" font-size="Roboto," font-family="sans-serif"><tspan x="14" y="34" dominant-baseline="ideographic">觀察者模式</tspan></text></g></g></g><g id="g-root-tx__1ltnzx49reh34-fill" data-item-order="1000000000" data-item-id="tx__1ltnzx49reh34" data-item-class="Label Stroke" data-item-index="none" data-renderer-id="0" transform="translate(471, 138)"><g id="tx__1ltnzx49reh34-fill" stroke="none" fill="#dd8433"><g><text style="font: 20px Roboto, sans-serif; white-space: pre;" font-weight="20px" font-size="Roboto," font-family="sans-serif"><tspan x="14" y="34" dominant-baseline="ideographic">觀察者模式</tspan></text></g></g></g><g id="g-root-cu_zk2ra09r38ck-fill" data-item-order="1000000000" data-item-id="cu_zk2ra09r38ck" data-item-class="Curve Stroke ColorStrokeGray" data-item-index="none" data-renderer-id="0" transform="translate(297, 165)"></g><g id="g-root-cu_zk2ra09r38ck-fill" data-item-order="1000000000" data-item-id="cu_zk2ra09r38ck" data-item-class="Curve Stroke ColorStrokeGray" data-item-index="none" data-renderer-id="0" transform="translate(297, 165)"></g><g id="g-root-cu_zk2ra09r38ck-fill" data-item-order="1000000000" data-item-id="cu_zk2ra09r38ck" data-item-class="Curve Stroke ColorStrokeGray" data-item-index="none" data-renderer-id="0" transform="translate(297, 165)"></g><g id="g-root-cu_zk2ra09r38ck-fill" data-item-order="1000000000" data-item-id="cu_zk2ra09r38ck" data-item-class="Curve Stroke ColorStrokeGray" data-item-index="none" data-renderer-id="0" transform="translate(297, 165)"></g><g id="g-root-cu_zk2ra09r38ck-fill" data-item-order="1000000000" data-item-id="cu_zk2ra09r38ck" data-item-class="Curve Stroke ColorStrokeGray" data-item-index="none" data-renderer-id="0" transform="translate(297, 165)"></g><g id="g-root-cu_zk2ra09r38ck-fill" data-item-order="1000000000" data-item-id="cu_zk2ra09r38ck" data-item-class="Curve Stroke ColorStrokeGray" data-item-index="none" data-renderer-id="0" transform="translate(297, 165)"></g><g id="g-root-cu_zk2ra09r38ck-fill" data-item-order="1000000000" data-item-id="cu_zk2ra09r38ck" data-item-class="Curve Stroke ColorStrokeGray" data-item-index="none" data-renderer-id="0" transform="translate(297, 165)"></g><g id="g-root-requ_1cw5qqg9qyyo2-fill" data-item-order="1000000000" data-item-id="requ_1cw5qqg9qyyo2" data-item-class="Icon Stroke" data-item-index="none" data-renderer-id="0" transform="translate(129, 15)"></g><g id="g-root-tx__4hc8ew9qyyv5-fill" data-item-order="1000000000" data-item-id="tx__4hc8ew9qyyv5" data-item-class="Label Stroke" data-item-index="none" data-renderer-id="0" transform="translate(15, 18)"><g id="tx__4hc8ew9qyyv5-fill" stroke="none" fill="#4682e3"><g><text style="font: 20px Roboto, sans-serif; white-space: pre;" font-weight="20px" font-size="Roboto," font-family="sans-serif"><tspan x="14" y="34" dominant-baseline="ideographic">責任鏈模式</tspan></text></g></g></g><g id="g-root-tx__4hc8ew9qyyv5-fill" data-item-order="1000000000" data-item-id="tx__4hc8ew9qyyv5" data-item-class="Label Stroke" data-item-index="none" data-renderer-id="0" transform="translate(15, 18)"><g id="tx__4hc8ew9qyyv5-fill" stroke="none" fill="#4682e3"><g><text style="font: 20px Roboto, sans-serif; white-space: pre;" font-weight="20px" font-size="Roboto," font-family="sans-serif"><tspan x="14" y="34" dominant-baseline="ideographic">責任鏈模式</tspan></text></g></g></g><g id="g-root-shar_940vbs9rfv9e-fill" data-item-order="1000000000" data-item-id="shar_940vbs9rfv9e" data-item-class="Icon Stroke" data-item-index="none" data-renderer-id="0" transform="translate(225, 213)"></g><g id="g-root-shar_940vbs9rfv9e-fill" data-item-order="1000000000" data-item-id="shar_940vbs9rfv9e" data-item-class="Icon Stroke" data-item-index="none" data-renderer-id="0" transform="translate(225, 213)"></g><g id="g-root-shar_940vbs9rfv9e-fill" data-item-order="1000000000" data-item-id="shar_940vbs9rfv9e" data-item-class="Icon Stroke" data-item-index="none" data-renderer-id="0" transform="translate(225, 213)"></g><g id="g-root-tx__1d1rxco9rftoh-fill" data-item-order="1000000000" data-item-id="tx__1d1rxco9rftoh" data-item-class="Label Stroke" data-item-index="none" data-renderer-id="0" transform="translate(261, 215.9998779296875)"><g id="tx__1d1rxco9rftoh-fill" stroke="none" fill="#17b0e3"><g><text style="font: 20px Roboto, sans-serif; white-space: pre;" font-weight="20px" font-size="Roboto," font-family="sans-serif"><tspan x="14" y="34" dominant-baseline="ideographic">中介者模式</tspan></text></g></g></g><g id="g-root-tx__1d1rxco9rftoh-fill" data-item-order="1000000000" data-item-id="tx__1d1rxco9rftoh" data-item-class="Label Stroke" data-item-index="none" data-renderer-id="0" transform="translate(261, 215.9998779296875)"><g id="tx__1d1rxco9rftoh-fill" stroke="none" fill="#17b0e3"><g><text style="font: 20px Roboto, sans-serif; white-space: pre;" font-weight="20px" font-size="Roboto," font-family="sans-serif"><tspan x="14" y="34" dominant-baseline="ideographic">中介者模式</tspan></text></g></g></g><g id="g-root-tx__4hc8ew9qyyv5-fill" data-item-order="1000000000" data-item-id="tx__4hc8ew9qyyv5" data-item-class="Label Stroke" data-item-index="none" data-renderer-id="0" transform="translate(15, 18)"><g id="tx__4hc8ew9qyyv5-fill" stroke="none" fill="#4682e3"><g><text style="font: 20px Roboto, sans-serif; white-space: pre;" font-weight="20px" font-size="Roboto," font-family="sans-serif"><tspan x="14" y="34" dominant-baseline="ideographic">責任鏈模式</tspan></text></g></g></g><g id="g-root-ro_8z0pzs9ra7ew-stroke" data-item-order="999976600" data-item-id="ro_8z0pzs9ra7ew" data-item-class="Shape Stroke Fill" data-item-index="none" data-renderer-id="0" transform="translate(219, 15)"><g id="ro_8z0pzs9ra7ew-stroke" fill="none" stroke-linecap="round" stroke-linejoin="round" stroke-miterlimit="4" stroke="#484848" stroke-width="2"><g><path d="M 34 10L 142 10C 142 10 166 10 166 34L 166 136C 166 136 166 160 142 160L 34 160C 34 160 10 160 10 136L 10 34C 10 34 10 10 34 10"></path></g></g></g><g id="g-root-ro_8z0pzs9ra7ew-stroke" data-item-order="999976600" data-item-id="ro_8z0pzs9ra7ew" data-item-class="Shape Stroke Fill" data-item-index="none" data-renderer-id="0" transform="translate(219, 15)"><g id="ro_8z0pzs9ra7ew-stroke" fill="none" stroke-linecap="round" stroke-linejoin="round" stroke-miterlimit="4" stroke="#484848" stroke-width="2"><g><path d="M 34 10L 142 10C 142 10 166 10 166 34L 166 136C 166 136 166 160 142 160L 34 160C 34 160 10 160 10 136L 10 34C 10 34 10 10 34 10"></path></g></g></g><g id="g-root-ro_8z0pzs9ra7ew-stroke" data-item-order="999976600" data-item-id="ro_8z0pzs9ra7ew" data-item-class="Shape Stroke Fill" data-item-index="none" data-renderer-id="0" transform="translate(219, 15)"><g id="ro_8z0pzs9ra7ew-stroke" fill="none" stroke-linecap="round" stroke-linejoin="round" stroke-miterlimit="4" stroke="#484848" stroke-width="2"><g><path d="M 34 10L 142 10C 142 10 166 10 166 34L 166 136C 166 136 166 160 142 160L 34 160C 34 160 10 160 10 136L 10 34C 10 34 10 10 34 10"></path></g></g></g><g id="g-root-ro_zkp8d49qz08z-stroke" data-item-order="999990928" data-item-id="ro_zkp8d49qz08z" data-item-class="Shape Stroke Fill" data-item-index="none" data-renderer-id="0" transform="translate(3, 3)"><g id="ro_zkp8d49qz08z-stroke" fill="none" stroke-linecap="round" stroke-linejoin="round" stroke-miterlimit="4" stroke="#4682e3" stroke-width="2"><g><path d="M 22 10L 166 10C 166 10 178 10 178 22L 178 52C 178 52 178 64 166 64L 22 64C 22 64 10 64 10 52L 10 22C 10 22 10 10 22 10"></path></g></g></g><g id="g-root-ro_zkp8d49qz08z-stroke" data-item-order="999990928" data-item-id="ro_zkp8d49qz08z" data-item-class="Shape Stroke Fill" data-item-index="none" data-renderer-id="0" transform="translate(3, 3)"><g id="ro_zkp8d49qz08z-stroke" fill="none" stroke-linecap="round" stroke-linejoin="round" stroke-miterlimit="4" stroke="#4682e3" stroke-width="2"><g><path d="M 22 10L 166 10C 166 10 178 10 178 22L 178 52C 178 52 178 64 166 64L 22 64C 22 64 10 64 10 52L 10 22C 10 22 10 10 22 10"></path></g></g></g><g id="g-root-ro_zkp8d49qz08z-stroke" data-item-order="999990928" data-item-id="ro_zkp8d49qz08z" data-item-class="Shape Stroke Fill" data-item-index="none" data-renderer-id="0" transform="translate(3, 3)"><g id="ro_zkp8d49qz08z-stroke" fill="none" stroke-linecap="round" stroke-linejoin="round" stroke-miterlimit="4" stroke="#4682e3" stroke-width="2"><g><path d="M 22 10L 166 10C 166 10 178 10 178 22L 178 52C 178 52 178 64 166 64L 22 64C 22 64 10 64 10 52L 10 22C 10 22 10 10 22 10"></path></g></g></g><g id="g-root-ro_1hiudnc9rfv2b-stroke" data-item-order="999990928" data-item-id="ro_1hiudnc9rfv2b" data-item-class="Shape Stroke Fill" data-item-index="none" data-renderer-id="0" transform="translate(213, 201)"><g id="ro_1hiudnc9rfv2b-stroke" fill="none" stroke-linecap="round" stroke-linejoin="round" stroke-miterlimit="4" stroke="#17b0e3" stroke-width="2"><g><path d="M 22 10L 166 10C 166 10 178 10 178 22L 178 52C 178 52 178 64 166 64L 22 64C 22 64 10 64 10 52L 10 22C 10 22 10 10 22 10"></path></g></g></g><g id="g-root-ro_1hiudnc9rfv2b-stroke" data-item-order="999990928" data-item-id="ro_1hiudnc9rfv2b" data-item-class="Shape Stroke Fill" data-item-index="none" data-renderer-id="0" transform="translate(213, 201)"><g id="ro_1hiudnc9rfv2b-stroke" fill="none" stroke-linecap="round" stroke-linejoin="round" stroke-miterlimit="4" stroke="#17b0e3" stroke-width="2"><g><path d="M 22 10L 166 10C 166 10 178 10 178 22L 178 52C 178 52 178 64 166 64L 22 64C 22 64 10 64 10 52L 10 22C 10 22 10 10 22 10"></path></g></g></g><g id="g-root-ro_1hiudnc9rfv2b-stroke" data-item-order="999990928" data-item-id="ro_1hiudnc9rfv2b" data-item-class="Shape Stroke Fill" data-item-index="none" data-renderer-id="0" transform="translate(213, 201)"><g id="ro_1hiudnc9rfv2b-stroke" fill="none" stroke-linecap="round" stroke-linejoin="round" stroke-miterlimit="4" stroke="#17b0e3" stroke-width="2"><g><path d="M 22 10L 166 10C 166 10 178 10 178 22L 178 52C 178 52 178 64 166 64L 22 64C 22 64 10 64 10 52L 10 22C 10 22 10 10 22 10"></path></g></g></g><g id="g-root-ro_90weqg9regay-stroke" data-item-order="999990928" data-item-id="ro_90weqg9regay" data-item-class="Shape Stroke Fill" data-item-index="none" data-renderer-id="0" transform="translate(423, 123)"><g id="ro_90weqg9regay-stroke" fill="none" stroke-linecap="round" stroke-linejoin="round" stroke-miterlimit="4" stroke="#dd8433" stroke-width="2"><g><path d="M 22 10L 166 10C 166 10 178 10 178 22L 178 52C 178 52 178 64 166 64L 22 64C 22 64 10 64 10 52L 10 22C 10 22 10 10 22 10"></path></g></g></g><g id="g-root-ro_90weqg9regay-stroke" data-item-order="999990928" data-item-id="ro_90weqg9regay" data-item-class="Shape Stroke Fill" data-item-index="none" data-renderer-id="0" transform="translate(423, 123)"><g id="ro_90weqg9regay-stroke" fill="none" stroke-linecap="round" stroke-linejoin="round" stroke-miterlimit="4" stroke="#dd8433" stroke-width="2"><g><path d="M 22 10L 166 10C 166 10 178 10 178 22L 178 52C 178 52 178 64 166 64L 22 64C 22 64 10 64 10 52L 10 22C 10 22 10 10 22 10"></path></g></g></g><g id="g-root-ro_90weqg9regay-stroke" data-item-order="999990928" data-item-id="ro_90weqg9regay" data-item-class="Shape Stroke Fill" data-item-index="none" data-renderer-id="0" transform="translate(423, 123)"><g id="ro_90weqg9regay-stroke" fill="none" stroke-linecap="round" stroke-linejoin="round" stroke-miterlimit="4" stroke="#dd8433" stroke-width="2"><g><path d="M 22 10L 166 10C 166 10 178 10 178 22L 178 52C 178 52 178 64 166 64L 22 64C 22 64 10 64 10 52L 10 22C 10 22 10 10 22 10"></path></g></g></g><g id="g-root-ro_1hbz2jc9qxjpm-stroke" data-item-order="999992224" data-item-id="ro_1hbz2jc9qxjpm" data-item-class="Shape Stroke Fill" data-item-index="none" data-renderer-id="0" transform="translate(423, 3)"><g id="ro_1hbz2jc9qxjpm-stroke" fill="none" stroke-linecap="round" stroke-linejoin="round" stroke-miterlimit="4" stroke="#3bc482" stroke-width="2"><g><path d="M 22 10L 142 10C 142 10 154 10 154 22L 154 52C 154 52 154 64 142 64L 22 64C 22 64 10 64 10 52L 10 22C 10 22 10 10 22 10"></path></g></g></g><g id="g-root-ro_1hbz2jc9qxjpm-stroke" data-item-order="999992224" data-item-id="ro_1hbz2jc9qxjpm" data-item-class="Shape Stroke Fill" data-item-index="none" data-renderer-id="0" transform="translate(423, 3)"><g id="ro_1hbz2jc9qxjpm-stroke" fill="none" stroke-linecap="round" stroke-linejoin="round" stroke-miterlimit="4" stroke="#3bc482" stroke-width="2"><g><path d="M 22 10L 142 10C 142 10 154 10 154 22L 154 52C 154 52 154 64 142 64L 22 64C 22 64 10 64 10 52L 10 22C 10 22 10 10 22 10"></path></g></g></g><g id="g-root-ro_1hbz2jc9qxjpm-stroke" data-item-order="999992224" data-item-id="ro_1hbz2jc9qxjpm" data-item-class="Shape Stroke Fill" data-item-index="none" data-renderer-id="0" transform="translate(423, 3)"><g id="ro_1hbz2jc9qxjpm-stroke" fill="none" stroke-linecap="round" stroke-linejoin="round" stroke-miterlimit="4" stroke="#3bc482" stroke-width="2"><g><path d="M 22 10L 142 10C 142 10 154 10 154 22L 154 52C 154 52 154 64 142 64L 22 64C 22 64 10 64 10 52L 10 22C 10 22 10 10 22 10"></path></g></g></g><g id="g-root-ro_1480fiw9r1tzb-stroke" data-item-order="999992224" data-item-id="ro_1480fiw9r1tzb" data-item-class="Shape Stroke Fill" data-item-index="none" data-renderer-id="0" transform="translate(27, 123)"><g id="ro_1480fiw9r1tzb-stroke" fill="none" stroke-linecap="round" stroke-linejoin="round" stroke-miterlimit="4" stroke="#b65edf" stroke-width="2"><g><path d="M 22 10L 142 10C 142 10 154 10 154 22L 154 52C 154 52 154 64 142 64L 22 64C 22 64 10 64 10 52L 10 22C 10 22 10 10 22 10"></path></g></g></g><g id="g-root-ro_1480fiw9r1tzb-stroke" data-item-order="999992224" data-item-id="ro_1480fiw9r1tzb" data-item-class="Shape Stroke Fill" data-item-index="none" data-renderer-id="0" transform="translate(27, 123)"><g id="ro_1480fiw9r1tzb-stroke" fill="none" stroke-linecap="round" stroke-linejoin="round" stroke-miterlimit="4" stroke="#b65edf" stroke-width="2"><g><path d="M 22 10L 142 10C 142 10 154 10 154 22L 154 52C 154 52 154 64 142 64L 22 64C 22 64 10 64 10 52L 10 22C 10 22 10 10 22 10"></path></g></g></g><g id="g-root-ro_1480fiw9r1tzb-stroke" data-item-order="999992224" data-item-id="ro_1480fiw9r1tzb" data-item-class="Shape Stroke Fill" data-item-index="none" data-renderer-id="0" transform="translate(27, 123)"><g id="ro_1480fiw9r1tzb-stroke" fill="none" stroke-linecap="round" stroke-linejoin="round" stroke-miterlimit="4" stroke="#b65edf" stroke-width="2"><g><path d="M 22 10L 142 10C 142 10 154 10 154 22L 154 52C 154 52 154 64 142 64L 22 64C 22 64 10 64 10 52L 10 22C 10 22 10 10 22 10"></path></g></g></g><g id="g-root-cu_m7daqg9r37r4-stroke" data-item-order="1000000000" data-item-id="cu_m7daqg9r37r4" data-item-class="Curve Stroke ColorStrokeGray" data-item-index="none" data-renderer-id="0" transform="translate(171, 30)"><g id="cu_m7daqg9r37r4-stroke" fill="none" stroke-linecap="round" stroke-linejoin="round" stroke-miterlimit="4" stroke="#888888" stroke-width="2" stroke-dasharray="5.0, 7.0"><g><path d="M 58 45L 55 45L 54.9 45C 50.422131 44.972593 45.63978 43.214375 41.299999 40C 38.67988 38.118536 36.018569 33.561496 33.999999 27.499999C 31.98143 21.438501 29.320119 16.881461 26.699999 15C 22.360218 11.785625 17.577867 10.027408 13.1 10L 13 10L 10 10"></path></g></g></g><g id="g-root-cu_m7daqg9r37r4-stroke" data-item-order="1000000000" data-item-id="cu_m7daqg9r37r4" data-item-class="Curve Stroke ColorStrokeGray" data-item-index="none" data-renderer-id="0" transform="translate(171, 30)"><g id="cu_m7daqg9r37r4-stroke" fill="none" stroke-linecap="round" stroke-linejoin="round" stroke-miterlimit="4" stroke="#888888" stroke-width="2" stroke-dasharray="5.0, 7.0"><g><path d="M 58 45L 55 45L 54.9 45C 50.422131 44.972593 45.63978 43.214375 41.299999 40C 38.67988 38.118536 36.018569 33.561496 33.999999 27.499999C 31.98143 21.438501 29.320119 16.881461 26.699999 15C 22.360218 11.785625 17.577867 10.027408 13.1 10L 13 10L 10 10"></path></g></g></g><g id="g-root-cu_m7daqg9r37r4-stroke" data-item-order="1000000000" data-item-id="cu_m7daqg9r37r4" data-item-class="Curve Stroke ColorStrokeGray" data-item-index="none" data-renderer-id="0" transform="translate(171, 30)"><g id="cu_m7daqg9r37r4-stroke" fill="none" stroke-linecap="round" stroke-linejoin="round" stroke-miterlimit="4" stroke="#888888" stroke-width="2" stroke-dasharray="5.0, 7.0"><g><path d="M 58 45L 55 45L 54.9 45C 50.422131 44.972593 45.63978 43.214375 41.299999 40C 38.67988 38.118536 36.018569 33.561496 33.999999 27.499999C 31.98143 21.438501 29.320119 16.881461 26.699999 15C 22.360218 11.785625 17.577867 10.027408 13.1 10L 13 10L 10 10"></path></g></g></g><g id="g-root-cu_m7daqg9r37r4-stroke" data-item-order="1000000000" data-item-id="cu_m7daqg9r37r4" data-item-class="Curve Stroke ColorStrokeGray" data-item-index="none" data-renderer-id="0" transform="translate(171, 30)"><g id="cu_m7daqg9r37r4-stroke" fill="none" stroke-linecap="round" stroke-linejoin="round" stroke-miterlimit="4" stroke="#888888" stroke-width="2" stroke-dasharray="5.0, 7.0"><g><path d="M 58 45L 55 45L 54.9 45C 50.422131 44.972593 45.63978 43.214375 41.299999 40C 38.67988 38.118536 36.018569 33.561496 33.999999 27.499999C 31.98143 21.438501 29.320119 16.881461 26.699999 15C 22.360218 11.785625 17.577867 10.027408 13.1 10L 13 10L 10 10"></path></g></g></g><g id="g-root-cu_m7daqg9r37r4-stroke" data-item-order="1000000000" data-item-id="cu_m7daqg9r37r4" data-item-class="Curve Stroke ColorStrokeGray" data-item-index="none" data-renderer-id="0" transform="translate(171, 30)"><g id="cu_m7daqg9r37r4-stroke" fill="none" stroke-linecap="round" stroke-linejoin="round" stroke-miterlimit="4" stroke="#888888" stroke-width="2" stroke-dasharray="5.0, 7.0"><g><path d="M 58 45L 55 45L 54.9 45C 50.422131 44.972593 45.63978 43.214375 41.299999 40C 38.67988 38.118536 36.018569 33.561496 33.999999 27.499999C 31.98143 21.438501 29.320119 16.881461 26.699999 15C 22.360218 11.785625 17.577867 10.027408 13.1 10L 13 10L 10 10"></path></g></g></g><g id="g-root-cu_m7daqg9r37r4-stroke" data-item-order="1000000000" data-item-id="cu_m7daqg9r37r4" data-item-class="Curve Stroke ColorStrokeGray" data-item-index="none" data-renderer-id="0" transform="translate(171, 30)"><g id="cu_m7daqg9r37r4-stroke" fill="none" stroke-linecap="round" stroke-linejoin="round" stroke-miterlimit="4" stroke="#888888" stroke-width="2" stroke-dasharray="5.0, 7.0"><g><path d="M 58 45L 55 45L 54.9 45C 50.422131 44.972593 45.63978 43.214375 41.299999 40C 38.67988 38.118536 36.018569 33.561496 33.999999 27.499999C 31.98143 21.438501 29.320119 16.881461 26.699999 15C 22.360218 11.785625 17.577867 10.027408 13.1 10L 13 10L 10 10"></path></g></g></g><g id="g-root-cu_1um6t209r37k3-stroke" data-item-order="1000000000" data-item-id="cu_1um6t209r37k3" data-item-class="Curve Stroke ColorStrokeGray" data-item-index="none" data-renderer-id="0" transform="translate(375, 30)"><g id="cu_1um6t209r37k3-stroke" fill="none" stroke-linecap="round" stroke-linejoin="round" stroke-miterlimit="4" stroke="#888888" stroke-width="2" stroke-dasharray="5.0, 7.0"><g><path d="M 10 45L 13 45L 13.1 45C 17.577866 44.972592 22.360217 43.214375 26.699999 40C 29.320119 38.118536 31.98143 33.561497 33.999999 27.499999C 36.018569 21.438502 38.67988 16.881462 41.299999 15C 45.63978 11.785625 50.422131 10.027407 54.899998 9.999999L 55 10L 58 10"></path></g></g></g><g id="g-root-cu_1um6t209r37k3-stroke" data-item-order="1000000000" data-item-id="cu_1um6t209r37k3" data-item-class="Curve Stroke ColorStrokeGray" data-item-index="none" data-renderer-id="0" transform="translate(375, 30)"><g id="cu_1um6t209r37k3-stroke" fill="none" stroke-linecap="round" stroke-linejoin="round" stroke-miterlimit="4" stroke="#888888" stroke-width="2" stroke-dasharray="5.0, 7.0"><g><path d="M 10 45L 13 45L 13.1 45C 17.577866 44.972592 22.360217 43.214375 26.699999 40C 29.320119 38.118536 31.98143 33.561497 33.999999 27.499999C 36.018569 21.438502 38.67988 16.881462 41.299999 15C 45.63978 11.785625 50.422131 10.027407 54.899998 9.999999L 55 10L 58 10"></path></g></g></g><g id="g-root-cu_1um6t209r37k3-stroke" data-item-order="1000000000" data-item-id="cu_1um6t209r37k3" data-item-class="Curve Stroke ColorStrokeGray" data-item-index="none" data-renderer-id="0" transform="translate(375, 30)"><g id="cu_1um6t209r37k3-stroke" fill="none" stroke-linecap="round" stroke-linejoin="round" stroke-miterlimit="4" stroke="#888888" stroke-width="2" stroke-dasharray="5.0, 7.0"><g><path d="M 10 45L 13 45L 13.1 45C 17.577866 44.972592 22.360217 43.214375 26.699999 40C 29.320119 38.118536 31.98143 33.561497 33.999999 27.499999C 36.018569 21.438502 38.67988 16.881462 41.299999 15C 45.63978 11.785625 50.422131 10.027407 54.899998 9.999999L 55 10L 58 10"></path></g></g></g><g id="g-root-cu_1um6t209r37k3-stroke" data-item-order="1000000000" data-item-id="cu_1um6t209r37k3" data-item-class="Curve Stroke ColorStrokeGray" data-item-index="none" data-renderer-id="0" transform="translate(375, 30)"><g id="cu_1um6t209r37k3-stroke" fill="none" stroke-linecap="round" stroke-linejoin="round" stroke-miterlimit="4" stroke="#888888" stroke-width="2" stroke-dasharray="5.0, 7.0"><g><path d="M 10 45L 13 45L 13.1 45C 17.577866 44.972592 22.360217 43.214375 26.699999 40C 29.320119 38.118536 31.98143 33.561497 33.999999 27.499999C 36.018569 21.438502 38.67988 16.881462 41.299999 15C 45.63978 11.785625 50.422131 10.027407 54.899998 9.999999L 55 10L 58 10"></path></g></g></g><g id="g-root-cu_1um6t209r37k3-stroke" data-item-order="1000000000" data-item-id="cu_1um6t209r37k3" data-item-class="Curve Stroke ColorStrokeGray" data-item-index="none" data-renderer-id="0" transform="translate(375, 30)"><g id="cu_1um6t209r37k3-stroke" fill="none" stroke-linecap="round" stroke-linejoin="round" stroke-miterlimit="4" stroke="#888888" stroke-width="2" stroke-dasharray="5.0, 7.0"><g><path d="M 10 45L 13 45L 13.1 45C 17.577866 44.972592 22.360217 43.214375 26.699999 40C 29.320119 38.118536 31.98143 33.561497 33.999999 27.499999C 36.018569 21.438502 38.67988 16.881462 41.299999 15C 45.63978 11.785625 50.422131 10.027407 54.899998 9.999999L 55 10L 58 10"></path></g></g></g><g id="g-root-cu_1um6t209r37k3-stroke" data-item-order="1000000000" data-item-id="cu_1um6t209r37k3" data-item-class="Curve Stroke ColorStrokeGray" data-item-index="none" data-renderer-id="0" transform="translate(375, 30)"><g id="cu_1um6t209r37k3-stroke" fill="none" stroke-linecap="round" stroke-linejoin="round" stroke-miterlimit="4" stroke="#888888" stroke-width="2" stroke-dasharray="5.0, 7.0"><g><path d="M 10 45L 13 45L 13.1 45C 17.577866 44.972592 22.360217 43.214375 26.699999 40C 29.320119 38.118536 31.98143 33.561497 33.999999 27.499999C 36.018569 21.438502 38.67988 16.881462 41.299999 15C 45.63978 11.785625 50.422131 10.027407 54.899998 9.999999L 55 10L 58 10"></path></g></g></g><g id="g-root-cu_1um6t209r37k3-stroke" data-item-order="1000000000" data-item-id="cu_1um6t209r37k3" data-item-class="Curve Stroke ColorStrokeGray" data-item-index="none" data-renderer-id="0" transform="translate(375, 30)"><g id="cu_1um6t209r37k3-stroke" fill="none" stroke-linecap="round" stroke-linejoin="round" stroke-miterlimit="4" stroke="#888888" stroke-width="2" stroke-dasharray="5.0, 7.0"><g><path d="M 10 45L 13 45L 13.1 45C 17.577866 44.972592 22.360217 43.214375 26.699999 40C 29.320119 38.118536 31.98143 33.561497 33.999999 27.499999C 36.018569 21.438502 38.67988 16.881462 41.299999 15C 45.63978 11.785625 50.422131 10.027407 54.899998 9.999999L 55 10L 58 10"></path></g></g></g><g id="g-root-tx__m7zli09qxlhk-stroke" data-item-order="1000000000" data-item-id="tx__m7zli09qxlhk" data-item-class="Label Stroke" data-item-index="none" data-renderer-id="0" transform="translate(471, 18)"></g><g id="g-root-tx__m7zli09qxlhk-stroke" data-item-order="1000000000" data-item-id="tx__m7zli09qxlhk" data-item-class="Label Stroke" data-item-index="none" data-renderer-id="0" transform="translate(471, 18)"></g><g id="g-root-tx__m7zli09qxlhk-stroke" data-item-order="1000000000" data-item-id="tx__m7zli09qxlhk" data-item-class="Label Stroke" data-item-index="none" data-renderer-id="0" transform="translate(471, 18)"></g><g id="g-root-1_zlb9nc9ra7ev-stroke" data-item-order="1000000000" data-item-id="1_zlb9nc9ra7ev" data-item-class="Icon Stroke" data-item-index="none" data-renderer-id="0" transform="translate(273, 51)"><g id="1_zlb9nc9ra7ev-stroke" fill="none" stroke-linecap="round" stroke-linejoin="round" stroke-miterlimit="4" stroke="#484848" stroke-width="2"><g><path d="M 28 34.998001C 28 38.311707 30.686293 40.998001 34 40.998001C 37.313709 40.998001 40 38.311707 40 34.998001C 40 31.684292 37.313709 28.998001 34 28.998001C 30.686293 28.998001 28 31.684292 28 34.998001ZM 43 57C 42.375999 50.216 38.534 45 34 45C 29.466 45 25.624001 50.216 25 57ZM 44.599998 44.599998C 50.46323 38.744064 50.467171 29.243198 44.608803 23.382401C 38.750435 17.521603 29.249567 17.521603 23.391201 23.382401C 17.532833 29.243198 17.536774 38.744064 23.400002 44.600002M 50.264 50.262001C 59.245617 41.279785 59.245293 26.717268 50.263275 17.735451C 41.281258 8.753635 26.718742 8.753635 17.736725 17.735451C 8.754709 26.717268 8.754384 41.279785 17.736 50.262001"></path></g></g></g><g id="g-root-1_zlb9nc9ra7ev-stroke" data-item-order="1000000000" data-item-id="1_zlb9nc9ra7ev" data-item-class="Icon Stroke" data-item-index="none" data-renderer-id="0" transform="translate(273, 51)"><g id="1_zlb9nc9ra7ev-stroke" fill="none" stroke-linecap="round" stroke-linejoin="round" stroke-miterlimit="4" stroke="#484848" stroke-width="2"><g><path d="M 28 34.998001C 28 38.311707 30.686293 40.998001 34 40.998001C 37.313709 40.998001 40 38.311707 40 34.998001C 40 31.684292 37.313709 28.998001 34 28.998001C 30.686293 28.998001 28 31.684292 28 34.998001ZM 43 57C 42.375999 50.216 38.534 45 34 45C 29.466 45 25.624001 50.216 25 57ZM 44.599998 44.599998C 50.46323 38.744064 50.467171 29.243198 44.608803 23.382401C 38.750435 17.521603 29.249567 17.521603 23.391201 23.382401C 17.532833 29.243198 17.536774 38.744064 23.400002 44.600002M 50.264 50.262001C 59.245617 41.279785 59.245293 26.717268 50.263275 17.735451C 41.281258 8.753635 26.718742 8.753635 17.736725 17.735451C 8.754709 26.717268 8.754384 41.279785 17.736 50.262001"></path></g></g></g><g id="g-root-1_zlb9nc9ra7ev-stroke" data-item-order="1000000000" data-item-id="1_zlb9nc9ra7ev" data-item-class="Icon Stroke" data-item-index="none" data-renderer-id="0" transform="translate(273, 51)"><g id="1_zlb9nc9ra7ev-stroke" fill="none" stroke-linecap="round" stroke-linejoin="round" stroke-miterlimit="4" stroke="#484848" stroke-width="2"><g><path d="M 28 34.998001C 28 38.311707 30.686293 40.998001 34 40.998001C 37.313709 40.998001 40 38.311707 40 34.998001C 40 31.684292 37.313709 28.998001 34 28.998001C 30.686293 28.998001 28 31.684292 28 34.998001ZM 43 57C 42.375999 50.216 38.534 45 34 45C 29.466 45 25.624001 50.216 25 57ZM 44.599998 44.599998C 50.46323 38.744064 50.467171 29.243198 44.608803 23.382401C 38.750435 17.521603 29.249567 17.521603 23.391201 23.382401C 17.532833 29.243198 17.536774 38.744064 23.400002 44.600002M 50.264 50.262001C 59.245617 41.279785 59.245293 26.717268 50.263275 17.735451C 41.281258 8.753635 26.718742 8.753635 17.736725 17.735451C 8.754709 26.717268 8.754384 41.279785 17.736 50.262001"></path></g></g></g><g id="g-root-cu_m7daqg9r37r4-stroke" data-item-order="1000000000" data-item-id="cu_m7daqg9r37r4" data-item-class="Curve Stroke ColorStrokeGray" data-item-index="none" data-renderer-id="0" transform="translate(171, 30)"><g id="cu_m7daqg9r37r4-stroke" fill="none" stroke-linecap="round" stroke-linejoin="round" stroke-miterlimit="4" stroke="#888888" stroke-width="2" stroke-dasharray="5.0, 7.0"><g><path d="M 58 45L 55 45L 54.9 45C 50.422131 44.972593 45.63978 43.214375 41.299999 40C 38.67988 38.118536 36.018569 33.561496 33.999999 27.499999C 31.98143 21.438501 29.320119 16.881461 26.699999 15C 22.360218 11.785625 17.577867 10.027408 13.1 10L 13 10L 10 10"></path></g></g></g><g id="g-root-emai_4hc23c9qxkox-stroke" data-item-order="1000000000" data-item-id="emai_4hc23c9qxkox" data-item-class="Icon Stroke" data-item-index="none" data-renderer-id="0" transform="translate(435, 15)"><g id="emai_4hc23c9qxkox-stroke" fill="none" stroke-linecap="round" stroke-linejoin="round" stroke-miterlimit="4" stroke="#3bc482" stroke-width="2"><g><path d="M 20.714285 30.892857L 13.214286 30.892857C 12.030818 30.892857 11.071428 29.933468 11.071428 28.75L 11.071428 15.892857C 11.071428 14.70939 12.030818 13.75 13.214286 13.75L 36.785713 13.75C 37.969181 13.75 38.92857 14.70939 38.92857 15.892857L 38.92857 20.178572M 17.5 20.178572L 17.5 24.464285M 28.214285 25.535713L 36.785713 25.535713C 36.785713 25.535713 38.92857 25.535713 38.92857 27.678572L 38.92857 34.107143C 38.92857 34.107143 38.92857 36.25 36.785713 36.25L 28.214285 36.25C 28.214285 36.25 26.071428 36.25 26.071428 34.107143L 26.071428 27.678572C 26.071428 27.678572 26.071428 25.535713 28.214285 25.535713M 26.071428 28.75L 32.5 31.964285L 38.92857 28.75"></path></g></g></g><g id="g-root-emai_4hc23c9qxkox-stroke" data-item-order="1000000000" data-item-id="emai_4hc23c9qxkox" data-item-class="Icon Stroke" data-item-index="none" data-renderer-id="0" transform="translate(435, 15)"><g id="emai_4hc23c9qxkox-stroke" fill="none" stroke-linecap="round" stroke-linejoin="round" stroke-miterlimit="4" stroke="#3bc482" stroke-width="2"><g><path d="M 20.714285 30.892857L 13.214286 30.892857C 12.030818 30.892857 11.071428 29.933468 11.071428 28.75L 11.071428 15.892857C 11.071428 14.70939 12.030818 13.75 13.214286 13.75L 36.785713 13.75C 37.969181 13.75 38.92857 14.70939 38.92857 15.892857L 38.92857 20.178572M 17.5 20.178572L 17.5 24.464285M 28.214285 25.535713L 36.785713 25.535713C 36.785713 25.535713 38.92857 25.535713 38.92857 27.678572L 38.92857 34.107143C 38.92857 34.107143 38.92857 36.25 36.785713 36.25L 28.214285 36.25C 28.214285 36.25 26.071428 36.25 26.071428 34.107143L 26.071428 27.678572C 26.071428 27.678572 26.071428 25.535713 28.214285 25.535713M 26.071428 28.75L 32.5 31.964285L 38.92857 28.75"></path></g></g></g><g id="g-root-cu_13zw9eg9r37k9-stroke" data-item-order="1000000000" data-item-id="cu_13zw9eg9r37k9" data-item-class="Curve Stroke ColorStrokeGray" data-item-index="none" data-renderer-id="0" transform="translate(171, 115)"><g id="cu_13zw9eg9r37k9-stroke" fill="none" stroke-linecap="round" stroke-linejoin="round" stroke-miterlimit="4" stroke="#888888" stroke-width="2" stroke-dasharray="5.0, 7.0"><g><path d="M 58 10L 55 10L 54.9 10C 50.422131 10.027407 45.63978 11.785625 41.299998 15C 38.67988 16.881462 36.018569 21.438502 33.999999 27.499999C 31.98143 33.561497 29.320119 38.118536 26.699999 39.999998C 22.360217 43.214375 17.577866 44.972592 13.099999 45L 13 45L 10 45"></path></g></g></g><g id="g-root-cu_13zw9eg9r37k9-stroke" data-item-order="1000000000" data-item-id="cu_13zw9eg9r37k9" data-item-class="Curve Stroke ColorStrokeGray" data-item-index="none" data-renderer-id="0" transform="translate(171, 115)"><g id="cu_13zw9eg9r37k9-stroke" fill="none" stroke-linecap="round" stroke-linejoin="round" stroke-miterlimit="4" stroke="#888888" stroke-width="2" stroke-dasharray="5.0, 7.0"><g><path d="M 58 10L 55 10L 54.9 10C 50.422131 10.027407 45.63978 11.785625 41.299998 15C 38.67988 16.881462 36.018569 21.438502 33.999999 27.499999C 31.98143 33.561497 29.320119 38.118536 26.699999 39.999998C 22.360217 43.214375 17.577866 44.972592 13.099999 45L 13 45L 10 45"></path></g></g></g><g id="g-root-cu_13zw9eg9r37k9-stroke" data-item-order="1000000000" data-item-id="cu_13zw9eg9r37k9" data-item-class="Curve Stroke ColorStrokeGray" data-item-index="none" data-renderer-id="0" transform="translate(171, 115)"><g id="cu_13zw9eg9r37k9-stroke" fill="none" stroke-linecap="round" stroke-linejoin="round" stroke-miterlimit="4" stroke="#888888" stroke-width="2" stroke-dasharray="5.0, 7.0"><g><path d="M 58 10L 55 10L 54.9 10C 50.422131 10.027407 45.63978 11.785625 41.299998 15C 38.67988 16.881462 36.018569 21.438502 33.999999 27.499999C 31.98143 33.561497 29.320119 38.118536 26.699999 39.999998C 22.360217 43.214375 17.577866 44.972592 13.099999 45L 13 45L 10 45"></path></g></g></g><g id="g-root-cu_13zw9eg9r37k9-stroke" data-item-order="1000000000" data-item-id="cu_13zw9eg9r37k9" data-item-class="Curve Stroke ColorStrokeGray" data-item-index="none" data-renderer-id="0" transform="translate(171, 115)"><g id="cu_13zw9eg9r37k9-stroke" fill="none" stroke-linecap="round" stroke-linejoin="round" stroke-miterlimit="4" stroke="#888888" stroke-width="2" stroke-dasharray="5.0, 7.0"><g><path d="M 58 10L 55 10L 54.9 10C 50.422131 10.027407 45.63978 11.785625 41.299998 15C 38.67988 16.881462 36.018569 21.438502 33.999999 27.499999C 31.98143 33.561497 29.320119 38.118536 26.699999 39.999998C 22.360217 43.214375 17.577866 44.972592 13.099999 45L 13 45L 10 45"></path></g></g></g><g id="g-root-cu_13zw9eg9r37k9-stroke" data-item-order="1000000000" data-item-id="cu_13zw9eg9r37k9" data-item-class="Curve Stroke ColorStrokeGray" data-item-index="none" data-renderer-id="0" transform="translate(171, 115)"><g id="cu_13zw9eg9r37k9-stroke" fill="none" stroke-linecap="round" stroke-linejoin="round" stroke-miterlimit="4" stroke="#888888" stroke-width="2" stroke-dasharray="5.0, 7.0"><g><path d="M 58 10L 55 10L 54.9 10C 50.422131 10.027407 45.63978 11.785625 41.299998 15C 38.67988 16.881462 36.018569 21.438502 33.999999 27.499999C 31.98143 33.561497 29.320119 38.118536 26.699999 39.999998C 22.360217 43.214375 17.577866 44.972592 13.099999 45L 13 45L 10 45"></path></g></g></g><g id="g-root-cu_13zw9eg9r37k9-stroke" data-item-order="1000000000" data-item-id="cu_13zw9eg9r37k9" data-item-class="Curve Stroke ColorStrokeGray" data-item-index="none" data-renderer-id="0" transform="translate(171, 115)"><g id="cu_13zw9eg9r37k9-stroke" fill="none" stroke-linecap="round" stroke-linejoin="round" stroke-miterlimit="4" stroke="#888888" stroke-width="2" stroke-dasharray="5.0, 7.0"><g><path d="M 58 10L 55 10L 54.9 10C 50.422131 10.027407 45.63978 11.785625 41.299998 15C 38.67988 16.881462 36.018569 21.438502 33.999999 27.499999C 31.98143 33.561497 29.320119 38.118536 26.699999 39.999998C 22.360217 43.214375 17.577866 44.972592 13.099999 45L 13 45L 10 45"></path></g></g></g><g id="g-root-cu_13zw9eg9r37k9-stroke" data-item-order="1000000000" data-item-id="cu_13zw9eg9r37k9" data-item-class="Curve Stroke ColorStrokeGray" data-item-index="none" data-renderer-id="0" transform="translate(171, 115)"><g id="cu_13zw9eg9r37k9-stroke" fill="none" stroke-linecap="round" stroke-linejoin="round" stroke-miterlimit="4" stroke="#888888" stroke-width="2" stroke-dasharray="5.0, 7.0"><g><path d="M 58 10L 55 10L 54.9 10C 50.422131 10.027407 45.63978 11.785625 41.299998 15C 38.67988 16.881462 36.018569 21.438502 33.999999 27.499999C 31.98143 33.561497 29.320119 38.118536 26.699999 39.999998C 22.360217 43.214375 17.577866 44.972592 13.099999 45L 13 45L 10 45"></path></g></g></g><g id="g-root-tx__4hbsm09ra96u-stroke" data-item-order="1000000000" data-item-id="tx__4hbsm09ra96u" data-item-class="Label Stroke" data-item-index="none" data-renderer-id="0" transform="translate(255, 105)"></g><g id="g-root-tx__4hbsm09ra96u-stroke" data-item-order="1000000000" data-item-id="tx__4hbsm09ra96u" data-item-class="Label Stroke" data-item-index="none" data-renderer-id="0" transform="translate(255, 105)"></g><g id="g-root-tx__4hbsm09ra96u-stroke" data-item-order="1000000000" data-item-id="tx__4hbsm09ra96u" data-item-class="Label Stroke" data-item-index="none" data-renderer-id="0" transform="translate(255, 105)"></g><g id="g-root-cu_18fpriw9r36ry-stroke" data-item-order="1000000000" data-item-id="cu_18fpriw9r36ry" data-item-class="Curve Stroke ColorStrokeGray" data-item-index="none" data-renderer-id="0" transform="translate(375, 115)"><g id="cu_18fpriw9r36ry-stroke" fill="none" stroke-linecap="round" stroke-linejoin="round" stroke-miterlimit="4" stroke="#888888" stroke-width="2" stroke-dasharray="5.0, 7.0"><g><path d="M 10 10L 13 10L 13.1 10C 17.577867 10.027408 22.360218 11.785625 26.699999 15C 29.320119 16.881461 31.98143 21.438501 33.999999 27.499999C 36.018569 33.561496 38.67988 38.118536 41.299999 39.999998C 45.63978 43.214375 50.422131 44.972593 54.899998 45L 55 45L 58 45"></path></g></g></g><g id="g-root-cu_18fpriw9r36ry-stroke" data-item-order="1000000000" data-item-id="cu_18fpriw9r36ry" data-item-class="Curve Stroke ColorStrokeGray" data-item-index="none" data-renderer-id="0" transform="translate(375, 115)"><g id="cu_18fpriw9r36ry-stroke" fill="none" stroke-linecap="round" stroke-linejoin="round" stroke-miterlimit="4" stroke="#888888" stroke-width="2" stroke-dasharray="5.0, 7.0"><g><path d="M 10 10L 13 10L 13.1 10C 17.577867 10.027408 22.360218 11.785625 26.699999 15C 29.320119 16.881461 31.98143 21.438501 33.999999 27.499999C 36.018569 33.561496 38.67988 38.118536 41.299999 39.999998C 45.63978 43.214375 50.422131 44.972593 54.899998 45L 55 45L 58 45"></path></g></g></g><g id="g-root-cu_18fpriw9r36ry-stroke" data-item-order="1000000000" data-item-id="cu_18fpriw9r36ry" data-item-class="Curve Stroke ColorStrokeGray" data-item-index="none" data-renderer-id="0" transform="translate(375, 115)"><g id="cu_18fpriw9r36ry-stroke" fill="none" stroke-linecap="round" stroke-linejoin="round" stroke-miterlimit="4" stroke="#888888" stroke-width="2" stroke-dasharray="5.0, 7.0"><g><path d="M 10 10L 13 10L 13.1 10C 17.577867 10.027408 22.360218 11.785625 26.699999 15C 29.320119 16.881461 31.98143 21.438501 33.999999 27.499999C 36.018569 33.561496 38.67988 38.118536 41.299999 39.999998C 45.63978 43.214375 50.422131 44.972593 54.899998 45L 55 45L 58 45"></path></g></g></g><g id="g-root-cu_18fpriw9r36ry-stroke" data-item-order="1000000000" data-item-id="cu_18fpriw9r36ry" data-item-class="Curve Stroke ColorStrokeGray" data-item-index="none" data-renderer-id="0" transform="translate(375, 115)"><g id="cu_18fpriw9r36ry-stroke" fill="none" stroke-linecap="round" stroke-linejoin="round" stroke-miterlimit="4" stroke="#888888" stroke-width="2" stroke-dasharray="5.0, 7.0"><g><path d="M 10 10L 13 10L 13.1 10C 17.577867 10.027408 22.360218 11.785625 26.699999 15C 29.320119 16.881461 31.98143 21.438501 33.999999 27.499999C 36.018569 33.561496 38.67988 38.118536 41.299999 39.999998C 45.63978 43.214375 50.422131 44.972593 54.899998 45L 55 45L 58 45"></path></g></g></g><g id="g-root-cu_18fpriw9r36ry-stroke" data-item-order="1000000000" data-item-id="cu_18fpriw9r36ry" data-item-class="Curve Stroke ColorStrokeGray" data-item-index="none" data-renderer-id="0" transform="translate(375, 115)"><g id="cu_18fpriw9r36ry-stroke" fill="none" stroke-linecap="round" stroke-linejoin="round" stroke-miterlimit="4" stroke="#888888" stroke-width="2" stroke-dasharray="5.0, 7.0"><g><path d="M 10 10L 13 10L 13.1 10C 17.577867 10.027408 22.360218 11.785625 26.699999 15C 29.320119 16.881461 31.98143 21.438501 33.999999 27.499999C 36.018569 33.561496 38.67988 38.118536 41.299999 39.999998C 45.63978 43.214375 50.422131 44.972593 54.899998 45L 55 45L 58 45"></path></g></g></g><g id="g-root-cu_18fpriw9r36ry-stroke" data-item-order="1000000000" data-item-id="cu_18fpriw9r36ry" data-item-class="Curve Stroke ColorStrokeGray" data-item-index="none" data-renderer-id="0" transform="translate(375, 115)"><g id="cu_18fpriw9r36ry-stroke" fill="none" stroke-linecap="round" stroke-linejoin="round" stroke-miterlimit="4" stroke="#888888" stroke-width="2" stroke-dasharray="5.0, 7.0"><g><path d="M 10 10L 13 10L 13.1 10C 17.577867 10.027408 22.360218 11.785625 26.699999 15C 29.320119 16.881461 31.98143 21.438501 33.999999 27.499999C 36.018569 33.561496 38.67988 38.118536 41.299999 39.999998C 45.63978 43.214375 50.422131 44.972593 54.899998 45L 55 45L 58 45"></path></g></g></g><g id="g-root-cu_18fpriw9r36ry-stroke" data-item-order="1000000000" data-item-id="cu_18fpriw9r36ry" data-item-class="Curve Stroke ColorStrokeGray" data-item-index="none" data-renderer-id="0" transform="translate(375, 115)"><g id="cu_18fpriw9r36ry-stroke" fill="none" stroke-linecap="round" stroke-linejoin="round" stroke-miterlimit="4" stroke="#888888" stroke-width="2" stroke-dasharray="5.0, 7.0"><g><path d="M 10 10L 13 10L 13.1 10C 17.577867 10.027408 22.360218 11.785625 26.699999 15C 29.320119 16.881461 31.98143 21.438501 33.999999 27.499999C 36.018569 33.561496 38.67988 38.118536 41.299999 39.999998C 45.63978 43.214375 50.422131 44.972593 54.899998 45L 55 45L 58 45"></path></g></g></g><g id="g-root-emai_4hc23c9qxkox-stroke" data-item-order="1000000000" data-item-id="emai_4hc23c9qxkox" data-item-class="Icon Stroke" data-item-index="none" data-renderer-id="0" transform="translate(435, 15)"><g id="emai_4hc23c9qxkox-stroke" fill="none" stroke-linecap="round" stroke-linejoin="round" stroke-miterlimit="4" stroke="#3bc482" stroke-width="2"><g><path d="M 20.714285 30.892857L 13.214286 30.892857C 12.030818 30.892857 11.071428 29.933468 11.071428 28.75L 11.071428 15.892857C 11.071428 14.70939 12.030818 13.75 13.214286 13.75L 36.785713 13.75C 37.969181 13.75 38.92857 14.70939 38.92857 15.892857L 38.92857 20.178572M 17.5 20.178572L 17.5 24.464285M 28.214285 25.535713L 36.785713 25.535713C 36.785713 25.535713 38.92857 25.535713 38.92857 27.678572L 38.92857 34.107143C 38.92857 34.107143 38.92857 36.25 36.785713 36.25L 28.214285 36.25C 28.214285 36.25 26.071428 36.25 26.071428 34.107143L 26.071428 27.678572C 26.071428 27.678572 26.071428 25.535713 28.214285 25.535713M 26.071428 28.75L 32.5 31.964285L 38.92857 28.75"></path></g></g></g><g id="g-root-requ_1cw5qqg9qyyo2-stroke" data-item-order="1000000000" data-item-id="requ_1cw5qqg9qyyo2" data-item-class="Icon Stroke" data-item-index="none" data-renderer-id="0" transform="translate(129, 15)"><g id="requ_1cw5qqg9qyyo2-stroke" fill="none" stroke-linecap="round" stroke-linejoin="round" stroke-miterlimit="4" stroke="#4682e3" stroke-width="2"><g><path d="M 31.707499 35.541252C 31.706907 37.658989 33.423508 39.376068 35.541248 39.376068C 37.658989 39.376068 39.375587 37.658989 39.374996 35.541248C 39.375587 33.423508 37.658989 31.706429 35.541248 31.706429C 33.423508 31.706429 31.706907 33.423508 31.707499 35.541248M 35.541252 31.708752L 35.541252 20.8475C 35.541252 17.319092 32.680908 14.45875 29.1525 14.45875L 24.04125 14.45875M 27.875 10.625L 24.04125 14.45875L 27.875 18.29125M 10.625 14.45875C 10.624409 16.576488 12.34101 18.29357 14.45875 18.29357C 16.576488 18.29357 18.293091 16.576488 18.2925 14.45875C 18.293091 12.34101 16.576488 10.623929 14.45875 10.623929C 12.34101 10.623929 10.624409 12.34101 10.625 14.45875M 14.45875 18.29125L 14.45875 29.1525C 14.45875 32.680908 17.319092 35.541252 20.8475 35.541252L 25.95875 35.541252M 22.125 39.375L 25.95875 35.541252L 22.125 31.708752"></path></g></g></g><g id="g-root-tx__90fbs9r1te5-stroke" data-item-order="1000000000" data-item-id="tx__90fbs9r1te5" data-item-class="Label Stroke" data-item-index="none" data-renderer-id="0" transform="translate(39, 138)"></g><g id="g-root-tx__90fbs9r1te5-stroke" data-item-order="1000000000" data-item-id="tx__90fbs9r1te5" data-item-class="Label Stroke" data-item-index="none" data-renderer-id="0" transform="translate(39, 138)"></g><g id="g-root-tx__90fbs9r1te5-stroke" data-item-order="1000000000" data-item-id="tx__90fbs9r1te5" data-item-class="Label Stroke" data-item-index="none" data-renderer-id="0" transform="translate(39, 138)"></g><g id="g-root-puzz_1hjgxw89r1see-stroke" data-item-order="1000000000" data-item-id="puzz_1hjgxw89r1see" data-item-class="Icon Stroke" data-item-index="none" data-renderer-id="0" transform="translate(129, 135)"><g id="puzz_1hjgxw89r1see-stroke" fill="none" stroke-linecap="round" stroke-linejoin="round" stroke-miterlimit="4" stroke="#b65edf" stroke-width="2"><g><path d="M 14.375 39.375L 11.8625 36.25C 11.058648 35.25531 10.61775 34.016388 10.6125 32.737499L 10.6125 26.25C 10.612489 25.750546 10.811748 25.271729 11.166087 24.919737C 11.520426 24.567743 12.000557 24.37167 12.5 24.375L 12.5 24.375C 13.535534 24.375 14.375 25.214466 14.375 26.25L 14.375 31.087502M 20 39.375L 20 35.450001C 20.002216 34.340767 19.671257 33.256432 19.049999 32.337498L 17.625 30.1875C 17.375448 29.772594 16.966204 29.478621 16.49334 29.37459C 16.020475 29.270559 15.52564 29.365637 15.125 29.637501L 15.125 29.637501C 14.39384 30.129101 14.142162 31.087616 14.5375 31.875L 16.25 34.6875M 35.625 39.375L 38.125 36.224998C 38.928852 35.230312 39.369751 33.99139 39.375 32.712502L 39.375 26.25C 39.375 25.214466 38.535534 24.375 37.5 24.375L 37.5 24.375C 36.464466 24.375 35.625 25.214466 35.625 26.25L 35.625 31.087502M 30 39.375L 30 35.450001C 29.997782 34.340767 30.328743 33.256432 30.950001 32.337498L 32.375 30.1875C 32.624554 29.772594 33.033794 29.478621 33.50666 29.37459C 33.979523 29.270559 34.474358 29.365637 34.875 29.637501L 34.875 29.637501C 35.606159 30.129101 35.857838 31.087616 35.462502 31.875L 33.75 34.6875M 26.9375 24.25C 25.960258 23.273212 25.960075 21.689102 26.937088 20.712088C 27.914103 19.735075 29.498213 19.735258 30.474998 20.7125C 30.715734 20.956764 30.906769 21.245438 31.037498 21.562498C 31.106373 21.76355 31.278456 21.911732 31.487501 21.949999C 31.694256 21.994572 31.909657 21.933697 32.0625 21.7875L 34.012497 19.825001C 34.497154 19.337454 34.497154 18.550047 34.012497 18.0625L 32 16.0625C 33.171562 15.748128 33.948406 14.638108 33.842541 13.42973C 33.736675 12.221352 32.778648 11.263325 31.570271 11.157458C 30.361891 11.051593 29.251873 11.828439 28.9375 13L 26.9375 10.9875C 26.449953 10.502846 25.662548 10.502846 25.175001 10.9875L 23.362499 12.8C 23.229273 12.935963 23.160969 13.122663 23.174999 13.3125C 23.197418 13.495162 23.297676 13.659225 23.450001 13.7625C 23.591726 13.860074 23.725479 13.968749 23.85 14.0875C 24.826466 15.06442 24.826283 16.647896 23.849588 17.624588C 22.872896 18.601282 21.289421 18.601465 20.3125 17.625C 20.198063 17.500017 20.093578 17.366276 20 17.225C 19.897915 17.066093 19.728226 16.963171 19.540131 16.946072C 19.352034 16.928972 19.166567 16.999607 19.0375 17.137501L 17.2125 18.950001C 16.727846 19.437546 16.727846 20.224953 17.2125 20.7125L 24.2875 27.787498C 24.775047 28.272154 25.562454 28.272154 26.049999 27.787498L 28 25.8375C 28.149708 25.688614 28.214127 25.474209 28.171265 25.267466C 28.128403 25.060724 27.984058 24.889599 27.787498 24.8125C 27.468546 24.685362 27.179199 24.493881 26.9375 24.25Z"></path></g></g></g><g id="g-root-puzz_1hjgxw89r1see-stroke" data-item-order="1000000000" data-item-id="puzz_1hjgxw89r1see" data-item-class="Icon Stroke" data-item-index="none" data-renderer-id="0" transform="translate(129, 135)"><g id="puzz_1hjgxw89r1see-stroke" fill="none" stroke-linecap="round" stroke-linejoin="round" stroke-miterlimit="4" stroke="#b65edf" stroke-width="2"><g><path d="M 14.375 39.375L 11.8625 36.25C 11.058648 35.25531 10.61775 34.016388 10.6125 32.737499L 10.6125 26.25C 10.612489 25.750546 10.811748 25.271729 11.166087 24.919737C 11.520426 24.567743 12.000557 24.37167 12.5 24.375L 12.5 24.375C 13.535534 24.375 14.375 25.214466 14.375 26.25L 14.375 31.087502M 20 39.375L 20 35.450001C 20.002216 34.340767 19.671257 33.256432 19.049999 32.337498L 17.625 30.1875C 17.375448 29.772594 16.966204 29.478621 16.49334 29.37459C 16.020475 29.270559 15.52564 29.365637 15.125 29.637501L 15.125 29.637501C 14.39384 30.129101 14.142162 31.087616 14.5375 31.875L 16.25 34.6875M 35.625 39.375L 38.125 36.224998C 38.928852 35.230312 39.369751 33.99139 39.375 32.712502L 39.375 26.25C 39.375 25.214466 38.535534 24.375 37.5 24.375L 37.5 24.375C 36.464466 24.375 35.625 25.214466 35.625 26.25L 35.625 31.087502M 30 39.375L 30 35.450001C 29.997782 34.340767 30.328743 33.256432 30.950001 32.337498L 32.375 30.1875C 32.624554 29.772594 33.033794 29.478621 33.50666 29.37459C 33.979523 29.270559 34.474358 29.365637 34.875 29.637501L 34.875 29.637501C 35.606159 30.129101 35.857838 31.087616 35.462502 31.875L 33.75 34.6875M 26.9375 24.25C 25.960258 23.273212 25.960075 21.689102 26.937088 20.712088C 27.914103 19.735075 29.498213 19.735258 30.474998 20.7125C 30.715734 20.956764 30.906769 21.245438 31.037498 21.562498C 31.106373 21.76355 31.278456 21.911732 31.487501 21.949999C 31.694256 21.994572 31.909657 21.933697 32.0625 21.7875L 34.012497 19.825001C 34.497154 19.337454 34.497154 18.550047 34.012497 18.0625L 32 16.0625C 33.171562 15.748128 33.948406 14.638108 33.842541 13.42973C 33.736675 12.221352 32.778648 11.263325 31.570271 11.157458C 30.361891 11.051593 29.251873 11.828439 28.9375 13L 26.9375 10.9875C 26.449953 10.502846 25.662548 10.502846 25.175001 10.9875L 23.362499 12.8C 23.229273 12.935963 23.160969 13.122663 23.174999 13.3125C 23.197418 13.495162 23.297676 13.659225 23.450001 13.7625C 23.591726 13.860074 23.725479 13.968749 23.85 14.0875C 24.826466 15.06442 24.826283 16.647896 23.849588 17.624588C 22.872896 18.601282 21.289421 18.601465 20.3125 17.625C 20.198063 17.500017 20.093578 17.366276 20 17.225C 19.897915 17.066093 19.728226 16.963171 19.540131 16.946072C 19.352034 16.928972 19.166567 16.999607 19.0375 17.137501L 17.2125 18.950001C 16.727846 19.437546 16.727846 20.224953 17.2125 20.7125L 24.2875 27.787498C 24.775047 28.272154 25.562454 28.272154 26.049999 27.787498L 28 25.8375C 28.149708 25.688614 28.214127 25.474209 28.171265 25.267466C 28.128403 25.060724 27.984058 24.889599 27.787498 24.8125C 27.468546 24.685362 27.179199 24.493881 26.9375 24.25Z"></path></g></g></g><g id="g-root-puzz_1hjgxw89r1see-stroke" data-item-order="1000000000" data-item-id="puzz_1hjgxw89r1see" data-item-class="Icon Stroke" data-item-index="none" data-renderer-id="0" transform="translate(129, 135)"><g id="puzz_1hjgxw89r1see-stroke" fill="none" stroke-linecap="round" stroke-linejoin="round" stroke-miterlimit="4" stroke="#b65edf" stroke-width="2"><g><path d="M 14.375 39.375L 11.8625 36.25C 11.058648 35.25531 10.61775 34.016388 10.6125 32.737499L 10.6125 26.25C 10.612489 25.750546 10.811748 25.271729 11.166087 24.919737C 11.520426 24.567743 12.000557 24.37167 12.5 24.375L 12.5 24.375C 13.535534 24.375 14.375 25.214466 14.375 26.25L 14.375 31.087502M 20 39.375L 20 35.450001C 20.002216 34.340767 19.671257 33.256432 19.049999 32.337498L 17.625 30.1875C 17.375448 29.772594 16.966204 29.478621 16.49334 29.37459C 16.020475 29.270559 15.52564 29.365637 15.125 29.637501L 15.125 29.637501C 14.39384 30.129101 14.142162 31.087616 14.5375 31.875L 16.25 34.6875M 35.625 39.375L 38.125 36.224998C 38.928852 35.230312 39.369751 33.99139 39.375 32.712502L 39.375 26.25C 39.375 25.214466 38.535534 24.375 37.5 24.375L 37.5 24.375C 36.464466 24.375 35.625 25.214466 35.625 26.25L 35.625 31.087502M 30 39.375L 30 35.450001C 29.997782 34.340767 30.328743 33.256432 30.950001 32.337498L 32.375 30.1875C 32.624554 29.772594 33.033794 29.478621 33.50666 29.37459C 33.979523 29.270559 34.474358 29.365637 34.875 29.637501L 34.875 29.637501C 35.606159 30.129101 35.857838 31.087616 35.462502 31.875L 33.75 34.6875M 26.9375 24.25C 25.960258 23.273212 25.960075 21.689102 26.937088 20.712088C 27.914103 19.735075 29.498213 19.735258 30.474998 20.7125C 30.715734 20.956764 30.906769 21.245438 31.037498 21.562498C 31.106373 21.76355 31.278456 21.911732 31.487501 21.949999C 31.694256 21.994572 31.909657 21.933697 32.0625 21.7875L 34.012497 19.825001C 34.497154 19.337454 34.497154 18.550047 34.012497 18.0625L 32 16.0625C 33.171562 15.748128 33.948406 14.638108 33.842541 13.42973C 33.736675 12.221352 32.778648 11.263325 31.570271 11.157458C 30.361891 11.051593 29.251873 11.828439 28.9375 13L 26.9375 10.9875C 26.449953 10.502846 25.662548 10.502846 25.175001 10.9875L 23.362499 12.8C 23.229273 12.935963 23.160969 13.122663 23.174999 13.3125C 23.197418 13.495162 23.297676 13.659225 23.450001 13.7625C 23.591726 13.860074 23.725479 13.968749 23.85 14.0875C 24.826466 15.06442 24.826283 16.647896 23.849588 17.624588C 22.872896 18.601282 21.289421 18.601465 20.3125 17.625C 20.198063 17.500017 20.093578 17.366276 20 17.225C 19.897915 17.066093 19.728226 16.963171 19.540131 16.946072C 19.352034 16.928972 19.166567 16.999607 19.0375 17.137501L 17.2125 18.950001C 16.727846 19.437546 16.727846 20.224953 17.2125 20.7125L 24.2875 27.787498C 24.775047 28.272154 25.562454 28.272154 26.049999 27.787498L 28 25.8375C 28.149708 25.688614 28.214127 25.474209 28.171265 25.267466C 28.128403 25.060724 27.984058 24.889599 27.787498 24.8125C 27.468546 24.685362 27.179199 24.493881 26.9375 24.25Z"></path></g></g></g><g id="g-root-requ_1cw5qqg9qyyo2-stroke" data-item-order="1000000000" data-item-id="requ_1cw5qqg9qyyo2" data-item-class="Icon Stroke" data-item-index="none" data-renderer-id="0" transform="translate(129, 15)"><g id="requ_1cw5qqg9qyyo2-stroke" fill="none" stroke-linecap="round" stroke-linejoin="round" stroke-miterlimit="4" stroke="#4682e3" stroke-width="2"><g><path d="M 31.707499 35.541252C 31.706907 37.658989 33.423508 39.376068 35.541248 39.376068C 37.658989 39.376068 39.375587 37.658989 39.374996 35.541248C 39.375587 33.423508 37.658989 31.706429 35.541248 31.706429C 33.423508 31.706429 31.706907 33.423508 31.707499 35.541248M 35.541252 31.708752L 35.541252 20.8475C 35.541252 17.319092 32.680908 14.45875 29.1525 14.45875L 24.04125 14.45875M 27.875 10.625L 24.04125 14.45875L 27.875 18.29125M 10.625 14.45875C 10.624409 16.576488 12.34101 18.29357 14.45875 18.29357C 16.576488 18.29357 18.293091 16.576488 18.2925 14.45875C 18.293091 12.34101 16.576488 10.623929 14.45875 10.623929C 12.34101 10.623929 10.624409 12.34101 10.625 14.45875M 14.45875 18.29125L 14.45875 29.1525C 14.45875 32.680908 17.319092 35.541252 20.8475 35.541252L 25.95875 35.541252M 22.125 39.375L 25.95875 35.541252L 22.125 31.708752"></path></g></g></g><g id="g-root-bino_zn6ye09regax-stroke" data-item-order="1000000000" data-item-id="bino_zn6ye09regax" data-item-class="Icon Stroke" data-item-index="none" data-renderer-id="0" transform="translate(435, 135)"><g id="bino_zn6ye09regax-stroke" fill="none" stroke-linecap="round" stroke-linejoin="round" stroke-miterlimit="4" stroke="#dd8433" stroke-width="2"><g><path d="M 10.625 33.75C 10.625 36.856602 13.143398 39.375 16.25 39.375C 19.356602 39.375 21.875 36.856602 21.875 33.75C 21.875 30.643398 19.356602 28.125 16.25 28.125C 13.143398 28.125 10.625 30.643398 10.625 33.75M 28.125 33.75C 28.125 36.856602 30.643398 39.375 33.75 39.375C 36.856602 39.375 39.375 36.856602 39.375 33.75C 39.375 30.643398 36.856602 28.125 33.75 28.125C 30.643398 28.125 28.125 30.643398 28.125 33.75M 11.8625 30.23L 17.20875 23.574999C 18.177599 22.569901 19.659662 22.253698 20.954359 22.775864C 22.249054 23.298031 23.097054 24.553972 23.0975 25.950001L 22.858749 27.553751M 38.133751 30.23L 32.787498 23.574999C 31.818653 22.569901 30.336588 22.253698 29.041893 22.775864C 27.747196 23.298031 26.899199 24.553972 26.89875 25.950001L 27.137501 27.553751M 21.875 35C 22.643112 34.088379 23.815077 33.619595 25 33.75C 26.184923 33.619595 27.356888 34.088379 28.125 35M 23.125 26C 23.585867 25.453028 24.289045 25.171755 24.999998 25.249998C 25.710953 25.171755 26.414131 25.453028 26.874998 26M 34.263748 10.625C 34.969296 10.625 35.541248 11.196957 35.541248 11.9025L 35.541252 17.6525C 35.54158 17.991415 35.407097 18.316545 35.167446 18.556196C 34.927795 18.795845 34.602665 18.930332 34.263752 18.93L 28.83375 18.93L 25 21.805L 25 18.93L 18.29125 18.93C 17.585707 18.93 17.01375 18.358044 17.01375 17.6525L 17.01375 11.9025C 17.014439 11.197242 17.585993 10.625689 18.29125 10.625ZM 20.846251 14.7775C 20.846251 14.954231 20.989519 15.0975 21.16625 15.0975C 21.342981 15.0975 21.48625 14.954231 21.48625 14.7775C 21.48625 14.600769 21.342981 14.4575 21.16625 14.4575C 20.989519 14.4575 20.846251 14.600769 20.846251 14.7775M 25.9575 14.7775C 25.9575 14.954231 26.100771 15.0975 26.2775 15.0975C 26.454231 15.0975 26.597502 14.954231 26.597502 14.7775C 26.597502 14.600769 26.454231 14.4575 26.2775 14.4575C 26.100771 14.4575 25.9575 14.600769 25.9575 14.7775M 31.068748 14.7775C 31.068752 14.954231 31.212021 15.0975 31.38875 15.0975C 31.565483 15.0975 31.708752 14.954231 31.708752 14.7775C 31.708752 14.600769 31.565483 14.4575 31.38875 14.4575C 31.212021 14.4575 31.068752 14.600769 31.068752 14.7775"></path></g></g></g><g id="g-root-bino_zn6ye09regax-stroke" data-item-order="1000000000" data-item-id="bino_zn6ye09regax" data-item-class="Icon Stroke" data-item-index="none" data-renderer-id="0" transform="translate(435, 135)"><g id="bino_zn6ye09regax-stroke" fill="none" stroke-linecap="round" stroke-linejoin="round" stroke-miterlimit="4" stroke="#dd8433" stroke-width="2"><g><path d="M 10.625 33.75C 10.625 36.856602 13.143398 39.375 16.25 39.375C 19.356602 39.375 21.875 36.856602 21.875 33.75C 21.875 30.643398 19.356602 28.125 16.25 28.125C 13.143398 28.125 10.625 30.643398 10.625 33.75M 28.125 33.75C 28.125 36.856602 30.643398 39.375 33.75 39.375C 36.856602 39.375 39.375 36.856602 39.375 33.75C 39.375 30.643398 36.856602 28.125 33.75 28.125C 30.643398 28.125 28.125 30.643398 28.125 33.75M 11.8625 30.23L 17.20875 23.574999C 18.177599 22.569901 19.659662 22.253698 20.954359 22.775864C 22.249054 23.298031 23.097054 24.553972 23.0975 25.950001L 22.858749 27.553751M 38.133751 30.23L 32.787498 23.574999C 31.818653 22.569901 30.336588 22.253698 29.041893 22.775864C 27.747196 23.298031 26.899199 24.553972 26.89875 25.950001L 27.137501 27.553751M 21.875 35C 22.643112 34.088379 23.815077 33.619595 25 33.75C 26.184923 33.619595 27.356888 34.088379 28.125 35M 23.125 26C 23.585867 25.453028 24.289045 25.171755 24.999998 25.249998C 25.710953 25.171755 26.414131 25.453028 26.874998 26M 34.263748 10.625C 34.969296 10.625 35.541248 11.196957 35.541248 11.9025L 35.541252 17.6525C 35.54158 17.991415 35.407097 18.316545 35.167446 18.556196C 34.927795 18.795845 34.602665 18.930332 34.263752 18.93L 28.83375 18.93L 25 21.805L 25 18.93L 18.29125 18.93C 17.585707 18.93 17.01375 18.358044 17.01375 17.6525L 17.01375 11.9025C 17.014439 11.197242 17.585993 10.625689 18.29125 10.625ZM 20.846251 14.7775C 20.846251 14.954231 20.989519 15.0975 21.16625 15.0975C 21.342981 15.0975 21.48625 14.954231 21.48625 14.7775C 21.48625 14.600769 21.342981 14.4575 21.16625 14.4575C 20.989519 14.4575 20.846251 14.600769 20.846251 14.7775M 25.9575 14.7775C 25.9575 14.954231 26.100771 15.0975 26.2775 15.0975C 26.454231 15.0975 26.597502 14.954231 26.597502 14.7775C 26.597502 14.600769 26.454231 14.4575 26.2775 14.4575C 26.100771 14.4575 25.9575 14.600769 25.9575 14.7775M 31.068748 14.7775C 31.068752 14.954231 31.212021 15.0975 31.38875 15.0975C 31.565483 15.0975 31.708752 14.954231 31.708752 14.7775C 31.708752 14.600769 31.565483 14.4575 31.38875 14.4575C 31.212021 14.4575 31.068752 14.600769 31.068752 14.7775"></path></g></g></g><g id="g-root-bino_zn6ye09regax-stroke" data-item-order="1000000000" data-item-id="bino_zn6ye09regax" data-item-class="Icon Stroke" data-item-index="none" data-renderer-id="0" transform="translate(435, 135)"><g id="bino_zn6ye09regax-stroke" fill="none" stroke-linecap="round" stroke-linejoin="round" stroke-miterlimit="4" stroke="#dd8433" stroke-width="2"><g><path d="M 10.625 33.75C 10.625 36.856602 13.143398 39.375 16.25 39.375C 19.356602 39.375 21.875 36.856602 21.875 33.75C 21.875 30.643398 19.356602 28.125 16.25 28.125C 13.143398 28.125 10.625 30.643398 10.625 33.75M 28.125 33.75C 28.125 36.856602 30.643398 39.375 33.75 39.375C 36.856602 39.375 39.375 36.856602 39.375 33.75C 39.375 30.643398 36.856602 28.125 33.75 28.125C 30.643398 28.125 28.125 30.643398 28.125 33.75M 11.8625 30.23L 17.20875 23.574999C 18.177599 22.569901 19.659662 22.253698 20.954359 22.775864C 22.249054 23.298031 23.097054 24.553972 23.0975 25.950001L 22.858749 27.553751M 38.133751 30.23L 32.787498 23.574999C 31.818653 22.569901 30.336588 22.253698 29.041893 22.775864C 27.747196 23.298031 26.899199 24.553972 26.89875 25.950001L 27.137501 27.553751M 21.875 35C 22.643112 34.088379 23.815077 33.619595 25 33.75C 26.184923 33.619595 27.356888 34.088379 28.125 35M 23.125 26C 23.585867 25.453028 24.289045 25.171755 24.999998 25.249998C 25.710953 25.171755 26.414131 25.453028 26.874998 26M 34.263748 10.625C 34.969296 10.625 35.541248 11.196957 35.541248 11.9025L 35.541252 17.6525C 35.54158 17.991415 35.407097 18.316545 35.167446 18.556196C 34.927795 18.795845 34.602665 18.930332 34.263752 18.93L 28.83375 18.93L 25 21.805L 25 18.93L 18.29125 18.93C 17.585707 18.93 17.01375 18.358044 17.01375 17.6525L 17.01375 11.9025C 17.014439 11.197242 17.585993 10.625689 18.29125 10.625ZM 20.846251 14.7775C 20.846251 14.954231 20.989519 15.0975 21.16625 15.0975C 21.342981 15.0975 21.48625 14.954231 21.48625 14.7775C 21.48625 14.600769 21.342981 14.4575 21.16625 14.4575C 20.989519 14.4575 20.846251 14.600769 20.846251 14.7775M 25.9575 14.7775C 25.9575 14.954231 26.100771 15.0975 26.2775 15.0975C 26.454231 15.0975 26.597502 14.954231 26.597502 14.7775C 26.597502 14.600769 26.454231 14.4575 26.2775 14.4575C 26.100771 14.4575 25.9575 14.600769 25.9575 14.7775M 31.068748 14.7775C 31.068752 14.954231 31.212021 15.0975 31.38875 15.0975C 31.565483 15.0975 31.708752 14.954231 31.708752 14.7775C 31.708752 14.600769 31.565483 14.4575 31.38875 14.4575C 31.212021 14.4575 31.068752 14.600769 31.068752 14.7775"></path></g></g></g><g id="g-root-tx__1d1rxco9rftoh-stroke" data-item-order="1000000000" data-item-id="tx__1d1rxco9rftoh" data-item-class="Label Stroke" data-item-index="none" data-renderer-id="0" transform="translate(261, 215.9998779296875)"></g><g id="g-root-tx__1ltnzx49reh34-stroke" data-item-order="1000000000" data-item-id="tx__1ltnzx49reh34" data-item-class="Label Stroke" data-item-index="none" data-renderer-id="0" transform="translate(471, 138)"></g><g id="g-root-tx__1ltnzx49reh34-stroke" data-item-order="1000000000" data-item-id="tx__1ltnzx49reh34" data-item-class="Label Stroke" data-item-index="none" data-renderer-id="0" transform="translate(471, 138)"></g><g id="g-root-tx__1ltnzx49reh34-stroke" data-item-order="1000000000" data-item-id="tx__1ltnzx49reh34" data-item-class="Label Stroke" data-item-index="none" data-renderer-id="0" transform="translate(471, 138)"></g><g id="g-root-cu_zk2ra09r38ck-stroke" data-item-order="1000000000" data-item-id="cu_zk2ra09r38ck" data-item-class="Curve Stroke ColorStrokeGray" data-item-index="none" data-renderer-id="0" transform="translate(297, 165)"><g id="cu_zk2ra09r38ck-stroke" fill="none" stroke-linecap="round" stroke-linejoin="round" stroke-miterlimit="4" stroke="#888888" stroke-width="2" stroke-dasharray="5.0, 7.0"><g><path d="M 10 10L 10 28L 10 46"></path></g></g></g><g id="g-root-cu_zk2ra09r38ck-stroke" data-item-order="1000000000" data-item-id="cu_zk2ra09r38ck" data-item-class="Curve Stroke ColorStrokeGray" data-item-index="none" data-renderer-id="0" transform="translate(297, 165)"><g id="cu_zk2ra09r38ck-stroke" fill="none" stroke-linecap="round" stroke-linejoin="round" stroke-miterlimit="4" stroke="#888888" stroke-width="2" stroke-dasharray="5.0, 7.0"><g><path d="M 10 10L 10 28L 10 46"></path></g></g></g><g id="g-root-cu_zk2ra09r38ck-stroke" data-item-order="1000000000" data-item-id="cu_zk2ra09r38ck" data-item-class="Curve Stroke ColorStrokeGray" data-item-index="none" data-renderer-id="0" transform="translate(297, 165)"><g id="cu_zk2ra09r38ck-stroke" fill="none" stroke-linecap="round" stroke-linejoin="round" stroke-miterlimit="4" stroke="#888888" stroke-width="2" stroke-dasharray="5.0, 7.0"><g><path d="M 10 10L 10 28L 10 46"></path></g></g></g><g id="g-root-cu_zk2ra09r38ck-stroke" data-item-order="1000000000" data-item-id="cu_zk2ra09r38ck" data-item-class="Curve Stroke ColorStrokeGray" data-item-index="none" data-renderer-id="0" transform="translate(297, 165)"><g id="cu_zk2ra09r38ck-stroke" fill="none" stroke-linecap="round" stroke-linejoin="round" stroke-miterlimit="4" stroke="#888888" stroke-width="2" stroke-dasharray="5.0, 7.0"><g><path d="M 10 10L 10 28L 10 46"></path></g></g></g><g id="g-root-cu_zk2ra09r38ck-stroke" data-item-order="1000000000" data-item-id="cu_zk2ra09r38ck" data-item-class="Curve Stroke ColorStrokeGray" data-item-index="none" data-renderer-id="0" transform="translate(297, 165)"><g id="cu_zk2ra09r38ck-stroke" fill="none" stroke-linecap="round" stroke-linejoin="round" stroke-miterlimit="4" stroke="#888888" stroke-width="2" stroke-dasharray="5.0, 7.0"><g><path d="M 10 10L 10 28L 10 46"></path></g></g></g><g id="g-root-cu_zk2ra09r38ck-stroke" data-item-order="1000000000" data-item-id="cu_zk2ra09r38ck" data-item-class="Curve Stroke ColorStrokeGray" data-item-index="none" data-renderer-id="0" transform="translate(297, 165)"><g id="cu_zk2ra09r38ck-stroke" fill="none" stroke-linecap="round" stroke-linejoin="round" stroke-miterlimit="4" stroke="#888888" stroke-width="2" stroke-dasharray="5.0, 7.0"><g><path d="M 10 10L 10 28L 10 46"></path></g></g></g><g id="g-root-cu_zk2ra09r38ck-stroke" data-item-order="1000000000" data-item-id="cu_zk2ra09r38ck" data-item-class="Curve Stroke ColorStrokeGray" data-item-index="none" data-renderer-id="0" transform="translate(297, 165)"><g id="cu_zk2ra09r38ck-stroke" fill="none" stroke-linecap="round" stroke-linejoin="round" stroke-miterlimit="4" stroke="#888888" stroke-width="2" stroke-dasharray="5.0, 7.0"><g><path d="M 10 10L 10 28L 10 46"></path></g></g></g><g id="g-root-requ_1cw5qqg9qyyo2-stroke" data-item-order="1000000000" data-item-id="requ_1cw5qqg9qyyo2" data-item-class="Icon Stroke" data-item-index="none" data-renderer-id="0" transform="translate(129, 15)"><g id="requ_1cw5qqg9qyyo2-stroke" fill="none" stroke-linecap="round" stroke-linejoin="round" stroke-miterlimit="4" stroke="#4682e3" stroke-width="2"><g><path d="M 31.707499 35.541252C 31.706907 37.658989 33.423508 39.376068 35.541248 39.376068C 37.658989 39.376068 39.375587 37.658989 39.374996 35.541248C 39.375587 33.423508 37.658989 31.706429 35.541248 31.706429C 33.423508 31.706429 31.706907 33.423508 31.707499 35.541248M 35.541252 31.708752L 35.541252 20.8475C 35.541252 17.319092 32.680908 14.45875 29.1525 14.45875L 24.04125 14.45875M 27.875 10.625L 24.04125 14.45875L 27.875 18.29125M 10.625 14.45875C 10.624409 16.576488 12.34101 18.29357 14.45875 18.29357C 16.576488 18.29357 18.293091 16.576488 18.2925 14.45875C 18.293091 12.34101 16.576488 10.623929 14.45875 10.623929C 12.34101 10.623929 10.624409 12.34101 10.625 14.45875M 14.45875 18.29125L 14.45875 29.1525C 14.45875 32.680908 17.319092 35.541252 20.8475 35.541252L 25.95875 35.541252M 22.125 39.375L 25.95875 35.541252L 22.125 31.708752"></path></g></g></g><g id="g-root-tx__4hc8ew9qyyv5-stroke" data-item-order="1000000000" data-item-id="tx__4hc8ew9qyyv5" data-item-class="Label Stroke" data-item-index="none" data-renderer-id="0" transform="translate(15, 18)"></g><g id="g-root-tx__4hc8ew9qyyv5-stroke" data-item-order="1000000000" data-item-id="tx__4hc8ew9qyyv5" data-item-class="Label Stroke" data-item-index="none" data-renderer-id="0" transform="translate(15, 18)"></g><g id="g-root-shar_940vbs9rfv9e-stroke" data-item-order="1000000000" data-item-id="shar_940vbs9rfv9e" data-item-class="Icon Stroke" data-item-index="none" data-renderer-id="0" transform="translate(225, 213)"><g id="shar_940vbs9rfv9e-stroke" fill="none" stroke-linecap="round" stroke-linejoin="round" stroke-miterlimit="4" stroke="#17b0e3" stroke-width="2"><g><path d="M 11.071428 25C 11.071428 27.6628 13.230056 29.821428 15.892857 29.821428C 18.555658 29.821428 20.714285 27.6628 20.714285 25C 20.714285 22.337198 18.555658 20.178572 15.892857 20.178572C 13.230056 20.178572 11.071428 22.337198 11.071428 25M 29.285713 34.107143C 29.285713 36.769943 31.444342 38.92857 34.107143 38.92857C 36.769943 38.92857 38.92857 36.769943 38.92857 34.107143C 38.92857 31.444342 36.769943 29.285713 34.107143 29.285713C 31.444342 29.285713 29.285713 31.444342 29.285713 34.107143M 29.285713 15.892857C 29.285713 18.555658 31.444342 20.714285 34.107143 20.714285C 36.769943 20.714285 38.92857 18.555658 38.92857 15.892857C 38.92857 13.230056 36.769943 11.071428 34.107143 11.071428C 31.444342 11.071428 29.285713 13.230056 29.285713 15.892857M 20.200001 22.857143L 29.799999 18.035713M 20.200001 27.142857L 29.799999 31.964285"></path></g></g></g><g id="g-root-shar_940vbs9rfv9e-stroke" data-item-order="1000000000" data-item-id="shar_940vbs9rfv9e" data-item-class="Icon Stroke" data-item-index="none" data-renderer-id="0" transform="translate(225, 213)"><g id="shar_940vbs9rfv9e-stroke" fill="none" stroke-linecap="round" stroke-linejoin="round" stroke-miterlimit="4" stroke="#17b0e3" stroke-width="2"><g><path d="M 11.071428 25C 11.071428 27.6628 13.230056 29.821428 15.892857 29.821428C 18.555658 29.821428 20.714285 27.6628 20.714285 25C 20.714285 22.337198 18.555658 20.178572 15.892857 20.178572C 13.230056 20.178572 11.071428 22.337198 11.071428 25M 29.285713 34.107143C 29.285713 36.769943 31.444342 38.92857 34.107143 38.92857C 36.769943 38.92857 38.92857 36.769943 38.92857 34.107143C 38.92857 31.444342 36.769943 29.285713 34.107143 29.285713C 31.444342 29.285713 29.285713 31.444342 29.285713 34.107143M 29.285713 15.892857C 29.285713 18.555658 31.444342 20.714285 34.107143 20.714285C 36.769943 20.714285 38.92857 18.555658 38.92857 15.892857C 38.92857 13.230056 36.769943 11.071428 34.107143 11.071428C 31.444342 11.071428 29.285713 13.230056 29.285713 15.892857M 20.200001 22.857143L 29.799999 18.035713M 20.200001 27.142857L 29.799999 31.964285"></path></g></g></g><g id="g-root-shar_940vbs9rfv9e-stroke" data-item-order="1000000000" data-item-id="shar_940vbs9rfv9e" data-item-class="Icon Stroke" data-item-index="none" data-renderer-id="0" transform="translate(225, 213)"><g id="shar_940vbs9rfv9e-stroke" fill="none" stroke-linecap="round" stroke-linejoin="round" stroke-miterlimit="4" stroke="#17b0e3" stroke-width="2"><g><path d="M 11.071428 25C 11.071428 27.6628 13.230056 29.821428 15.892857 29.821428C 18.555658 29.821428 20.714285 27.6628 20.714285 25C 20.714285 22.337198 18.555658 20.178572 15.892857 20.178572C 13.230056 20.178572 11.071428 22.337198 11.071428 25M 29.285713 34.107143C 29.285713 36.769943 31.444342 38.92857 34.107143 38.92857C 36.769943 38.92857 38.92857 36.769943 38.92857 34.107143C 38.92857 31.444342 36.769943 29.285713 34.107143 29.285713C 31.444342 29.285713 29.285713 31.444342 29.285713 34.107143M 29.285713 15.892857C 29.285713 18.555658 31.444342 20.714285 34.107143 20.714285C 36.769943 20.714285 38.92857 18.555658 38.92857 15.892857C 38.92857 13.230056 36.769943 11.071428 34.107143 11.071428C 31.444342 11.071428 29.285713 13.230056 29.285713 15.892857M 20.200001 22.857143L 29.799999 18.035713M 20.200001 27.142857L 29.799999 31.964285"></path></g></g></g><g id="g-root-tx__1d1rxco9rftoh-stroke" data-item-order="1000000000" data-item-id="tx__1d1rxco9rftoh" data-item-class="Label Stroke" data-item-index="none" data-renderer-id="0" transform="translate(261, 215.9998779296875)"></g><g id="g-root-tx__1d1rxco9rftoh-stroke" data-item-order="1000000000" data-item-id="tx__1d1rxco9rftoh" data-item-class="Label Stroke" data-item-index="none" data-renderer-id="0" transform="translate(261, 215.9998779296875)"></g><g id="g-root-tx__4hc8ew9qyyv5-stroke" data-item-order="1000000000" data-item-id="tx__4hc8ew9qyyv5" data-item-class="Label Stroke" data-item-index="none" data-renderer-id="0" transform="translate(15, 18)"></g></g></g></svg>