<?xml version="1.0" encoding="utf-8" standalone="yes"?>
<!DOCTYPE svg PUBLIC "-//W3C//DTD SVG 1.1//EN" "http://www.w3.org/Graphics/SVG/1.1/DTD/svg11.dtd">
<svg width="552" height="492" viewBox="0 0 552 492" style="fill:none;stroke:none;fill-rule:evenodd;clip-rule:evenodd;stroke-linecap:round;stroke-linejoin:round;stroke-miterlimit:1.5;" version="1.1" xmlns="http://www.w3.org/2000/svg" xmlns:xlink="http://www.w3.org/1999/xlink"><style id="fontImports">@import url("https://fonts.googleapis.com/css2?family=Shantell+Sans:wght@300..800&amp;display=block");</style><g id="items" style="isolation: isolate"><g id="blend" style="mix-blend-mode:normal"><g id="g-root-0.cr-big_cr_141qjmu8x3099-fill" data-item-order="999886371" data-item-id="0.cr-big_cr_141qjmu8x3099" data-item-class="Shape Stroke Fill Part Indexed_0 ColorFillGray ColorStrokeBlack" data-item-index="0" data-renderer-id="0" transform="translate(206, 206)"><g id="0.cr-big_cr_141qjmu8x3099-fill" stroke="none" fill="#eaeaea"><g><path d="M 10 70C 10.000003 103.137088 36.862918 130.000003 70.000003 130.000003C 103.137088 130.000003 130.000003 103.137088 130.000003 70.000003C 130.000003 36.862918 103.137088 10.000003 70.000003 10.000003C 36.862918 10.000003 10.000003 36.862918 10.000003 70.000003"></path></g></g></g><g id="g-root-0.cr-big_cr_141qjmu8x3099-fill" data-item-order="999886371" data-item-id="0.cr-big_cr_141qjmu8x3099" data-item-class="Shape Stroke Fill Part Indexed_0 ColorFillGray ColorStrokeBlack" data-item-index="0" data-renderer-id="0" transform="translate(206, 206)"><g id="0.cr-big_cr_141qjmu8x3099-fill" stroke="none" fill="#eaeaea"><g><path d="M 10 70C 10.000003 103.137088 36.862918 130.000003 70.000003 130.000003C 103.137088 130.000003 130.000003 103.137088 130.000003 70.000003C 130.000003 36.862918 103.137088 10.000003 70.000003 10.000003C 36.862918 10.000003 10.000003 36.862918 10.000003 70.000003"></path></g></g></g><g id="g-root-5.cu_sy_13zv4di8x4feq-fill" data-item-order="999886373" data-item-id="5.cu_sy_13zv4di8x4feq" data-item-class="Part Indexed Fill Stroke" data-item-index="5" data-renderer-id="0" transform="translate(129.0557861328125, 91.4403076171875)"><g id="5.cu_sy_13zv4di8x4feq-fill" stroke="none" fill="#ffd0ce"><g><path d="M 89.8887 165.994L 10 140.037C 31.4915 73.9212 84.472 26.839 146.941 10L 146.931 124.543C 121.647 124.544 98.1342 140.653 89.8887 165.994Z"></path></g></g></g><g id="g-root-5.cu_sy_13zv4di8x4feq-fill" data-item-order="999886373" data-item-id="5.cu_sy_13zv4di8x4feq" data-item-class="Part Indexed Fill Stroke" data-item-index="5" data-renderer-id="0" transform="translate(129.0557861328125, 91.4403076171875)"><g id="5.cu_sy_13zv4di8x4feq-fill" stroke="none" fill="#ffd0ce"><g><path d="M 89.8887 165.994L 10 140.037C 31.4915 73.9212 84.472 26.839 146.941 10L 146.931 124.543C 121.647 124.544 98.1342 140.653 89.8887 165.994Z"></path></g></g></g><g id="g-root-4.cu_sy_94majq8x30g9-fill" data-item-order="999886375" data-item-id="4.cu_sy_94majq8x30g9" data-item-class="Part Indexed Fill Stroke" data-item-index="4" data-renderer-id="0" transform="translate(96.69378662109375, 212.061279296875)"><g id="4.cu_sy_94majq8x30g9-fill" stroke="none" fill="#fdd0eb"><g><path d="M 144.018501 112.465L 94.644301 180.422C 38.405901 139.552 10.000001 74.6149 13.289001 10L 122.223501 45.4053C 114.410501 69.4515 122.465501 96.7919 144.018501 112.465Z"></path></g></g></g><g id="g-root-4.cu_sy_94majq8x30g9-fill" data-item-order="999886375" data-item-id="4.cu_sy_94majq8x30g9" data-item-class="Part Indexed Fill Stroke" data-item-index="4" data-renderer-id="0" transform="translate(96.69378662109375, 212.061279296875)"><g id="4.cu_sy_94majq8x30g9-fill" stroke="none" fill="#fdd0eb"><g><path d="M 144.018501 112.465L 94.644301 180.422C 38.405901 139.552 10.000001 74.6149 13.289001 10L 122.223501 45.4053C 114.410501 69.4515 122.465501 96.7919 144.018501 112.465Z"></path></g></g></g><g id="g-root-3.cu_sy_hydvja8x30nc-fill" data-item-order="999886377" data-item-id="3.cu_sy_hydvja8x30nc" data-item-class="Part Indexed Fill Stroke" data-item-index="3" data-renderer-id="0" transform="translate(163.39907836914062, 314.55615234375)"><g id="3.cu_sy_hydvja8x30nc-fill" stroke="none" fill="#d8ceff"><g><path d="M 147.847 10L 197.221 77.9574C 140.972 118.814 70.436 125.763 10 102.6675L 77.335 10.0058C 97.7901 24.8667 126.281 25.6547 147.847 10Z"></path></g></g></g><g id="g-root-3.cu_sy_hydvja8x30nc-fill" data-item-order="999886377" data-item-id="3.cu_sy_hydvja8x30nc" data-item-class="Part Indexed Fill Stroke" data-item-index="3" data-renderer-id="0" transform="translate(163.39907836914062, 314.55615234375)"><g id="3.cu_sy_hydvja8x30nc-fill" stroke="none" fill="#d8ceff"><g><path d="M 147.847 10L 197.221 77.9574C 140.972 118.814 70.436 125.763 10 102.6675L 77.335 10.0058C 97.7901 24.8667 126.281 25.6547 147.847 10Z"></path></g></g></g><g id="g-root-2.cu_sy_4loezq8x3027-fill" data-item-order="999886379" data-item-id="2.cu_sy_4loezq8x3027" data-item-class="Part Indexed Fill Stroke" data-item-index="2" data-renderer-id="0" transform="translate(301.287353515625, 221.5260009765625)"><g id="2.cu_sy_4loezq8x3027-fill" stroke="none" fill="#cef3ff"><g><path d="M 31.784 35.9574L 111.673 10C 133.147 76.121 117.96 145.352 77.3189 195.694L 10 103.0203C 30.4546 88.1587 40.0083 61.3053 31.784 35.9574Z"></path></g></g></g><g id="g-root-2.cu_sy_4loezq8x3027-fill" data-item-order="999886379" data-item-id="2.cu_sy_4loezq8x3027" data-item-class="Part Indexed Fill Stroke" data-item-index="2" data-renderer-id="0" transform="translate(301.287353515625, 221.5260009765625)"><g id="2.cu_sy_4loezq8x3027-fill" stroke="none" fill="#cef3ff"><g><path d="M 31.784 35.9574L 111.673 10C 133.147 76.121 117.96 145.352 77.3189 195.694L 10 103.0203C 30.4546 88.1587 40.0083 61.3053 31.784 35.9574Z"></path></g></g></g><g id="g-root-1.cu_sy_1upwijq8x2z9i-fill" data-item-order="999886381" data-item-id="1.cu_sy_1upwijq8x2z9i" data-item-class="Part Indexed Indexed_1 Fill Stroke" data-item-index="1" data-renderer-id="0" transform="translate(266.02569580078125, 122)"><g id="1.cu_sy_1upwijq8x2z9i-fill" stroke="none" fill="#d5f7e8"><g><path d="M 10 93.9999L 10 10C 79.5208 10.0088 140.671 45.8471 175.989 100.0549L 67.049 135.441C 59.2355 111.395 36.6487 94.0111 10 93.9999Z"></path></g></g></g><g id="g-root-1.cu_sy_1upwijq8x2z9i-fill" data-item-order="999886381" data-item-id="1.cu_sy_1upwijq8x2z9i" data-item-class="Part Indexed Indexed_1 Fill Stroke" data-item-index="1" data-renderer-id="0" transform="translate(266.02569580078125, 122)"><g id="1.cu_sy_1upwijq8x2z9i-fill" stroke="none" fill="#d5f7e8"><g><path d="M 10 93.9999L 10 10C 79.5208 10.0088 140.671 45.8471 175.989 100.0549L 67.049 135.441C 59.2355 111.395 36.6487 94.0111 10 93.9999Z"></path></g></g></g><g id="g-root-1_zkoj528x2z9e-fill" data-item-order="1000000000" data-item-id="1_zkoj528x2z9e" data-item-class="Icon Stroke Indexed Indexed_1 InsideFill InsideColorFill" data-item-index="1" data-renderer-id="0" transform="translate(301.974853515625, 159.495361328125)"></g><g id="g-root-home_13ymm068x2zgu-fill" data-item-order="1000000000" data-item-id="home_13ymm068x2zgu" data-item-class="Icon Stroke Indexed Indexed_0 InsideFill InsideGrayFill ColorFillGray ColorStrokeBlack" data-item-index="0" data-renderer-id="0" transform="translate(230, 229.99609375)"></g><g id="g-root-tx__dcbmjq8x2zuq-fill" data-item-order="1000000000" data-item-id="tx__dcbmjq8x2zuq" data-item-class="Label Stroke Indexed ColorStrokeBlack" data-item-index="3" data-renderer-id="0" transform="translate(224, 446)"><g id="tx__dcbmjq8x2zuq-fill" stroke="none" fill="#484848"><g><text style="font: 20px &quot;Shantell Sans&quot;, cursive; white-space: pre;" font-weight="20px" font-size="&quot;Shantell" font-family="Sans', cursive"><tspan x="12" y="35.6" dominant-baseline="ideographic">最佳實務</tspan></text></g></g></g><g id="g-root-tx__v4ul7q8x2zno-fill" data-item-order="1000000000" data-item-id="tx__v4ul7q8x2zno" data-item-class="Label Stroke Indexed Indexed_1 ColorStrokeBlack" data-item-index="1" data-renderer-id="0" transform="translate(374, 98)"><g id="tx__v4ul7q8x2zno-fill" stroke="none" fill="#484848"><g><text style="font: 20px &quot;Shantell Sans&quot;, cursive; white-space: pre;" font-weight="20px" font-size="&quot;Shantell" font-family="Sans', cursive"><tspan x="12" y="35.6" dominant-baseline="ideographic">可重複使用性</tspan></text></g></g></g><g id="g-root-sync_qn63mu8x311r-fill" data-item-order="1000000000" data-item-id="sync_qn63mu8x311r" data-item-class="Icon Stroke Indexed InsideFill InsideColorFill" data-item-index="4" data-renderer-id="0" transform="translate(144.98431396484375, 273.495361328125)"></g><g id="g-root-chat_v7zeg68x30g3-fill" data-item-order="1000000000" data-item-id="chat_v7zeg68x30g3" data-item-class="Icon Stroke Indexed InsideFill InsideColorFill" data-item-index="2" data-renderer-id="0" transform="translate(338.9998779296875, 273.544189453125)"></g><g id="g-root-tx__13ym67a8x2zup-fill" data-item-order="1000000000" data-item-id="tx__13ym67a8x2zup" data-item-class="Label Stroke Indexed ColorStrokeBlack" data-item-index="4" data-renderer-id="0" transform="translate(2, 290)"><g id="tx__13ym67a8x2zup-fill" stroke="none" fill="#484848"><g><text style="font: 20px &quot;Shantell Sans&quot;, cursive; white-space: pre;" font-weight="20px" font-size="&quot;Shantell" font-family="Sans', cursive"><tspan x="12" y="35.6" dominant-baseline="ideographic">可維護性</tspan></text></g></g></g><g id="g-root-tx__1q6c5wm8x3217-fill" data-item-order="1000000000" data-item-id="tx__1q6c5wm8x3217" data-item-class="Label Stroke Indexed ColorStrokeBlack" data-item-index="2" data-renderer-id="0" transform="translate(446, 290)"><g id="tx__1q6c5wm8x3217-fill" stroke="none" fill="#484848"><g><text style="font: 20px &quot;Shantell Sans&quot;, cursive; white-space: pre;" font-weight="20px" font-size="&quot;Shantell" font-family="Sans', cursive"><tspan x="12" y="35.6" dominant-baseline="ideographic">改進溝通</tspan></text></g></g></g><g id="g-root-tx__1uuwb8m8x1la8-fill" data-item-order="1000000000" data-item-id="tx__1uuwb8m8x1la8" data-item-class="Label Stroke Indexed ColorStrokeBlack" data-item-index="5" data-renderer-id="0" transform="translate(14, 98)"><g id="tx__1uuwb8m8x1la8-fill" stroke="none" fill="#484848"><g><text style="font: 20px &quot;Shantell Sans&quot;, cursive; white-space: pre;" font-weight="20px" font-size="&quot;Shantell" font-family="Sans', cursive"><tspan x="12" y="35.6" dominant-baseline="ideographic">更容易解決問題</tspan></text></g></g></g><g id="g-root-acco_8wik868x3094-fill" data-item-order="1000000000" data-item-id="acco_8wik868x3094" data-item-class="Icon Stroke Indexed InsideFill InsideColorFill" data-item-index="3" data-renderer-id="0" transform="translate(241.97430419921875, 344)"></g><g id="g-root-tx__dkfso68x1m9z-fill" data-item-order="1000000000" data-item-id="tx__dkfso68x1m9z" data-item-class="Label Stroke Title ColorStrokeBlack" data-item-index="none" data-renderer-id="0" transform="translate(194, 2)"><g id="tx__dkfso68x1m9z-fill" stroke="none" fill="#484848"><g><text style="font: 20px &quot;Shantell Sans&quot;, cursive; white-space: pre;" font-weight="20px" font-size="&quot;Shantell" font-family="Sans', cursive"><tspan x="12" y="35.6" dominant-baseline="ideographic">設計模式的好處</tspan></text></g></g></g><g id="g-root-6_1q6z2sm8x2z9d-fill" data-item-order="1000000000" data-item-id="6_1q6z2sm8x2z9d" data-item-class="Icon Stroke Indexed InsideFill InsideColorFill" data-item-index="5" data-renderer-id="0" transform="translate(182.0667724609375, 159.4652099609375)"></g><g id="g-root-0.cr-big_cr_141qjmu8x3099-stroke" data-item-order="999886371" data-item-id="0.cr-big_cr_141qjmu8x3099" data-item-class="Shape Stroke Fill Part Indexed_0 ColorFillGray ColorStrokeBlack" data-item-index="0" data-renderer-id="0" transform="translate(206, 206)"><g id="0.cr-big_cr_141qjmu8x3099-stroke" fill="none" stroke-linecap="round" stroke-linejoin="round" stroke-miterlimit="4" stroke="#ffffff" stroke-width="2"><g><path d="M 10 70C 10.000003 103.137088 36.862918 130.000003 70.000003 130.000003C 103.137088 130.000003 130.000003 103.137088 130.000003 70.000003C 130.000003 36.862918 103.137088 10.000003 70.000003 10.000003C 36.862918 10.000003 10.000003 36.862918 10.000003 70.000003"></path></g></g></g><g id="g-root-0.cr-big_cr_141qjmu8x3099-stroke" data-item-order="999886371" data-item-id="0.cr-big_cr_141qjmu8x3099" data-item-class="Shape Stroke Fill Part Indexed_0 ColorFillGray ColorStrokeBlack" data-item-index="0" data-renderer-id="0" transform="translate(206, 206)"><g id="0.cr-big_cr_141qjmu8x3099-stroke" fill="none" stroke-linecap="round" stroke-linejoin="round" stroke-miterlimit="4" stroke="#ffffff" stroke-width="2"><g><path d="M 10 70C 10.000003 103.137088 36.862918 130.000003 70.000003 130.000003C 103.137088 130.000003 130.000003 103.137088 130.000003 70.000003C 130.000003 36.862918 103.137088 10.000003 70.000003 10.000003C 36.862918 10.000003 10.000003 36.862918 10.000003 70.000003"></path></g></g></g><g id="g-root-5.cu_sy_13zv4di8x4feq-stroke" data-item-order="999886373" data-item-id="5.cu_sy_13zv4di8x4feq" data-item-class="Part Indexed Fill Stroke" data-item-index="5" data-renderer-id="0" transform="translate(129.0557861328125, 91.4403076171875)"><g id="5.cu_sy_13zv4di8x4feq-stroke" fill="none" stroke-linecap="round" stroke-linejoin="round" stroke-miterlimit="4" stroke="#ffffff" stroke-width="2"><g><path d="M 89.8887 165.9942L 10 140.0368C 31.4915 73.9212 84.472 26.839 146.9408 10L 146.9309 124.5434C 121.6473 124.5439 98.1342 140.6532 89.8887 165.9942Z"></path></g></g></g><g id="g-root-5.cu_sy_13zv4di8x4feq-stroke" data-item-order="999886373" data-item-id="5.cu_sy_13zv4di8x4feq" data-item-class="Part Indexed Fill Stroke" data-item-index="5" data-renderer-id="0" transform="translate(129.0557861328125, 91.4403076171875)"><g id="5.cu_sy_13zv4di8x4feq-stroke" fill="none" stroke-linecap="round" stroke-linejoin="round" stroke-miterlimit="4" stroke="#ffffff" stroke-width="2"><g><path d="M 89.8887 165.9942L 10 140.0368C 31.4915 73.9212 84.472 26.839 146.9408 10L 146.9309 124.5434C 121.6473 124.5439 98.1342 140.6532 89.8887 165.9942Z"></path></g></g></g><g id="g-root-4.cu_sy_94majq8x30g9-stroke" data-item-order="999886375" data-item-id="4.cu_sy_94majq8x30g9" data-item-class="Part Indexed Fill Stroke" data-item-index="4" data-renderer-id="0" transform="translate(96.69378662109375, 212.061279296875)"><g id="4.cu_sy_94majq8x30g9-stroke" fill="none" stroke-linecap="round" stroke-linejoin="round" stroke-miterlimit="4" stroke="#ffffff" stroke-width="2"><g><path d="M 144.018201 112.4647L 94.644301 180.422C 38.405901 139.5516 10.000001 74.6149 13.289001 10L 122.223201 45.4053C 114.410601 69.4515 122.465501 96.7919 144.018201 112.4647Z"></path></g></g></g><g id="g-root-4.cu_sy_94majq8x30g9-stroke" data-item-order="999886375" data-item-id="4.cu_sy_94majq8x30g9" data-item-class="Part Indexed Fill Stroke" data-item-index="4" data-renderer-id="0" transform="translate(96.69378662109375, 212.061279296875)"><g id="4.cu_sy_94majq8x30g9-stroke" fill="none" stroke-linecap="round" stroke-linejoin="round" stroke-miterlimit="4" stroke="#ffffff" stroke-width="2"><g><path d="M 144.018201 112.4647L 94.644301 180.422C 38.405901 139.5516 10.000001 74.6149 13.289001 10L 122.223201 45.4053C 114.410601 69.4515 122.465501 96.7919 144.018201 112.4647Z"></path></g></g></g><g id="g-root-3.cu_sy_hydvja8x30nc-stroke" data-item-order="999886377" data-item-id="3.cu_sy_hydvja8x30nc" data-item-class="Part Indexed Fill Stroke" data-item-index="3" data-renderer-id="0" transform="translate(163.39907836914062, 314.55615234375)"><g id="3.cu_sy_hydvja8x30nc-stroke" fill="none" stroke-linecap="round" stroke-linejoin="round" stroke-miterlimit="4" stroke="#ffffff" stroke-width="2"><g><path d="M 147.8472 10L 197.2211 77.9574C 140.9724 118.8135 70.436 125.7627 10 102.6675L 77.335 10.0058C 97.7901 24.8667 126.2814 25.6547 147.8472 10Z"></path></g></g></g><g id="g-root-3.cu_sy_hydvja8x30nc-stroke" data-item-order="999886377" data-item-id="3.cu_sy_hydvja8x30nc" data-item-class="Part Indexed Fill Stroke" data-item-index="3" data-renderer-id="0" transform="translate(163.39907836914062, 314.55615234375)"><g id="3.cu_sy_hydvja8x30nc-stroke" fill="none" stroke-linecap="round" stroke-linejoin="round" stroke-miterlimit="4" stroke="#ffffff" stroke-width="2"><g><path d="M 147.8472 10L 197.2211 77.9574C 140.9724 118.8135 70.436 125.7627 10 102.6675L 77.335 10.0058C 97.7901 24.8667 126.2814 25.6547 147.8472 10Z"></path></g></g></g><g id="g-root-2.cu_sy_4loezq8x3027-stroke" data-item-order="999886379" data-item-id="2.cu_sy_4loezq8x3027" data-item-class="Part Indexed Fill Stroke" data-item-index="2" data-renderer-id="0" transform="translate(301.287353515625, 221.5260009765625)"><g id="2.cu_sy_4loezq8x3027-stroke" fill="none" stroke-linecap="round" stroke-linejoin="round" stroke-miterlimit="4" stroke="#ffffff" stroke-width="2"><g><path d="M 31.784 35.9574L 111.6727 10C 133.1474 76.121 117.9595 145.3525 77.3189 195.6938L 10 103.0203C 30.4546 88.1587 40.0083 61.3053 31.784 35.9574Z"></path></g></g></g><g id="g-root-2.cu_sy_4loezq8x3027-stroke" data-item-order="999886379" data-item-id="2.cu_sy_4loezq8x3027" data-item-class="Part Indexed Fill Stroke" data-item-index="2" data-renderer-id="0" transform="translate(301.287353515625, 221.5260009765625)"><g id="2.cu_sy_4loezq8x3027-stroke" fill="none" stroke-linecap="round" stroke-linejoin="round" stroke-miterlimit="4" stroke="#ffffff" stroke-width="2"><g><path d="M 31.784 35.9574L 111.6727 10C 133.1474 76.121 117.9595 145.3525 77.3189 195.6938L 10 103.0203C 30.4546 88.1587 40.0083 61.3053 31.784 35.9574Z"></path></g></g></g><g id="g-root-1.cu_sy_1upwijq8x2z9i-stroke" data-item-order="999886381" data-item-id="1.cu_sy_1upwijq8x2z9i" data-item-class="Part Indexed Indexed_1 Fill Stroke" data-item-index="1" data-renderer-id="0" transform="translate(266.02569580078125, 122)"><g id="1.cu_sy_1upwijq8x2z9i-stroke" fill="none" stroke-linecap="round" stroke-linejoin="round" stroke-miterlimit="4" stroke="#ffffff" stroke-width="2"><g><path d="M 10 93.9999L 10 10C 79.5208 10.0088 140.6706 45.8471 175.9893 100.0549L 67.049 135.4413C 59.2355 111.3954 36.6487 94.0111 10 93.9999Z"></path></g></g></g><g id="g-root-1.cu_sy_1upwijq8x2z9i-stroke" data-item-order="999886381" data-item-id="1.cu_sy_1upwijq8x2z9i" data-item-class="Part Indexed Indexed_1 Fill Stroke" data-item-index="1" data-renderer-id="0" transform="translate(266.02569580078125, 122)"><g id="1.cu_sy_1upwijq8x2z9i-stroke" fill="none" stroke-linecap="round" stroke-linejoin="round" stroke-miterlimit="4" stroke="#ffffff" stroke-width="2"><g><path d="M 10 93.9999L 10 10C 79.5208 10.0088 140.6706 45.8471 175.9893 100.0549L 67.049 135.4413C 59.2355 111.3954 36.6487 94.0111 10 93.9999Z"></path></g></g></g><g id="g-root-1_zkoj528x2z9e-stroke" data-item-order="1000000000" data-item-id="1_zkoj528x2z9e" data-item-class="Icon Stroke Indexed Indexed_1 InsideFill InsideColorFill" data-item-index="1" data-renderer-id="0" transform="translate(301.974853515625, 159.495361328125)"><g id="1_zkoj528x2z9e-stroke" fill="none" stroke-linecap="round" stroke-linejoin="round" stroke-miterlimit="4" stroke="#3bc482" stroke-width="2"><g><path d="M 24.022858 14.08C 25.258335 15.286715 25.992985 16.915182 26.08 18.639999L 32.354286 12.4C 32.790134 11.91136 33.413795 11.631939 34.068573 11.631939C 34.723347 11.631939 35.347008 11.91136 35.782856 12.4L 40.857143 17.68C 40.13644 18.029476 39.476597 18.492525 38.902859 19.05143C 36.366226 21.841013 36.468044 26.131165 39.134155 28.797272C 41.800262 31.463381 46.090416 31.565199 48.879997 29.02857C 49.438904 28.454834 49.901951 27.794989 50.251427 27.074286L 55.600002 32.354286C 56.088642 32.790134 56.368061 33.413795 56.368061 34.068573C 56.368061 34.723347 56.088642 35.347008 55.600002 35.782856L 49.360001 41.920002C 53.124832 42.147659 56.03883 45.306301 55.962902 49.077248C 55.886978 52.84819 52.84819 55.886978 49.077248 55.962902C 45.306301 56.03883 42.147659 53.124832 41.920002 49.360001L 35.645714 55.600002C 35.209866 56.088642 34.586205 56.368061 33.931427 56.368061C 33.276653 56.368061 32.652992 56.088642 32.217144 55.600002L 27.142857 50.32C 27.86356 49.970524 28.523405 49.507477 29.097143 48.948574C 31.852257 46.174526 31.836906 41.692257 29.062859 38.937145C 26.288811 36.182034 21.806541 36.197384 19.05143 38.971432C 18.492525 39.545166 18.029476 40.205009 17.68 40.925716L 12.4 35.645714C 11.91136 35.209866 11.631939 34.586205 11.631939 33.931427C 11.631939 33.276653 11.91136 32.652992 12.4 32.217144L 18.639999 26.08C 16.915182 25.992985 15.286715 25.258335 14.08 24.022858C 11.335168 21.277073 11.335553 16.826168 14.080861 14.080861C 16.826168 11.335553 21.277073 11.335168 24.022856 14.08Z"></path></g></g></g><g id="g-root-home_13ymm068x2zgu-stroke" data-item-order="1000000000" data-item-id="home_13ymm068x2zgu" data-item-class="Icon Stroke Indexed Indexed_0 InsideFill InsideGrayFill ColorFillGray ColorStrokeBlack" data-item-index="0" data-renderer-id="0" transform="translate(230, 229.99609375)"><g id="home_13ymm068x2zgu-stroke" fill="none" stroke-linecap="round" stroke-linejoin="round" stroke-miterlimit="4" stroke="#484848" stroke-width="2"><g><path d="M 74.5 79C 74.5 79.82843 73.82843 80.5 73 80.5L 19 80.5C 18.171574 80.5 17.5 79.82843 17.5 79L 17.5 13C 17.5 12.171573 18.171574 11.5 19 11.5L 55 11.5C 55.9501 11.551563 56.85405 11.926268 57.562 12.562L 73.438004 28.438C 74.07373 29.14595 74.448441 30.0499 74.5 31ZM 56.5 11.875L 56.5 28C 56.5 28.828428 57.171574 29.5 58 29.5L 74.134003 29.5M 53.563 52L 53.563 64C 53.563 64.82843 52.891426 65.5 52.063 65.5L 37.063 65.5C 36.234573 65.5 35.563 64.82843 35.563 64L 35.563 52M 29.685999 52L 43.549 39.324997C 44.180145 38.76638 45.128849 38.76638 45.759998 39.324997L 59.5 52"></path></g></g></g><g id="g-root-tx__dcbmjq8x2zuq-stroke" data-item-order="1000000000" data-item-id="tx__dcbmjq8x2zuq" data-item-class="Label Stroke Indexed ColorStrokeBlack" data-item-index="3" data-renderer-id="0" transform="translate(224, 446)"></g><g id="g-root-tx__v4ul7q8x2zno-stroke" data-item-order="1000000000" data-item-id="tx__v4ul7q8x2zno" data-item-class="Label Stroke Indexed Indexed_1 ColorStrokeBlack" data-item-index="1" data-renderer-id="0" transform="translate(374, 98)"></g><g id="g-root-sync_qn63mu8x311r-stroke" data-item-order="1000000000" data-item-id="sync_qn63mu8x311r" data-item-class="Icon Stroke Indexed InsideFill InsideColorFill" data-item-index="4" data-renderer-id="0" transform="translate(144.98431396484375, 273.495361328125)"><g id="sync_qn63mu8x311r-stroke" fill="none" stroke-linecap="round" stroke-linejoin="round" stroke-miterlimit="4" stroke="#da5da8" stroke-width="2"><g><path d="M 27 57L 13 57C 11.895431 57 11 56.104568 11 55L 11 13C 11 11.895431 11.895431 11 13 11L 39.580002 11C 40.111607 10.996926 40.622562 11.205627 41 11.58L 48.419998 19C 48.794373 19.377438 49.003075 19.888393 49 20.42L 49 27M 17 21L 17 29M 35 21L 35 29M 29 35L 29 43M 41 21L 41 29M 26 21C 27.656855 21 29 22.343147 29 24L 29 26C 29 27.656855 27.656855 29 26 29C 24.343147 29 23 27.656855 23 26L 23 24C 23 22.343147 24.343147 21 26 21ZM 20 35C 21.656855 35 23 36.343147 23 38L 23 40C 23 41.656853 21.656855 43 20 43C 18.343147 43 17 41.656853 17 40L 17 38C 17 36.343147 18.343147 35 20 35ZM 48.18 40.279999L 54.259998 43L 57 36.860001M 32.639999 40.52C 34.336945 35.570831 39.24939 32.469467 44.447311 33.065716C 49.645233 33.661964 53.72781 37.795128 54.260002 43M 38.760002 49.720001L 32.68 47L 29.940001 53.139999M 54.299999 49.459999C 52.605865 54.408039 47.697712 57.511337 42.501217 56.920063C 37.304718 56.328785 33.219208 52.202156 32.68 47"></path></g></g></g><g id="g-root-chat_v7zeg68x30g3-stroke" data-item-order="1000000000" data-item-id="chat_v7zeg68x30g3" data-item-class="Icon Stroke Indexed InsideFill InsideColorFill" data-item-index="2" data-renderer-id="0" transform="translate(338.9998779296875, 273.544189453125)"><g id="chat_v7zeg68x30g3-stroke" fill="none" stroke-linecap="round" stroke-linejoin="round" stroke-miterlimit="4" stroke="#17b0e3" stroke-width="2"><g><path d="M 51 29C 51 30.10457 50.104568 31 49 31L 41 31L 35 37L 35 31L 21 31C 19.895432 31 19 30.10457 19 29L 19 13C 19 11.895431 19.895432 11 21 11L 49 11C 50.104568 11 51 11.895431 51 13ZM 14.26 42.5C 14.26 45.537567 16.722435 48 19.76 48C 22.797565 48 25.26 45.537567 25.26 42.5C 25.26 39.462433 22.797565 37 19.76 37C 16.722435 37 14.26 39.462433 14.26 42.5M 28.52 57C 27.596384 52.904495 23.958355 49.995548 19.759998 49.995548C 15.561644 49.995548 11.923615 52.904495 11 56.999996M 42.740002 42.5C 42.740002 45.537567 45.202435 48 48.240002 48C 51.277569 48 53.740002 45.537567 53.740002 42.5C 53.740002 39.462433 51.277569 37 48.240002 37C 45.202435 37 42.740002 39.462433 42.740002 42.5M 57 57C 56.076382 52.904495 52.438354 49.995548 48.239998 49.995548C 44.041641 49.995548 40.403614 52.904495 39.48 56.999996M 41 17L 45 21L 41 25M 29 17L 25 21L 29 25M 37 17L 33 25"></path></g></g></g><g id="g-root-tx__13ym67a8x2zup-stroke" data-item-order="1000000000" data-item-id="tx__13ym67a8x2zup" data-item-class="Label Stroke Indexed ColorStrokeBlack" data-item-index="4" data-renderer-id="0" transform="translate(2, 290)"></g><g id="g-root-tx__1q6c5wm8x3217-stroke" data-item-order="1000000000" data-item-id="tx__1q6c5wm8x3217" data-item-class="Label Stroke Indexed ColorStrokeBlack" data-item-index="2" data-renderer-id="0" transform="translate(446, 290)"></g><g id="g-root-tx__1uuwb8m8x1la8-stroke" data-item-order="1000000000" data-item-id="tx__1uuwb8m8x1la8" data-item-class="Label Stroke Indexed ColorStrokeBlack" data-item-index="5" data-renderer-id="0" transform="translate(14, 98)"></g><g id="g-root-acco_8wik868x3094-stroke" data-item-order="1000000000" data-item-id="acco_8wik868x3094" data-item-class="Icon Stroke Indexed InsideFill InsideColorFill" data-item-index="3" data-renderer-id="0" transform="translate(241.97430419921875, 344)"><g id="acco_8wik868x3094-stroke" fill="none" stroke-linecap="round" stroke-linejoin="round" stroke-miterlimit="4" stroke="#795ee3" stroke-width="2"><g><path d="M 15 11L 53 11C 53 11 57 11 57 15L 57 53C 57 53 57 57 53 57L 15 57C 15 57 11 57 11 53L 11 15C 11 15 11 11 15 11M 11 21L 57 21M 38 27L 50 27C 50 27 51 27 51 28L 51 36C 51 36 51 37 50 37L 38 37C 38 37 37 37 37 36L 37 28C 37 28 37 27 38 27M 38 41L 50 41C 50 41 51 41 51 42L 51 50C 51 50 51 51 50 51L 38 51C 38 51 37 51 37 50L 37 42C 37 42 37 41 38 41M 18 27L 30 27C 30 27 31 27 31 28L 31 42C 31 42 31 43 30 43L 18 43C 18 43 17 43 17 42L 17 28C 17 28 17 27 18 27M 21 34C 21 35.656853 22.343147 37 24 37C 25.656855 37 27 35.656853 27 34C 27 32.343147 25.656855 31 24 31C 22.343147 31 21 32.343147 21 34M 19 43C 18.749329 39.970428 20.974888 37.299755 24 37C 27.025112 37.299755 29.250671 39.970428 29 43M 18 47L 26 47M 18 51L 26 51M 18 15.5C 18.276142 15.5 18.5 15.723858 18.5 16C 18.5 16.276142 18.276142 16.5 18 16.5C 17.723858 16.5 17.5 16.276142 17.5 16C 17.5 15.723858 17.723858 15.5 18 15.5M 24 15.5C 24.276142 15.5 24.5 15.723858 24.5 16C 24.5 16.276142 24.276142 16.5 24 16.5C 23.723858 16.5 23.5 16.276142 23.5 16C 23.5 15.723858 23.723858 15.5 24 15.5M 30 15.5C 30.276142 15.5 30.5 15.723858 30.5 16C 30.5 16.276142 30.276142 16.5 30 16.5C 29.723858 16.5 29.5 16.276142 29.5 16C 29.5 15.723858 29.723858 15.5 30 15.5"></path></g></g></g><g id="g-root-tx__dkfso68x1m9z-stroke" data-item-order="1000000000" data-item-id="tx__dkfso68x1m9z" data-item-class="Label Stroke Title ColorStrokeBlack" data-item-index="none" data-renderer-id="0" transform="translate(194, 2)"></g><g id="g-root-6_1q6z2sm8x2z9d-stroke" data-item-order="1000000000" data-item-id="6_1q6z2sm8x2z9d" data-item-class="Icon Stroke Indexed InsideFill InsideColorFill" data-item-index="5" data-renderer-id="0" transform="translate(182.0667724609375, 159.4652099609375)"><g id="6_1q6z2sm8x2z9d-stroke" fill="none" stroke-linecap="round" stroke-linejoin="round" stroke-miterlimit="4" stroke="#e15e5a" stroke-width="2"><g><path d="M 16.857143 49.428574C 16.857143 53.215668 19.927191 56.285713 23.714287 56.285713C 27.501381 56.285713 30.571428 53.215668 30.571428 49.428574C 30.571428 45.641476 27.501381 42.57143 23.714287 42.57143C 19.927191 42.57143 16.857143 45.641476 16.857143 49.428574M 16.857143 18.571428C 16.857143 22.358524 19.927191 25.428572 23.714287 25.428572C 27.501381 25.428572 30.571428 22.358524 30.571428 18.571428C 30.571428 14.784333 27.501381 11.714286 23.714287 11.714286C 19.927191 11.714286 16.857143 14.784333 16.857143 18.571428M 37.428574 22C 37.428574 25.787096 40.498619 28.857143 44.285713 28.857143C 48.072811 28.857143 51.142857 25.787096 51.142857 22C 51.142857 18.212904 48.072811 15.142858 44.285713 15.142858C 40.498619 15.142858 37.428574 18.212904 37.428574 22M 23.714287 42.57143L 23.714287 25.428572M 44.285713 28.857143L 44.285713 30.571428C 44.285713 34.358524 41.215668 37.428574 37.428574 37.428574L 28.857143 37.428574C 26.016823 37.428574 23.714287 39.731106 23.714287 42.57143"></path></g></g></g></g></g></svg>