<?xml version="1.0" encoding="utf-8" standalone="yes"?>
<!DOCTYPE svg PUBLIC "-//W3C//DTD SVG 1.1//EN" "http://www.w3.org/Graphics/SVG/1.1/DTD/svg11.dtd">
<svg width="818" height="589" viewBox="0 0 818 589" style="fill:none;stroke:none;fill-rule:evenodd;clip-rule:evenodd;stroke-linecap:round;stroke-linejoin:round;stroke-miterlimit:1.5;" version="1.1" xmlns="http://www.w3.org/2000/svg" xmlns:xlink="http://www.w3.org/1999/xlink"><style id="fontImports">@import url("https://fonts.googleapis.com/css2?family=Roboto:wght@400;700&amp;display=block");</style><g id="items" style="isolation: isolate"><g id="blend" style="mix-blend-mode:normal"><g id="g-root-0.cu_sy_zlbcvaaut5am-fill" data-item-order="999619844" data-item-id="0.cu_sy_zlbcvaaut5am" data-item-class="Part Indexed_0 Fill Stroke ColorFillGray ColorStrokeBlack" data-item-index="0" data-renderer-id="0" transform="translate(3, 206)"></g><g id="g-root-0.cu_sy_zlbcvaaut5am-fill" data-item-order="999619844" data-item-id="0.cu_sy_zlbcvaaut5am" data-item-class="Part Indexed_0 Fill Stroke ColorFillGray ColorStrokeBlack" data-item-index="0" data-renderer-id="0" transform="translate(3, 206)"></g><g id="g-root-5.cu_sy_dju412aut4oz-fill" data-item-order="999619846" data-item-id="5.cu_sy_dju412aut4oz" data-item-class="Part Indexed Fill Stroke" data-item-index="5" data-renderer-id="0" transform="translate(202.37451171875, 380)"></g><g id="g-root-5.cu_sy_dju412aut4oz-fill" data-item-order="999619846" data-item-id="5.cu_sy_dju412aut4oz" data-item-class="Part Indexed Fill Stroke" data-item-index="5" data-renderer-id="0" transform="translate(202.37451171875, 380)"></g><g id="g-root-4.cu_sy_1usf7c6aut4oy-fill" data-item-order="999619848" data-item-id="4.cu_sy_1usf7c6aut4oy" data-item-class="Part Indexed Fill Stroke" data-item-index="4" data-renderer-id="0" transform="translate(230.1923828125, 344)"></g><g id="g-root-4.cu_sy_1usf7c6aut4oy-fill" data-item-order="999619848" data-item-id="4.cu_sy_1usf7c6aut4oy" data-item-class="Part Indexed Fill Stroke" data-item-index="4" data-renderer-id="0" transform="translate(230.1923828125, 344)"></g><g id="g-root-3.cu_sy_zofqauaut6gx-fill" data-item-order="999619850" data-item-id="3.cu_sy_zofqauaut6gx" data-item-class="Part Indexed Fill Stroke" data-item-index="3" data-renderer-id="0" transform="translate(241.65869140625, 278)"></g><g id="g-root-3.cu_sy_zofqauaut6gx-fill" data-item-order="999619850" data-item-id="3.cu_sy_zofqauaut6gx" data-item-class="Part Indexed Fill Stroke" data-item-index="3" data-renderer-id="0" transform="translate(241.65869140625, 278)"></g><g id="g-root-2.cu_sy_zn6s4maut4aw-fill" data-item-order="999619852" data-item-id="2.cu_sy_zn6s4maut4aw" data-item-class="Part Indexed Fill Stroke" data-item-index="2" data-renderer-id="0" transform="translate(230.1923828125, 182)"></g><g id="g-root-2.cu_sy_zn6s4maut4aw-fill" data-item-order="999619852" data-item-id="2.cu_sy_zn6s4maut4aw" data-item-class="Part Indexed Fill Stroke" data-item-index="2" data-renderer-id="0" transform="translate(230.1923828125, 182)"></g><g id="g-root-1.cu_sy_4j7b3aaut62v-fill" data-item-order="999619854" data-item-id="1.cu_sy_4j7b3aaut62v" data-item-class="Part Indexed Indexed_1 Fill Stroke" data-item-index="1" data-renderer-id="0" transform="translate(202.37451171875, 86)"></g><g id="g-root-1.cu_sy_4j7b3aaut62v-fill" data-item-order="999619854" data-item-id="1.cu_sy_4j7b3aaut62v" data-item-class="Part Indexed Indexed_1 Fill Stroke" data-item-index="1" data-renderer-id="0" transform="translate(202.37451171875, 86)"></g><g id="g-root-fact_qpoixyave7t6-fill" data-item-order="1000000000" data-item-id="fact_qpoixyave7t6" data-item-class="Icon Stroke Indexed InsideFill InsideColorFill" data-item-index="2" data-renderer-id="0" transform="translate(411, 206)"></g><g id="g-root-fact_qpoixyave7t6-fill" data-item-order="1000000000" data-item-id="fact_qpoixyave7t6" data-item-class="Icon Stroke Indexed InsideFill InsideColorFill" data-item-index="2" data-renderer-id="0" transform="translate(411, 206)"></g><g id="g-root-tx__zs6hnqave7eq-fill" data-item-order="1000000000" data-item-id="tx__zs6hnqave7eq" data-item-class="Label Stroke Indexed InsideFill InsideColorFill" data-item-index="2" data-renderer-id="0" transform="translate(471, 218)"><g id="tx__zs6hnqave7eq-fill" stroke="none" fill="#3bc482"><g><text style="font: 20px Roboto, sans-serif; white-space: pre;" font-weight="20px" font-size="Roboto," font-family="sans-serif"><tspan x="12" y="34" dominant-baseline="ideographic">工廠模式</tspan></text></g></g></g><g id="g-root-tx__zs6hnqave7eq-fill" data-item-order="1000000000" data-item-id="tx__zs6hnqave7eq" data-item-class="Label Stroke Indexed InsideFill InsideColorFill" data-item-index="2" data-renderer-id="0" transform="translate(471, 218)"><g id="tx__zs6hnqave7eq-fill" stroke="none" fill="#3bc482"><g><text style="font: 20px Roboto, sans-serif; white-space: pre;" font-weight="20px" font-size="Roboto," font-family="sans-serif"><tspan x="12" y="34" dominant-baseline="ideographic">工廠模式</tspan></text></g></g></g><g id="g-root-1_13z9m1yave77z-fill" data-item-order="1000000000" data-item-id="1_13z9m1yave77z" data-item-class="Icon Stroke Indexed Indexed_1 InsideFill InsideColorFill" data-item-index="1" data-renderer-id="0" transform="translate(411, 110)"></g><g id="g-root-tx__1qeh1baave7ep-fill" data-item-order="1000000000" data-item-id="tx__1qeh1baave7ep" data-item-class="Label Stroke Indexed Indexed_1 InsideFill InsideColorFill" data-item-index="1" data-renderer-id="0" transform="translate(471, 122)"><g id="tx__1qeh1baave7ep-fill" stroke="none" fill="#17b0e3"><g><text style="font: 20px Roboto, sans-serif; white-space: pre;" font-weight="20px" font-size="Roboto," font-family="sans-serif"><tspan x="12" y="34" dominant-baseline="ideographic">單例模式</tspan></text></g></g></g><g id="g-root-tx__qtf3zaave7sw-fill" data-item-order="1000000000" data-item-id="tx__qtf3zaave7sw" data-item-class="Label Stroke InsideFill ColorFillBlack ColorStrokeBlack" data-item-index="none" data-renderer-id="0" transform="translate(81, 314)"><g id="tx__qtf3zaave7sw-fill" stroke="none" fill="#484848"><g><text style="font: bold 20px Roboto, sans-serif; white-space: pre;" font-weight="bold" font-size="20" font-family="Roboto, sans-serif"><tspan x="12" y="34" dominant-baseline="ideographic">設計模式</tspan></text></g></g></g><g id="g-root-tx__qtf3zaave7sw-fill" data-item-order="1000000000" data-item-id="tx__qtf3zaave7sw" data-item-class="Label Stroke InsideFill ColorFillBlack ColorStrokeBlack" data-item-index="none" data-renderer-id="0" transform="translate(81, 314)"><g id="tx__qtf3zaave7sw-fill" stroke="none" fill="#484848"><g><text style="font: bold 20px Roboto, sans-serif; white-space: pre;" font-weight="bold" font-size="20" font-family="Roboto, sans-serif"><tspan x="12" y="34" dominant-baseline="ideographic">設計模式</tspan></text></g></g></g><g id="g-root-refr_1q7m2ueave70h-fill" data-item-order="1000000000" data-item-id="refr_1q7m2ueave70h" data-item-class="Icon Stroke Indexed InsideFill InsideColorFill" data-item-index="3" data-renderer-id="0" transform="translate(411, 302)"></g><g id="g-root-refr_1q7m2ueave70h-fill" data-item-order="1000000000" data-item-id="refr_1q7m2ueave70h" data-item-class="Icon Stroke Indexed InsideFill InsideColorFill" data-item-index="3" data-renderer-id="0" transform="translate(411, 302)"></g><g id="g-root-tx__8vwfs6aut4w3-fill" data-item-order="1000000000" data-item-id="tx__8vwfs6aut4w3" data-item-class="Label Stroke Indexed InsideFill InsideColorFill" data-item-index="3" data-renderer-id="0" transform="translate(471, 314)"><g id="tx__8vwfs6aut4w3-fill" stroke="none" fill="#93c131"><g><text style="font: 20px Roboto, sans-serif; white-space: pre;" font-weight="20px" font-size="Roboto," font-family="sans-serif"><tspan x="12" y="34" dominant-baseline="ideographic">觀察者模式</tspan></text></g></g></g><g id="g-root-tx__8vwfs6aut4w3-fill" data-item-order="1000000000" data-item-id="tx__8vwfs6aut4w3" data-item-class="Label Stroke Indexed InsideFill InsideColorFill" data-item-index="3" data-renderer-id="0" transform="translate(471, 314)"><g id="tx__8vwfs6aut4w3-fill" stroke="none" fill="#93c131"><g><text style="font: 20px Roboto, sans-serif; white-space: pre;" font-weight="20px" font-size="Roboto," font-family="sans-serif"><tspan x="12" y="34" dominant-baseline="ideographic">觀察者模式</tspan></text></g></g></g><g id="g-root-tx__qofeg6aut4p1-fill" data-item-order="1000000000" data-item-id="tx__qofeg6aut4p1" data-item-class="Label Stroke Indexed InsideFill InsideColorFill" data-item-index="5" data-renderer-id="0" transform="translate(471, 506)"><g id="tx__qofeg6aut4p1-fill" stroke="none" fill="#dd8433"><g><text style="font: 20px Roboto, sans-serif; white-space: pre;" font-weight="20px" font-size="Roboto," font-family="sans-serif"><tspan x="12" y="34" dominant-baseline="ideographic">適配器模式</tspan></text></g></g></g><g id="g-root-tx__1qeh1baave7ep-fill" data-item-order="1000000000" data-item-id="tx__1qeh1baave7ep" data-item-class="Label Stroke Indexed Indexed_1 InsideFill InsideColorFill" data-item-index="1" data-renderer-id="0" transform="translate(471, 122)"><g id="tx__1qeh1baave7ep-fill" stroke="none" fill="#17b0e3"><g><text style="font: 20px Roboto, sans-serif; white-space: pre;" font-weight="20px" font-size="Roboto," font-family="sans-serif"><tspan x="12" y="34" dominant-baseline="ideographic">單例模式</tspan></text></g></g></g><g id="g-root-pin_8x5k9yave808-fill" data-item-order="1000000000" data-item-id="pin_8x5k9yave808" data-item-class="Icon Stroke Indexed InsideFill InsideColorFill" data-item-index="4" data-renderer-id="0" transform="translate(411, 398)"></g><g id="g-root-pin_8x5k9yave808-fill" data-item-order="1000000000" data-item-id="pin_8x5k9yave808" data-item-class="Icon Stroke Indexed InsideFill InsideColorFill" data-item-index="4" data-renderer-id="0" transform="translate(411, 398)"></g><g id="g-root-tx__1hapy3qaut4p0-fill" data-item-order="1000000000" data-item-id="tx__1hapy3qaut4p0" data-item-class="Label Stroke Indexed InsideFill InsideColorFill" data-item-index="4" data-renderer-id="0" transform="translate(471, 410)"><g id="tx__1hapy3qaut4p0-fill" stroke="none" fill="#e3cd09"><g><text style="font: 20px Roboto, sans-serif; white-space: pre;" font-weight="20px" font-size="Roboto," font-family="sans-serif"><tspan x="12" y="34" dominant-baseline="ideographic">裝飾器模式</tspan></text></g></g></g><g id="g-root-tx__1hapy3qaut4p0-fill" data-item-order="1000000000" data-item-id="tx__1hapy3qaut4p0" data-item-class="Label Stroke Indexed InsideFill InsideColorFill" data-item-index="4" data-renderer-id="0" transform="translate(471, 410)"><g id="tx__1hapy3qaut4p0-fill" stroke="none" fill="#e3cd09"><g><text style="font: 20px Roboto, sans-serif; white-space: pre;" font-weight="20px" font-size="Roboto," font-family="sans-serif"><tspan x="12" y="34" dominant-baseline="ideographic">裝飾器模式</tspan></text></g></g></g><g id="g-root-tx__4l2n6uave80f-fill" data-item-order="1000000000" data-item-id="tx__4l2n6uave80f" data-item-class="Label Stroke Title ColorStrokeBlack" data-item-index="none" data-renderer-id="0" transform="translate(333, 2)"><g id="tx__4l2n6uave80f-fill" stroke="none" fill="#484848"><g><text style="font: 20px Roboto, sans-serif; white-space: pre;" font-weight="20px" font-size="Roboto," font-family="sans-serif"><tspan x="16" y="34" dominant-baseline="ideographic">常見設計模式</tspan></text></g></g></g><g id="g-root-modu_4gpo86auvz0j-fill" data-item-order="1000000000" data-item-id="modu_4gpo86auvz0j" data-item-class="Icon Stroke Indexed InsideFill InsideColorFill" data-item-index="5" data-renderer-id="0" transform="translate(411, 494)"></g><g id="g-root-tx__qofeg6aut4p1-fill" data-item-order="1000000000" data-item-id="tx__qofeg6aut4p1" data-item-class="Label Stroke Indexed InsideFill InsideColorFill" data-item-index="5" data-renderer-id="0" transform="translate(471, 506)"><g id="tx__qofeg6aut4p1-fill" stroke="none" fill="#dd8433"><g><text style="font: 20px Roboto, sans-serif; white-space: pre;" font-weight="20px" font-size="Roboto," font-family="sans-serif"><tspan x="12" y="34" dominant-baseline="ideographic">適配器模式</tspan></text></g></g></g><g id="g-root-1_13z9m1yave77z-fill" data-item-order="1000000000" data-item-id="1_13z9m1yave77z" data-item-class="Icon Stroke Indexed Indexed_1 InsideFill InsideColorFill" data-item-index="1" data-renderer-id="0" transform="translate(411, 110)"></g><g id="g-root-modu_4gpo86auvz0j-fill" data-item-order="1000000000" data-item-id="modu_4gpo86auvz0j" data-item-class="Icon Stroke Indexed InsideFill InsideColorFill" data-item-index="5" data-renderer-id="0" transform="translate(411, 494)"></g><g id="g-root-0.cu_sy_zlbcvaaut5am-stroke" data-item-order="999619844" data-item-id="0.cu_sy_zlbcvaaut5am" data-item-class="Part Indexed_0 Fill Stroke ColorFillGray ColorStrokeBlack" data-item-index="0" data-renderer-id="0" transform="translate(3, 206)"><g id="0.cu_sy_zlbcvaaut5am-stroke" fill="none" stroke-linecap="round" stroke-linejoin="round" stroke-miterlimit="4" stroke="#484848" stroke-width="2"><g><path d="M 250 130C 250 196.2742 196.2742 250 130 250C 63.7258 250 10 196.2742 10 130C 10 63.7258 63.7258 10 130 10C 196.2742 10 250 63.7258 250 130Z"></path></g></g></g><g id="g-root-0.cu_sy_zlbcvaaut5am-stroke" data-item-order="999619844" data-item-id="0.cu_sy_zlbcvaaut5am" data-item-class="Part Indexed_0 Fill Stroke ColorFillGray ColorStrokeBlack" data-item-index="0" data-renderer-id="0" transform="translate(3, 206)"><g id="0.cu_sy_zlbcvaaut5am-stroke" fill="none" stroke-linecap="round" stroke-linejoin="round" stroke-miterlimit="4" stroke="#484848" stroke-width="2"><g><path d="M 250 130C 250 196.2742 196.2742 250 130 250C 63.7258 250 10 196.2742 10 130C 10 63.7258 63.7258 10 130 10C 196.2742 10 250 63.7258 250 130Z"></path></g></g></g><g id="g-root-5.cu_sy_dju412aut4oz-stroke" data-item-order="999619846" data-item-id="5.cu_sy_dju412aut4oz" data-item-class="Part Indexed Fill Stroke" data-item-index="5" data-renderer-id="0" transform="translate(202.37451171875, 380)"><g id="5.cu_sy_dju412aut4oz-stroke" fill="none" stroke-linecap="round" stroke-linejoin="round" stroke-miterlimit="4" stroke="#dd8433" stroke-width="2"><g><path d="M 602.6252 100L 182.6253 100L 37.8178 10C 30.8929 23.7192 21.4116 35.9279 10 46L 182.6253 196L 602.6252 196L 602.6252 100Z"></path></g></g></g><g id="g-root-5.cu_sy_dju412aut4oz-stroke" data-item-order="999619846" data-item-id="5.cu_sy_dju412aut4oz" data-item-class="Part Indexed Fill Stroke" data-item-index="5" data-renderer-id="0" transform="translate(202.37451171875, 380)"><g id="5.cu_sy_dju412aut4oz-stroke" fill="none" stroke-linecap="round" stroke-linejoin="round" stroke-miterlimit="4" stroke="#dd8433" stroke-width="2"><g><path d="M 602.6252 100L 182.6253 100L 37.8178 10C 30.8929 23.7192 21.4116 35.9279 10 46L 182.6253 196L 602.6252 196L 602.6252 100Z"></path></g></g></g><g id="g-root-4.cu_sy_1usf7c6aut4oy-stroke" data-item-order="999619848" data-item-id="4.cu_sy_1usf7c6aut4oy" data-item-class="Part Indexed Fill Stroke" data-item-index="4" data-renderer-id="0" transform="translate(230.1923828125, 344)"><g id="4.cu_sy_1usf7c6aut4oy-stroke" fill="none" stroke-linecap="round" stroke-linejoin="round" stroke-miterlimit="4" stroke="#e3cd09" stroke-width="2"><g><path d="M 574.8075 40L 154.8075 40L 21.4665 10C 19.5456 22.7701 15.6123 34.8811 10 46L 154.8075 136L 574.8075 136L 574.8075 40Z"></path></g></g></g><g id="g-root-4.cu_sy_1usf7c6aut4oy-stroke" data-item-order="999619848" data-item-id="4.cu_sy_1usf7c6aut4oy" data-item-class="Part Indexed Fill Stroke" data-item-index="4" data-renderer-id="0" transform="translate(230.1923828125, 344)"><g id="4.cu_sy_1usf7c6aut4oy-stroke" fill="none" stroke-linecap="round" stroke-linejoin="round" stroke-miterlimit="4" stroke="#e3cd09" stroke-width="2"><g><path d="M 574.8075 40L 154.8075 40L 21.4665 10C 19.5456 22.7701 15.6123 34.8811 10 46L 154.8075 136L 574.8075 136L 574.8075 40Z"></path></g></g></g><g id="g-root-3.cu_sy_zofqauaut6gx-stroke" data-item-order="999619850" data-item-id="3.cu_sy_zofqauaut6gx" data-item-class="Part Indexed Fill Stroke" data-item-index="3" data-renderer-id="0" transform="translate(241.65869140625, 278)"><g id="3.cu_sy_zofqauaut6gx-stroke" fill="none" stroke-linecap="round" stroke-linejoin="round" stroke-miterlimit="4" stroke="#93c131" stroke-width="2"><g><path d="M 563.3409 10L 143.341 10L 10 40C 10.8832 45.8715 11.341 51.8823 11.341 58C 11.341 64.1177 10.8832 70.1285 10 76L 143.341 106L 563.3409 106L 563.3409 10Z"></path></g></g></g><g id="g-root-3.cu_sy_zofqauaut6gx-stroke" data-item-order="999619850" data-item-id="3.cu_sy_zofqauaut6gx" data-item-class="Part Indexed Fill Stroke" data-item-index="3" data-renderer-id="0" transform="translate(241.65869140625, 278)"><g id="3.cu_sy_zofqauaut6gx-stroke" fill="none" stroke-linecap="round" stroke-linejoin="round" stroke-miterlimit="4" stroke="#93c131" stroke-width="2"><g><path d="M 563.3409 10L 143.341 10L 10 40C 10.8832 45.8715 11.341 51.8823 11.341 58C 11.341 64.1177 10.8832 70.1285 10 76L 143.341 106L 563.3409 106L 563.3409 10Z"></path></g></g></g><g id="g-root-2.cu_sy_zn6s4maut4aw-stroke" data-item-order="999619852" data-item-id="2.cu_sy_zn6s4maut4aw" data-item-class="Part Indexed Fill Stroke" data-item-index="2" data-renderer-id="0" transform="translate(230.1923828125, 182)"><g id="2.cu_sy_zn6s4maut4aw-stroke" fill="none" stroke-linecap="round" stroke-linejoin="round" stroke-miterlimit="4" stroke="#3bc482" stroke-width="2"><g><path d="M 574.8075 10L 154.8075 10L 10 100C 15.6123 111.1189 19.5456 123.2299 21.4665 136L 154.8075 106L 574.8075 106L 574.8075 10Z"></path></g></g></g><g id="g-root-2.cu_sy_zn6s4maut4aw-stroke" data-item-order="999619852" data-item-id="2.cu_sy_zn6s4maut4aw" data-item-class="Part Indexed Fill Stroke" data-item-index="2" data-renderer-id="0" transform="translate(230.1923828125, 182)"><g id="2.cu_sy_zn6s4maut4aw-stroke" fill="none" stroke-linecap="round" stroke-linejoin="round" stroke-miterlimit="4" stroke="#3bc482" stroke-width="2"><g><path d="M 574.8075 10L 154.8075 10L 10 100C 15.6123 111.1189 19.5456 123.2299 21.4665 136L 154.8075 106L 574.8075 106L 574.8075 10Z"></path></g></g></g><g id="g-root-1.cu_sy_4j7b3aaut62v-stroke" data-item-order="999619854" data-item-id="1.cu_sy_4j7b3aaut62v" data-item-class="Part Indexed Indexed_1 Fill Stroke" data-item-index="1" data-renderer-id="0" transform="translate(202.37451171875, 86)"><g id="1.cu_sy_4j7b3aaut62v-stroke" fill="none" stroke-linecap="round" stroke-linejoin="round" stroke-miterlimit="4" stroke="#17b0e3" stroke-width="2"><g><path d="M 182.6253 10L 602.6252 10L 602.6252 106L 182.6253 106L 37.8178 196C 30.8929 182.2808 21.4116 170.0721 10 160L 182.6253 10Z"></path></g></g></g><g id="g-root-1.cu_sy_4j7b3aaut62v-stroke" data-item-order="999619854" data-item-id="1.cu_sy_4j7b3aaut62v" data-item-class="Part Indexed Indexed_1 Fill Stroke" data-item-index="1" data-renderer-id="0" transform="translate(202.37451171875, 86)"><g id="1.cu_sy_4j7b3aaut62v-stroke" fill="none" stroke-linecap="round" stroke-linejoin="round" stroke-miterlimit="4" stroke="#17b0e3" stroke-width="2"><g><path d="M 182.6253 10L 602.6252 10L 602.6252 106L 182.6253 106L 37.8178 196C 30.8929 182.2808 21.4116 170.0721 10 160L 182.6253 10Z"></path></g></g></g><g id="g-root-fact_qpoixyave7t6-stroke" data-item-order="1000000000" data-item-id="fact_qpoixyave7t6" data-item-class="Icon Stroke Indexed InsideFill InsideColorFill" data-item-index="2" data-renderer-id="0" transform="translate(411, 206)"><g id="fact_qpoixyave7t6-stroke" fill="none" stroke-linecap="round" stroke-linejoin="round" stroke-miterlimit="4" stroke="#3bc482" stroke-width="2"><g><path d="M 56.285713 28.857143L 40.857143 39.142857L 40.857143 28.857143L 25.428572 39.142857L 11.714286 39.142857L 11.714286 56.285713L 56.285713 56.285713L 56.285713 28.857143ZM 23.714287 39.142857L 22 11.714286L 13.428572 11.714286L 11.714286 39.142857M 20.285715 49.428574L 20.285715 56.285713M 32.285713 47.714287L 46 47.714287"></path></g></g></g><g id="g-root-fact_qpoixyave7t6-stroke" data-item-order="1000000000" data-item-id="fact_qpoixyave7t6" data-item-class="Icon Stroke Indexed InsideFill InsideColorFill" data-item-index="2" data-renderer-id="0" transform="translate(411, 206)"><g id="fact_qpoixyave7t6-stroke" fill="none" stroke-linecap="round" stroke-linejoin="round" stroke-miterlimit="4" stroke="#3bc482" stroke-width="2"><g><path d="M 56.285713 28.857143L 40.857143 39.142857L 40.857143 28.857143L 25.428572 39.142857L 11.714286 39.142857L 11.714286 56.285713L 56.285713 56.285713L 56.285713 28.857143ZM 23.714287 39.142857L 22 11.714286L 13.428572 11.714286L 11.714286 39.142857M 20.285715 49.428574L 20.285715 56.285713M 32.285713 47.714287L 46 47.714287"></path></g></g></g><g id="g-root-tx__zs6hnqave7eq-stroke" data-item-order="1000000000" data-item-id="tx__zs6hnqave7eq" data-item-class="Label Stroke Indexed InsideFill InsideColorFill" data-item-index="2" data-renderer-id="0" transform="translate(471, 218)"></g><g id="g-root-tx__zs6hnqave7eq-stroke" data-item-order="1000000000" data-item-id="tx__zs6hnqave7eq" data-item-class="Label Stroke Indexed InsideFill InsideColorFill" data-item-index="2" data-renderer-id="0" transform="translate(471, 218)"></g><g id="g-root-1_13z9m1yave77z-stroke" data-item-order="1000000000" data-item-id="1_13z9m1yave77z" data-item-class="Icon Stroke Indexed Indexed_1 InsideFill InsideColorFill" data-item-index="1" data-renderer-id="0" transform="translate(411, 110)"><g id="1_13z9m1yave77z-stroke" fill="none" stroke-linecap="round" stroke-linejoin="round" stroke-miterlimit="4" stroke="#17b0e3" stroke-width="2"><g><path d="M 33 45C 33 51.627419 38.372581 57 45 57C 51.627419 57 57 51.627419 57 45C 57 38.372581 51.627419 33 45 33C 38.372581 33 33 38.372581 33 45ZM 50.348 41.512001L 44.537998 49.257999C 44.276516 49.605347 43.877514 49.822548 43.443855 49.853607C 43.010197 49.884663 42.584312 49.72654 42.276001 49.419998L 39.276001 46.419998M 16.5 19.5C 16.5 24.19442 20.30558 28 25 28C 29.69442 28 33.5 24.19442 33.5 19.5C 33.5 14.80558 29.69442 11 25 11C 20.30558 11 16.5 14.80558 16.5 19.5ZM 27 45L 11 45C 10.999802 39.879585 13.795003 35.167534 18.288727 32.712929C 22.782452 30.258322 28.257736 30.452782 32.566002 33.220001"></path></g></g></g><g id="g-root-tx__1qeh1baave7ep-stroke" data-item-order="1000000000" data-item-id="tx__1qeh1baave7ep" data-item-class="Label Stroke Indexed Indexed_1 InsideFill InsideColorFill" data-item-index="1" data-renderer-id="0" transform="translate(471, 122)"></g><g id="g-root-tx__qtf3zaave7sw-stroke" data-item-order="1000000000" data-item-id="tx__qtf3zaave7sw" data-item-class="Label Stroke InsideFill ColorFillBlack ColorStrokeBlack" data-item-index="none" data-renderer-id="0" transform="translate(81, 314)"></g><g id="g-root-tx__qtf3zaave7sw-stroke" data-item-order="1000000000" data-item-id="tx__qtf3zaave7sw" data-item-class="Label Stroke InsideFill ColorFillBlack ColorStrokeBlack" data-item-index="none" data-renderer-id="0" transform="translate(81, 314)"></g><g id="g-root-refr_1q7m2ueave70h-stroke" data-item-order="1000000000" data-item-id="refr_1q7m2ueave70h" data-item-class="Icon Stroke Indexed InsideFill InsideColorFill" data-item-index="3" data-renderer-id="0" transform="translate(411, 302)"><g id="refr_1q7m2ueave70h-stroke" fill="none" stroke-linecap="round" stroke-linejoin="round" stroke-miterlimit="4" stroke="#93c131" stroke-width="2"><g><path d="M 10 10M 26.988001 11L 35.987999 17L 27.988001 24M 52 45.726002C 47.686188 54.62257 37.518913 59.031864 28.075954 56.101273C 18.632996 53.170677 12.748568 43.779785 14.229637 34.004086C 15.710706 24.228384 24.112741 17.001965 34 17L 35.987999 17M 53.900002 35C 53.966667 35.666664 54 36.333336 54 37C 54.00153 38.686554 53.789852 40.366539 53.369999 42M 50 25C 51.361519 26.810198 52.404457 28.839266 53.084 31M 42 18.661999C 43.812847 19.454662 45.497898 20.512201 47 21.799999M 34 47L 25 47C 24.447716 47 24 46.552284 24 46L 24 29.618C 24.000011 29.271273 24.17963 28.949293 24.474657 28.767143C 24.769684 28.584991 25.138014 28.568666 25.448 28.724001L 34 33ZM 34 35L 43 35C 43.552284 35 44 35.447716 44 36L 44 46C 44 46.552284 43.552284 47 43 47L 34 47M 24 35L 29 35M 24 39L 29 39M 34 33L 34 28M 42 35L 42 30M 34 39L 39 39M 34 43L 39 43"></path></g></g></g><g id="g-root-refr_1q7m2ueave70h-stroke" data-item-order="1000000000" data-item-id="refr_1q7m2ueave70h" data-item-class="Icon Stroke Indexed InsideFill InsideColorFill" data-item-index="3" data-renderer-id="0" transform="translate(411, 302)"><g id="refr_1q7m2ueave70h-stroke" fill="none" stroke-linecap="round" stroke-linejoin="round" stroke-miterlimit="4" stroke="#93c131" stroke-width="2"><g><path d="M 10 10M 26.988001 11L 35.987999 17L 27.988001 24M 52 45.726002C 47.686188 54.62257 37.518913 59.031864 28.075954 56.101273C 18.632996 53.170677 12.748568 43.779785 14.229637 34.004086C 15.710706 24.228384 24.112741 17.001965 34 17L 35.987999 17M 53.900002 35C 53.966667 35.666664 54 36.333336 54 37C 54.00153 38.686554 53.789852 40.366539 53.369999 42M 50 25C 51.361519 26.810198 52.404457 28.839266 53.084 31M 42 18.661999C 43.812847 19.454662 45.497898 20.512201 47 21.799999M 34 47L 25 47C 24.447716 47 24 46.552284 24 46L 24 29.618C 24.000011 29.271273 24.17963 28.949293 24.474657 28.767143C 24.769684 28.584991 25.138014 28.568666 25.448 28.724001L 34 33ZM 34 35L 43 35C 43.552284 35 44 35.447716 44 36L 44 46C 44 46.552284 43.552284 47 43 47L 34 47M 24 35L 29 35M 24 39L 29 39M 34 33L 34 28M 42 35L 42 30M 34 39L 39 39M 34 43L 39 43"></path></g></g></g><g id="g-root-tx__8vwfs6aut4w3-stroke" data-item-order="1000000000" data-item-id="tx__8vwfs6aut4w3" data-item-class="Label Stroke Indexed InsideFill InsideColorFill" data-item-index="3" data-renderer-id="0" transform="translate(471, 314)"></g><g id="g-root-tx__8vwfs6aut4w3-stroke" data-item-order="1000000000" data-item-id="tx__8vwfs6aut4w3" data-item-class="Label Stroke Indexed InsideFill InsideColorFill" data-item-index="3" data-renderer-id="0" transform="translate(471, 314)"></g><g id="g-root-tx__qofeg6aut4p1-stroke" data-item-order="1000000000" data-item-id="tx__qofeg6aut4p1" data-item-class="Label Stroke Indexed InsideFill InsideColorFill" data-item-index="5" data-renderer-id="0" transform="translate(471, 506)"></g><g id="g-root-tx__1qeh1baave7ep-stroke" data-item-order="1000000000" data-item-id="tx__1qeh1baave7ep" data-item-class="Label Stroke Indexed Indexed_1 InsideFill InsideColorFill" data-item-index="1" data-renderer-id="0" transform="translate(471, 122)"></g><g id="g-root-pin_8x5k9yave808-stroke" data-item-order="1000000000" data-item-id="pin_8x5k9yave808" data-item-class="Icon Stroke Indexed InsideFill InsideColorFill" data-item-index="4" data-renderer-id="0" transform="translate(411, 398)"><g id="pin_8x5k9yave808-stroke" fill="none" stroke-linecap="round" stroke-linejoin="round" stroke-miterlimit="4" stroke="#e3cd09" stroke-width="2"><g><path d="M 38.998001 50.978001C 38.998001 54.29171 41.684292 56.978001 44.998001 56.978001C 48.31171 56.978001 50.998001 54.29171 50.998001 50.978001C 50.998001 47.664291 48.31171 44.978001 44.998001 44.978001C 41.684292 44.978001 38.998001 47.664291 38.998001 50.978001ZM 42 10.978C 35.924866 10.978 31 15.902868 31 21.978001L 31 25.978001C 31 26.530285 31.447716 26.978001 32 26.978001L 36 26.978001C 36.552284 26.978001 37 26.530285 37 25.978001L 37 21.978001C 37 19.216576 39.238579 16.978001 42 16.978001C 44.761425 16.978001 47 19.216576 47 21.978001L 47 25.978001C 47 26.530285 47.447716 26.978001 48 26.978001L 52 26.978001C 52.552284 26.978001 53 26.530285 53 25.978001L 53 21.978001C 53 15.902868 48.075134 10.978 42 10.978ZM 50.998001 50.978001L 50.998001 26.978001M 40.563999 55.02L 14.998 26.978001"></path></g></g></g><g id="g-root-pin_8x5k9yave808-stroke" data-item-order="1000000000" data-item-id="pin_8x5k9yave808" data-item-class="Icon Stroke Indexed InsideFill InsideColorFill" data-item-index="4" data-renderer-id="0" transform="translate(411, 398)"><g id="pin_8x5k9yave808-stroke" fill="none" stroke-linecap="round" stroke-linejoin="round" stroke-miterlimit="4" stroke="#e3cd09" stroke-width="2"><g><path d="M 38.998001 50.978001C 38.998001 54.29171 41.684292 56.978001 44.998001 56.978001C 48.31171 56.978001 50.998001 54.29171 50.998001 50.978001C 50.998001 47.664291 48.31171 44.978001 44.998001 44.978001C 41.684292 44.978001 38.998001 47.664291 38.998001 50.978001ZM 42 10.978C 35.924866 10.978 31 15.902868 31 21.978001L 31 25.978001C 31 26.530285 31.447716 26.978001 32 26.978001L 36 26.978001C 36.552284 26.978001 37 26.530285 37 25.978001L 37 21.978001C 37 19.216576 39.238579 16.978001 42 16.978001C 44.761425 16.978001 47 19.216576 47 21.978001L 47 25.978001C 47 26.530285 47.447716 26.978001 48 26.978001L 52 26.978001C 52.552284 26.978001 53 26.530285 53 25.978001L 53 21.978001C 53 15.902868 48.075134 10.978 42 10.978ZM 50.998001 50.978001L 50.998001 26.978001M 40.563999 55.02L 14.998 26.978001"></path></g></g></g><g id="g-root-tx__1hapy3qaut4p0-stroke" data-item-order="1000000000" data-item-id="tx__1hapy3qaut4p0" data-item-class="Label Stroke Indexed InsideFill InsideColorFill" data-item-index="4" data-renderer-id="0" transform="translate(471, 410)"></g><g id="g-root-tx__1hapy3qaut4p0-stroke" data-item-order="1000000000" data-item-id="tx__1hapy3qaut4p0" data-item-class="Label Stroke Indexed InsideFill InsideColorFill" data-item-index="4" data-renderer-id="0" transform="translate(471, 410)"></g><g id="g-root-tx__4l2n6uave80f-stroke" data-item-order="1000000000" data-item-id="tx__4l2n6uave80f" data-item-class="Label Stroke Title ColorStrokeBlack" data-item-index="none" data-renderer-id="0" transform="translate(333, 2)"></g><g id="g-root-modu_4gpo86auvz0j-stroke" data-item-order="1000000000" data-item-id="modu_4gpo86auvz0j" data-item-class="Icon Stroke Indexed InsideFill InsideColorFill" data-item-index="5" data-renderer-id="0" transform="translate(411, 494)"><g id="modu_4gpo86auvz0j-stroke" fill="none" stroke-linecap="round" stroke-linejoin="round" stroke-miterlimit="4" stroke="#dd8433" stroke-width="2"><g><path d="M 39 21C 39 22.104568 38.104568 23 37 23L 29 23C 27.89543 23 27 22.104568 27 21L 27 13C 27 11.895431 27.89543 11 29 11L 37 11C 38.104568 11 39 11.895431 39 13ZM 23 21C 23 22.104568 22.104568 23 21 23L 13 23C 11.895431 23 11 22.104568 11 21L 11 13C 11 11.895431 11.895431 11 13 11L 21 11C 22.104568 11 23 11.895431 23 13ZM 55 21C 55 22.104568 54.104568 23 53 23L 45 23C 43.895432 23 43 22.104568 43 21L 43 13C 43 11.895431 43.895432 11 45 11L 53 11C 54.104568 11 55 11.895431 55 13ZM 39 37C 39 38.104568 38.104568 39 37 39L 29 39C 27.89543 39 27 38.104568 27 37L 27 29C 27 27.89543 27.89543 27 29 27L 37 27C 38.104568 27 39 27.89543 39 29ZM 23 37C 23 38.104568 22.104568 39 21 39L 13 39C 11.895431 39 11 38.104568 11 37L 11 29C 11 27.89543 11.895431 27 13 27L 21 27C 22.104568 27 23 27.89543 23 29ZM 55 37C 55 38.104568 54.104568 39 53 39L 45 39C 43.895432 39 43 38.104568 43 37L 43 29C 43 27.89543 43.895432 27 45 27L 53 27C 54.104568 27 55 27.89543 55 29ZM 39 53C 39 54.104568 38.104568 55 37 55L 29 55C 27.89543 55 27 54.104568 27 53L 27 45C 27 43.895432 27.89543 43 29 43L 37 43C 38.104568 43 39 43.895432 39 45ZM 23 53C 23 54.104568 22.104568 55 21 55L 13 55C 11.895431 55 11 54.104568 11 53L 11 45C 11 43.895432 11.895431 43 13 43L 21 43C 22.104568 43 23 43.895432 23 45ZM 55 53C 55 54.104568 54.104568 55 53 55L 45 55C 43.895432 55 43 54.104568 43 53L 43 45C 43 43.895432 43.895432 43 45 43L 53 43C 54.104568 43 55 43.895432 55 45Z"></path></g></g></g><g id="g-root-tx__qofeg6aut4p1-stroke" data-item-order="1000000000" data-item-id="tx__qofeg6aut4p1" data-item-class="Label Stroke Indexed InsideFill InsideColorFill" data-item-index="5" data-renderer-id="0" transform="translate(471, 506)"></g><g id="g-root-1_13z9m1yave77z-stroke" data-item-order="1000000000" data-item-id="1_13z9m1yave77z" data-item-class="Icon Stroke Indexed Indexed_1 InsideFill InsideColorFill" data-item-index="1" data-renderer-id="0" transform="translate(411, 110)"><g id="1_13z9m1yave77z-stroke" fill="none" stroke-linecap="round" stroke-linejoin="round" stroke-miterlimit="4" stroke="#17b0e3" stroke-width="2"><g><path d="M 33 45C 33 51.627419 38.372581 57 45 57C 51.627419 57 57 51.627419 57 45C 57 38.372581 51.627419 33 45 33C 38.372581 33 33 38.372581 33 45ZM 50.348 41.512001L 44.537998 49.257999C 44.276516 49.605347 43.877514 49.822548 43.443855 49.853607C 43.010197 49.884663 42.584312 49.72654 42.276001 49.419998L 39.276001 46.419998M 16.5 19.5C 16.5 24.19442 20.30558 28 25 28C 29.69442 28 33.5 24.19442 33.5 19.5C 33.5 14.80558 29.69442 11 25 11C 20.30558 11 16.5 14.80558 16.5 19.5ZM 27 45L 11 45C 10.999802 39.879585 13.795003 35.167534 18.288727 32.712929C 22.782452 30.258322 28.257736 30.452782 32.566002 33.220001"></path></g></g></g><g id="g-root-modu_4gpo86auvz0j-stroke" data-item-order="1000000000" data-item-id="modu_4gpo86auvz0j" data-item-class="Icon Stroke Indexed InsideFill InsideColorFill" data-item-index="5" data-renderer-id="0" transform="translate(411, 494)"><g id="modu_4gpo86auvz0j-stroke" fill="none" stroke-linecap="round" stroke-linejoin="round" stroke-miterlimit="4" stroke="#dd8433" stroke-width="2"><g><path d="M 39 21C 39 22.104568 38.104568 23 37 23L 29 23C 27.89543 23 27 22.104568 27 21L 27 13C 27 11.895431 27.89543 11 29 11L 37 11C 38.104568 11 39 11.895431 39 13ZM 23 21C 23 22.104568 22.104568 23 21 23L 13 23C 11.895431 23 11 22.104568 11 21L 11 13C 11 11.895431 11.895431 11 13 11L 21 11C 22.104568 11 23 11.895431 23 13ZM 55 21C 55 22.104568 54.104568 23 53 23L 45 23C 43.895432 23 43 22.104568 43 21L 43 13C 43 11.895431 43.895432 11 45 11L 53 11C 54.104568 11 55 11.895431 55 13ZM 39 37C 39 38.104568 38.104568 39 37 39L 29 39C 27.89543 39 27 38.104568 27 37L 27 29C 27 27.89543 27.89543 27 29 27L 37 27C 38.104568 27 39 27.89543 39 29ZM 23 37C 23 38.104568 22.104568 39 21 39L 13 39C 11.895431 39 11 38.104568 11 37L 11 29C 11 27.89543 11.895431 27 13 27L 21 27C 22.104568 27 23 27.89543 23 29ZM 55 37C 55 38.104568 54.104568 39 53 39L 45 39C 43.895432 39 43 38.104568 43 37L 43 29C 43 27.89543 43.895432 27 45 27L 53 27C 54.104568 27 55 27.89543 55 29ZM 39 53C 39 54.104568 38.104568 55 37 55L 29 55C 27.89543 55 27 54.104568 27 53L 27 45C 27 43.895432 27.89543 43 29 43L 37 43C 38.104568 43 39 43.895432 39 45ZM 23 53C 23 54.104568 22.104568 55 21 55L 13 55C 11.895431 55 11 54.104568 11 53L 11 45C 11 43.895432 11.895431 43 13 43L 21 43C 22.104568 43 23 43.895432 23 45ZM 55 53C 55 54.104568 54.104568 55 53 55L 45 55C 43.895432 55 43 54.104568 43 53L 43 45C 43 43.895432 43.895432 43 45 43L 53 43C 54.104568 43 55 43.895432 55 45Z"></path></g></g></g></g></g></svg>